<svg width="28" height="29" viewBox="0 0 28 29" fill="none" xmlns="http://www.w3.org/2000/svg">
<path d="M20.017 29H22.9067C24.2563 29.0033 25.5518 28.482 26.5074 27.551C27.463 26.62 28 25.3558 28 24.0374V11.4055C28 10.3405 27.5167 9.33032 26.6805 8.64706M20.017 29L20.0205 28.5C20.02 28.5 20.0194 28.5 20.0188 28.5M20.017 29C19.0165 28.9928 18.2092 28.1985 18.2092 27.2211V22.7871C18.2092 21.6552 17.2699 20.7376 16.1112 20.7376H11.8756L20.017 29ZM20.0188 28.5H22.9067H22.9079C24.1285 28.503 25.2978 28.0314 26.1585 27.1929C27.0187 26.3547 27.5 25.2191 27.5 24.0374V11.4055C27.5 10.4947 27.0876 9.62739 26.3682 9.0376M20.0188 28.5C19.2829 28.4938 18.7092 27.9124 18.7092 27.2211V22.7871C18.7092 21.3681 17.535 20.2376 16.1112 20.2376L11.8756 20.2376L11.8725 20.2376C10.455 20.2463 9.29074 21.3744 9.29076 22.7871V26.734H9.23797L9.23798 27.234C9.23799 27.5675 9.10185 27.8897 8.85577 28.1283C8.60928 28.3674 8.27285 28.5024 7.92058 28.5H7.91706H5.09331C2.5454 28.5 0.5 26.4852 0.5 24.0245V11.4117C0.523874 10.4867 0.972068 9.61723 1.7269 9.04568L1.72695 9.04576L1.73445 9.03985L11.3405 1.47359L11.3468 1.46859L11.353 1.46338C12.8372 0.214523 15.0254 0.175559 16.5554 1.37161L16.5555 1.37171L26.3682 9.0376M20.0188 28.5L16.8633 0.977688M26.3682 9.0376L26.3727 9.04108L26.6805 8.64706M26.3682 9.0376C26.3669 9.03648 26.3655 9.03537 26.3641 9.03425L26.6805 8.64706M26.6805 8.64706L16.8633 0.977688M16.8633 0.977688C15.1473 -0.363772 12.6963 -0.320438 11.0311 1.08081L16.8633 0.977688Z" fill="black" stroke="black"/>
</svg>
