<svg width="33" height="33" viewBox="0 0 33 33" fill="none" xmlns="http://www.w3.org/2000/svg">
<g clip-path="url(#clip0_597_58)">
<path d="M29.9157 9.83787C29.3548 10.3691 28.6794 10.8846 27.9083 11.3705L27.5812 11.5763L27.1981 11.6188C26.006 11.7496 24.7893 12.1992 23.7957 12.6633C24.2659 12.5834 24.7703 12.5308 25.292 12.5308C27.5773 12.5308 29.4689 13.4976 30.9188 15.4105L30.9937 15.5106C31.0871 15.6386 31.2297 15.7202 31.3874 15.737C31.407 15.7387 31.426 15.7398 31.4455 15.7398C31.5825 15.7398 31.7156 15.6895 31.8191 15.5967C32.0131 15.4222 32.1646 15.2629 32.296 15.0951C33.4334 13.6374 32.9407 12.2708 32.5521 11.7938C31.894 10.8035 31.0469 10.1152 30.0258 9.72437C29.9878 9.76183 29.9548 9.80041 29.9157 9.83787Z" fill="black"/>
<path d="M17.0996 2.16447C17.883 2.45355 18.4981 2.99594 18.544 3.03396C20.5116 4.4917 21.1038 6.34308 21.0781 8.09661C21.3912 7.29924 21.6434 6.43758 21.7105 5.62176L21.7424 5.2337L21.9414 4.89932C22.325 4.25797 22.708 3.70552 23.114 3.20954L23.4092 2.92661C23.421 2.91822 23.44 2.90424 23.464 2.8869C23.0972 2.13539 22.5358 1.50522 21.7748 1.01036C21.5852 0.858828 20.652 0.168823 19.4034 0.168823C18.8632 0.168823 18.3365 0.29743 17.8372 0.551289C17.4849 0.730221 17.1662 0.966187 16.8905 1.25136C16.7591 1.38723 16.7049 1.58015 16.7474 1.76411C16.7904 1.94807 16.9224 2.09849 17.0996 2.16447Z" fill="black"/>
<path d="M31.2778 16.8497C30.8008 16.8 30.3703 16.5528 30.0912 16.1703L30.0247 16.0826C28.5194 14.0964 26.5568 13.3276 23.9835 13.7654L23.4904 13.8498C22.8255 13.5999 22.1042 13.3628 21.3326 13.1403C21.3449 13.086 21.3493 13.0295 21.3449 12.9719C21.3387 12.8965 21.313 12.8271 21.2794 12.7623C21.6653 12.519 22.4229 12.0672 23.3785 11.626C23.411 11.6126 23.4439 11.5992 23.4769 11.5841C23.4719 11.5852 23.4669 11.5863 23.4618 11.5869C24.5192 11.1049 25.803 10.647 27.0746 10.5072L27.2026 10.4932L27.3117 10.4244C28.0212 9.97764 28.6385 9.50683 29.1468 9.02539C30.1293 8.0955 30.6006 7.10187 30.5475 6.0719C30.4664 4.49563 29.1586 3.47404 29.0764 3.41253C28.4775 3.00602 27.8004 2.79969 27.064 2.79969C25.4653 2.79969 24.1345 3.78102 24.0786 3.82296L23.9802 3.91689C23.6089 4.37149 23.2566 4.88033 22.9027 5.47192L22.8361 5.58375L22.8255 5.71292C22.7523 6.60478 22.4956 7.52404 22.1707 8.37676C22.1713 8.37061 22.1719 8.36446 22.1724 8.35775C22.1534 8.40696 22.1394 8.45448 22.1198 8.50425L22.0712 8.62838C21.5478 9.93011 20.8886 11.0496 20.5206 11.6294L20.4698 11.7099L20.448 11.8027C20.4122 11.9576 20.3825 12.0913 20.3602 12.1953C20.226 11.6775 20.0789 11.1804 19.9218 10.7029L19.9598 8.07985C19.985 6.34477 19.3045 4.98825 17.8781 3.93255L17.8311 3.89565C17.6823 3.76928 17.2305 3.40526 16.7128 3.21403C16.1793 3.01665 15.7851 2.56876 15.6576 2.01463C15.5704 1.63272 15.628 1.24634 15.7941 0.906372C15.6246 0.932093 15.4591 0.969557 15.2998 1.02603C14.4319 1.33357 13.8638 2.07222 13.78 3.00267C13.6905 3.99182 14.1893 4.94966 15.0498 5.4434C15.8377 5.89521 16.7815 6.73171 17.6589 8.26605C17.136 8.23026 16.6317 8.28562 16.1558 8.45672C15.5598 8.67088 14.5913 9.57057 13.4187 10.8986L13.785 12.1595C13.7939 12.1908 13.8001 12.2221 13.804 12.2545C13.9041 13.1671 14.3755 14.3497 15.2047 14.934C15.4569 15.1119 15.5173 15.4608 15.3389 15.7135C15.2304 15.8678 15.0571 15.95 14.8815 15.95C14.7702 15.95 14.6578 15.917 14.5594 15.8477C13.388 15.0213 12.8272 13.5009 12.6974 12.4262L12.5493 11.9163C11.5025 13.1788 10.3417 14.6958 9.15682 16.3364L9.36036 18.1034C9.42354 18.6799 9.71542 19.4196 10.2271 19.7808C10.4792 19.9587 10.5396 20.3076 10.3613 20.5603C10.2522 20.7146 10.0794 20.7968 9.90386 20.7968C9.79259 20.7968 9.6802 20.7639 9.58178 20.6945C8.7313 20.0945 8.33206 18.9908 8.24874 18.2281L8.1878 17.698C4.64048 22.7472 1.11777 28.5121 0.0838775 31.2861C-0.0598269 31.6708 -0.0201265 32.0673 0.192355 32.3737C0.394212 32.6645 0.720762 32.8311 1.08869 32.8311C1.24022 32.8311 1.39287 32.8026 1.54385 32.7461C3.67705 31.951 7.55986 29.7143 11.5333 27.131L10.7862 26.9353C10.0258 26.8419 8.95161 26.4416 8.36337 25.6073C8.18556 25.3546 8.24539 25.0062 8.49757 24.8278C8.75031 24.6489 9.09923 24.7104 9.27704 24.962C9.63826 25.4737 10.378 25.7655 10.9512 25.8282C10.9786 25.831 11.0054 25.836 11.0322 25.8433L12.7919 26.3046C14.8122 24.9604 16.8067 23.5569 18.5658 22.2356H17.9636C17.9429 22.2356 17.9228 22.2344 17.9027 22.2322C16.8257 22.1142 15.2701 21.5539 14.4314 20.3641C14.2536 20.1119 14.314 19.763 14.5661 19.5846C14.8178 19.4068 15.1672 19.4666 15.3456 19.7193C15.9238 20.5391 17.0874 21.0099 17.996 21.1167H20.023C22.4302 19.2222 24.1597 17.6074 24.4633 16.7614C24.6003 16.38 24.6651 15.9808 24.6702 15.5687C26.2034 16.3191 27.0142 17.0488 27.4369 17.6286C28.0514 18.4719 29.0479 18.9963 30.0376 18.9963C30.8769 18.9963 31.6217 18.6172 32.0807 17.9557C32.4235 17.4626 32.5286 16.9498 32.5035 16.4745C32.2038 16.7189 31.833 16.857 31.4455 16.857C31.3896 16.8581 31.3337 16.8553 31.2778 16.8497ZM5.55023 27.5688C5.45462 27.7696 5.25388 27.887 5.04531 27.887C4.96423 27.887 4.88204 27.8697 4.80431 27.8322C4.36481 27.6225 3.93817 27.3664 3.5367 27.0717C3.28787 26.8889 3.23363 26.5389 3.41648 26.2906C3.59932 26.0418 3.9488 25.9875 4.19762 26.1704C4.54319 26.4237 4.90944 26.6434 5.28631 26.8235C5.56533 26.9566 5.68331 27.2904 5.55023 27.5688ZM22.9021 16.9028C22.8171 17.126 22.6046 17.2635 22.3793 17.2635C22.3128 17.2635 22.2457 17.2518 22.1802 17.2266C20.8589 16.7228 19.6456 15.8315 18.5737 14.5779C18.3729 14.343 18.4003 13.9902 18.6352 13.7894C18.87 13.5893 19.2228 13.6161 19.4236 13.8509C20.3725 14.9609 21.4338 15.7454 22.5784 16.181C22.8674 16.2911 23.0123 16.6143 22.9021 16.9028Z" fill="black"/>
</g>
<defs>
<clipPath id="clip0_597_58">
<rect width="33" height="33" fill="white"/>
</clipPath>
</defs>
</svg>
