<svg width="638" height="797" viewBox="0 0 638 797" fill="none" xmlns="http://www.w3.org/2000/svg">
<path d="M185.916 353.949C184.695 352.932 183.359 351.508 182.342 349.59C178.52 342.456 182.24 334.566 182.806 333.404C182.153 333.171 180.147 332.546 178.447 333.563C177.547 334.101 177.082 334.9 176.733 335.583C175.164 338.707 174.611 342.398 174.393 344.606C172.839 342.006 171.24 340.117 170.034 338.852C167.637 336.339 166.533 335.99 166.14 335.888C163.394 335.176 160.822 337.022 160.067 337.603C161.694 338.969 163.568 340.799 165.356 343.212C168.538 347.498 170.049 351.712 170.805 354.574C169.511 354.211 167.448 353.441 165.356 351.77C162.9 349.823 161.607 347.585 160.997 346.321C160.255 346.873 157.684 348.922 158.032 351.145C158.236 352.424 159.34 353.237 159.907 353.63C164.673 357.015 175.178 362.348 176.718 363.133C177.27 361.752 178.433 359.398 180.772 357.219C182.676 355.432 184.623 354.473 185.916 353.949Z" fill="white" stroke="#1D1D1B" stroke-width="2" stroke-miterlimit="10"/>
<path d="M180.787 357.219C180.787 357.219 184.841 353.368 191.685 352.86C203.861 351.944 216.619 367.39 232.166 387.733C253.802 416.067 264.627 430.219 262.375 432.573C260.428 434.593 253.918 429.071 217.854 406.113C190.987 388.997 175.047 379.61 175.817 368.436C176.297 361.505 180.801 357.233 180.801 357.233L180.787 357.219Z" fill="white" stroke="#1D1D1B" stroke-width="2" stroke-miterlimit="10"/>
<path d="M184.841 383.679C185.901 382.197 187.107 380.656 188.488 379.087C191.278 375.905 194.097 373.377 196.654 371.386" fill="white"/>
<path d="M184.841 383.679C185.901 382.197 187.107 380.656 188.488 379.087C191.278 375.905 194.097 373.377 196.654 371.386" stroke="#1D1D1B" stroke-width="2" stroke-linecap="round" stroke-linejoin="round"/>
<path d="M207.392 384.856C208.453 383.373 209.659 381.833 211.039 380.264C213.829 377.082 216.648 374.554 219.205 372.563" fill="white"/>
<path d="M207.392 384.856C208.453 383.373 209.659 381.833 211.039 380.264C213.829 377.082 216.648 374.554 219.205 372.563" stroke="#1D1D1B" stroke-width="2" stroke-linecap="round" stroke-linejoin="round"/>
<path d="M211.606 401.87C212.666 400.388 213.872 398.848 215.253 397.279C218.043 394.097 220.861 391.569 223.419 389.578" fill="white"/>
<path d="M211.606 401.87C212.666 400.388 213.872 398.848 215.253 397.279C218.043 394.097 220.861 391.569 223.419 389.578" stroke="#1D1D1B" stroke-width="2" stroke-linecap="round" stroke-linejoin="round"/>
<path d="M233.329 408.511C234.055 407.581 234.898 406.622 235.842 405.634C237.775 403.643 239.722 402.059 241.495 400.81" fill="white"/>
<path d="M233.329 408.511C234.055 407.581 234.898 406.622 235.842 405.634C237.775 403.643 239.722 402.059 241.495 400.81" stroke="#1D1D1B" stroke-width="2" stroke-linecap="round" stroke-linejoin="round"/>
<path d="M243.616 422.693C244.139 422.082 244.749 421.443 245.432 420.789C246.827 419.481 248.237 418.435 249.515 417.607" fill="white"/>
<path d="M243.616 422.693C244.139 422.082 244.749 421.443 245.432 420.789C246.827 419.481 248.237 418.435 249.515 417.607" stroke="#1D1D1B" stroke-linecap="round" stroke-linejoin="round"/>
<path d="M581.02 669.291C581.91 668.548 582.886 667.509 583.628 666.109C586.418 660.902 583.703 655.143 583.289 654.295C583.766 654.125 585.23 653.669 586.471 654.411C587.128 654.804 587.468 655.387 587.722 655.885C588.868 658.166 589.271 660.859 589.43 662.471C590.564 660.573 591.731 659.194 592.611 658.272C594.361 656.437 595.167 656.182 595.454 656.108C597.458 655.588 599.335 656.935 599.887 657.36C598.699 658.356 597.331 659.693 596.026 661.453C593.704 664.582 592.601 667.657 592.049 669.747C592.993 669.482 594.499 668.92 596.026 667.7C597.819 666.279 598.762 664.646 599.208 663.723C599.749 664.126 601.626 665.621 601.371 667.244C601.223 668.177 600.417 668.771 600.003 669.057C596.525 671.528 588.857 675.421 587.733 675.993C587.33 674.986 586.481 673.268 584.774 671.677C583.385 670.372 581.963 669.673 581.02 669.291Z" fill="white" stroke="#1D1D1B" stroke-width="2" stroke-miterlimit="10"/>
<path d="M584.763 671.677C584.763 671.677 581.804 668.866 576.809 668.495C567.922 667.827 558.61 679.101 547.262 693.948C531.471 714.629 523.57 724.959 525.213 726.677C526.635 728.151 531.386 724.121 557.709 707.364C577.318 694.871 588.952 688.02 588.39 679.864C588.04 674.806 584.753 671.688 584.753 671.688L584.763 671.677Z" fill="white" stroke="#1D1D1B" stroke-width="2" stroke-miterlimit="10"/>
<path d="M581.804 690.99C581.03 689.908 580.15 688.784 579.142 687.638C577.106 685.316 575.049 683.47 573.182 682.017" fill="white"/>
<path d="M581.804 690.99C581.03 689.908 580.15 688.784 579.142 687.638C577.106 685.316 575.049 683.47 573.182 682.017" stroke="#1D1D1B" stroke-width="2" stroke-linecap="round" stroke-linejoin="round"/>
<path d="M565.345 691.849C564.57 690.767 563.69 689.643 562.683 688.497C560.646 686.175 558.589 684.329 556.722 682.876" fill="white"/>
<path d="M565.345 691.849C564.57 690.767 563.69 689.643 562.683 688.497C560.646 686.175 558.589 684.329 556.722 682.876" stroke="#1D1D1B" stroke-width="2" stroke-linecap="round" stroke-linejoin="round"/>
<path d="M562.269 704.268C561.495 703.186 560.615 702.062 559.607 700.916C557.571 698.594 555.513 696.748 553.647 695.295" fill="white"/>
<path d="M562.269 704.268C561.495 703.186 560.615 702.062 559.607 700.916C557.571 698.594 555.513 696.748 553.647 695.295" stroke="#1D1D1B" stroke-width="2" stroke-linecap="round" stroke-linejoin="round"/>
<path d="M546.414 709.114C545.883 708.436 545.268 707.736 544.579 707.014C543.169 705.561 541.747 704.405 540.453 703.493" fill="white"/>
<path d="M546.414 709.114C545.883 708.436 545.268 707.736 544.579 707.014C543.169 705.561 541.747 704.405 540.453 703.493" stroke="#1D1D1B" stroke-width="2" stroke-linecap="round" stroke-linejoin="round"/>
<path d="M538.905 719.465C538.523 719.02 538.078 718.553 537.579 718.076C536.561 717.122 535.533 716.358 534.599 715.753" fill="white"/>
<path d="M538.905 719.465C538.523 719.02 538.078 718.553 537.579 718.076C536.561 717.122 535.533 716.358 534.599 715.753" stroke="#1D1D1B" stroke-linecap="round" stroke-linejoin="round"/>
<path d="M396.137 281.813C396.265 288.106 391.123 288.746 388.335 297.853C384.165 311.386 392.914 318.523 388.335 328.27C384.984 335.433 376.593 339.449 370.248 340.191C353.032 342.212 331.696 322.437 332.003 300.309C332.31 277.592 355.309 258.61 373.523 261.245C384.395 262.831 395.933 272.45 396.137 281.813Z" fill="white" stroke="#1D1D1B" stroke-width="2" stroke-linecap="round" stroke-linejoin="round"/>
<path d="M388.335 297.853C391.277 297.751 395.779 297.392 401.075 296.216C411.845 293.811 414.198 290.562 419.98 291.278C426.171 292.046 432.31 296.804 434.792 303.2C437.503 310.184 436.173 319.828 430.673 322.923C426.733 325.149 421.771 323.384 415.861 321.286C408.954 318.83 407.624 316.426 401.893 314.712C396.393 313.074 391.43 313.458 388.181 313.995C387.542 311.488 386.954 307.932 387.286 303.711C387.465 301.46 387.849 299.49 388.309 297.853H388.335Z" fill="white" stroke="#1D1D1B" stroke-width="2" stroke-linecap="round" stroke-linejoin="round"/>
<path d="M109.852 41.1994C112.689 44.7556 115.842 42.7353 121.599 46.5078C130.169 52.1014 128.605 60.11 135.653 63.4105C140.825 65.8426 147.343 64.1976 151.211 61.6785C161.712 54.8469 164.432 34.0003 154.037 21.8454C143.371 9.36354 121.82 9.44133 112.916 19.3212C107.607 25.226 105.64 35.9019 109.852 41.1994Z" fill="white" stroke="#1D1D1B" stroke-width="2" stroke-linecap="round" stroke-linejoin="round"/>
<path d="M121.599 46.5079C119.917 47.8103 117.249 49.6915 113.763 51.4843C106.667 55.1241 103.858 54.4062 100.976 57.4755C97.8906 60.7623 96.6772 66.2433 98.2532 70.9438C99.9731 76.0777 105.168 80.8223 109.655 80.0012C112.873 79.4177 114.815 76.1438 117.13 72.2477C119.833 67.6917 119.461 65.7408 121.854 62.1407C124.154 58.6896 127.089 56.6098 129.143 55.4072C128.34 53.7186 127.024 51.4707 124.888 49.2787C123.749 48.1105 122.626 47.1931 121.613 46.4961L121.599 46.5079Z" fill="white" stroke="#1D1D1B" stroke-width="2" stroke-linecap="round" stroke-linejoin="round"/>
<path d="M53.3845 290.609C51.738 288.545 49.9077 289.718 46.5657 287.528C41.591 284.281 42.499 279.632 38.4077 277.716C35.4056 276.304 31.6217 277.259 29.3762 278.722C23.2805 282.687 21.7019 294.788 27.7359 301.844C33.9276 309.09 46.4373 309.044 51.6061 303.309C54.6878 299.882 55.8297 293.684 53.3845 290.609Z" fill="white" stroke="#1D1D1B" stroke-width="2" stroke-linecap="round" stroke-linejoin="round"/>
<path d="M46.5657 287.528C47.5421 286.772 49.0906 285.68 51.1144 284.639C55.2334 282.526 56.864 282.943 58.5369 281.161C60.328 279.253 61.0324 276.072 60.1175 273.343C59.1191 270.363 56.1034 267.609 53.499 268.085C51.6312 268.424 50.5038 270.325 49.1601 272.586C47.5907 275.231 47.8065 276.363 46.4178 278.453C45.0827 280.456 43.3789 281.664 42.1868 282.362C42.6529 283.342 43.4168 284.647 44.6562 285.919C45.3177 286.598 45.9698 287.13 46.5574 287.535L46.5657 287.528Z" fill="white" stroke="#1D1D1B" stroke-width="2" stroke-linecap="round" stroke-linejoin="round"/>
<path d="M237.614 188.248C239.529 188.564 239.951 187.023 242.852 186.574C247.165 185.899 248.957 188.883 252.133 187.915C254.466 187.208 256.062 184.825 256.568 182.922C257.943 177.758 252.85 170.377 246.085 169.495C239.141 168.587 232.335 174.767 232.336 180.441C232.341 183.828 234.767 187.772 237.614 188.248Z" fill="white" stroke="#1D1D1B" stroke-width="2" stroke-linecap="round" stroke-linejoin="round"/>
<path d="M242.852 186.574C242.692 187.467 242.384 188.825 241.791 190.389C240.583 193.569 239.488 194.144 239.451 195.94C239.413 197.862 240.594 199.945 242.436 200.985C244.447 202.12 247.448 202.139 248.635 200.597C249.488 199.494 249.168 197.901 248.789 196.006C248.344 193.79 247.669 193.278 247.398 191.454C247.141 189.704 247.477 188.207 247.784 187.239C247.048 186.933 245.989 186.597 244.686 186.513C243.991 186.468 243.373 186.498 242.854 186.566L242.852 186.574Z" fill="white" stroke="#1D1D1B" stroke-width="2" stroke-linecap="round" stroke-linejoin="round"/>
<path d="M450.301 95.0533C449.415 92.623 448.121 89.6475 446.167 86.5131C444.441 83.7194 442.647 81.5162 441.057 79.79C440.966 78.836 440.83 76.542 442.033 74.1117C442.806 72.5672 443.805 71.5678 444.464 71C446.076 75.2474 448.143 79.9945 450.801 84.9686C452.981 89.057 455.207 92.6683 457.365 95.8254" fill="white"/>
<path d="M450.301 95.0533C449.415 92.623 448.121 89.6475 446.167 86.5131C444.441 83.7194 442.647 81.5162 441.057 79.79C440.966 78.836 440.83 76.542 442.033 74.1117C442.806 72.5672 443.805 71.5678 444.464 71C446.076 75.2474 448.143 79.9945 450.801 84.9686C452.981 89.057 455.207 92.6683 457.365 95.8254" stroke="#1D1D1B" stroke-width="2" stroke-linecap="round" stroke-linejoin="round"/>
<path d="M457.111 72.3374C443.781 68.6549 425.902 72.3874 417.471 85.9007C407.39 102.097 415.354 125.141 431.4 134.822C449.779 145.902 477.156 138.471 484.604 119.476C492.019 100.53 476.622 77.736 457.111 72.3374Z" fill="white" stroke="#1D1D1B" stroke-width="2" stroke-linecap="round" stroke-linejoin="round"/>
<path d="M449.613 90.5496C449.696 89.9498 449.413 89.1499 446.763 86.9838C444.88 85.4342 442.065 83.4348 438.199 81.6352C439.865 81.2353 443.714 80.5188 448.196 81.9851C453.995 83.8846 456.977 88.1502 457.844 89.4832C459.227 86.5672 461.176 83.1014 463.909 79.4857C466.225 76.4198 468.591 73.9371 470.691 71.9875C469.074 76.0199 467.491 80.4188 466.042 85.2009C465.075 88.4168 464.242 91.516 463.542 94.4819C464.009 94.2487 467.358 92.5825 470.691 94.1321C474.023 95.6817 475.939 99.8307 474.973 104.13C474.44 103.246 472.823 100.814 469.624 99.4807C465.509 97.7811 461.826 99.1641 461.06 99.4807C460.96 101.73 460.46 105.796 457.844 109.828C452.295 118.426 442.098 119.359 440.698 119.476C442.331 118.559 447.596 115.343 449.979 108.762C451.262 105.246 451.229 102.113 451.046 100.197C448.113 101.08 443.348 102.113 437.482 101.63C430.517 101.047 425.319 98.5976 422.486 96.9813C430.867 96.3315 437.482 95.1485 442.131 94.1321C445.73 93.3489 449.396 92.3825 449.629 90.5663L449.613 90.5496Z" fill="white" stroke="#1D1D1B" stroke-width="2" stroke-linecap="round" stroke-linejoin="round"/>
<path d="M135.232 536.43C135.874 534.669 136.812 532.513 138.227 530.241C139.478 528.217 140.779 526.62 141.931 525.37C141.996 524.678 142.095 523.016 141.223 521.255C140.663 520.136 139.939 519.411 139.462 519C138.293 522.078 136.796 525.518 134.87 529.122C133.29 532.085 131.677 534.702 130.113 536.989" fill="white"/>
<path d="M135.232 536.43C135.874 534.669 136.812 532.513 138.227 530.241C139.478 528.217 140.779 526.62 141.931 525.37C141.996 524.678 142.095 523.016 141.223 521.255C140.663 520.136 139.939 519.411 139.462 519C138.293 522.078 136.796 525.518 134.87 529.122C133.29 532.085 131.677 534.702 130.113 536.989" stroke="#1D1D1B" stroke-width="2" stroke-linecap="round" stroke-linejoin="round"/>
<path d="M130.297 519.969C139.957 517.301 152.912 520.005 159.022 529.798C166.327 541.534 160.555 558.232 148.928 565.248C135.61 573.277 115.772 567.892 110.375 554.127C105.002 540.399 116.158 523.881 130.297 519.969Z" fill="white" stroke="#1D1D1B" stroke-width="2" stroke-linecap="round" stroke-linejoin="round"/>
<path d="M135.731 533.166C135.67 532.732 135.876 532.152 137.795 530.582C139.16 529.46 141.2 528.011 144.002 526.707C142.794 526.417 140.005 525.898 136.757 526.96C132.555 528.337 130.394 531.428 129.766 532.394C128.764 530.281 127.351 527.769 125.371 525.149C123.693 522.927 121.978 521.128 120.457 519.716C121.628 522.638 122.775 525.825 123.826 529.29C124.526 531.621 125.13 533.867 125.637 536.016C125.299 535.847 122.872 534.639 120.457 535.762C118.042 536.885 116.653 539.892 117.354 543.007C117.74 542.367 118.911 540.604 121.23 539.638C124.212 538.407 126.88 539.409 127.436 539.638C127.508 541.268 127.87 544.214 129.766 547.136C133.787 553.367 141.176 554.043 142.19 554.127C141.007 553.463 137.192 551.133 135.465 546.364C134.535 543.816 134.56 541.546 134.692 540.157C136.817 540.797 140.271 541.546 144.521 541.196C149.568 540.773 153.335 538.998 155.388 537.827C149.314 537.356 144.521 536.499 141.152 535.762C138.544 535.195 135.888 534.495 135.719 533.178L135.731 533.166Z" fill="white" stroke="#1D1D1B" stroke-width="2" stroke-linecap="round" stroke-linejoin="round"/>
<path d="M569.357 412.076C560.034 421.73 563.899 430.897 558.907 442.946C549.421 465.857 524.299 460.599 512.024 482.799C504.109 497.101 503.828 518.636 513.917 528.462C529.687 543.801 570.495 530.25 592.687 506.841C609.718 488.871 618.059 462.689 613.264 439.24C610.924 427.793 603.027 404.556 588.463 403.264C578.9 402.424 570.466 410.933 569.375 412.069L569.357 412.076Z" fill="white" stroke="#1D1D1B" stroke-width="2" stroke-miterlimit="10"/>
<path d="M565.985 412.363C563.156 414.544 561.132 416.702 559.915 418.1C564.808 416.883 569.701 415.667 574.595 414.45C574.315 419.093 574.011 423.725 573.731 428.368C576.412 423.043 579.069 417.707 581.75 412.382C582.497 413.946 583.215 415.6 583.911 417.361C585.475 421.319 586.592 425.077 587.383 428.472C588.137 426.997 589.08 424.702 589.504 421.775C589.858 419.269 589.707 417.138 589.471 415.613C589.744 416.391 591.051 419.844 594.837 421.813C598.283 423.604 601.538 422.98 602.4 422.778C600.86 421.213 598.869 418.873 597.157 415.682C595.621 412.825 594.793 410.178 594.307 408.165C595.854 408.615 597.612 409.27 599.48 410.184C602.96 411.904 605.556 413.992 607.371 415.718C604.828 408.848 600.952 406.057 599.147 404.982C586.055 397.179 567.167 411.433 565.996 412.339L565.985 412.363Z" fill="white" stroke="#1D1D1B" stroke-width="2" stroke-linecap="round" stroke-linejoin="round"/>
<path d="M580.693 408.227C579.341 406.576 577.522 404.613 575.148 402.705C573.042 401 571.045 399.774 569.337 398.864C569.006 398.146 568.275 396.397 568.55 394.177C568.73 392.765 569.236 391.714 569.594 391.093C572.007 393.96 574.909 397.092 578.334 400.24C581.145 402.828 583.862 405.033 586.402 406.903" fill="white"/>
<path d="M580.693 408.227C579.341 406.576 577.522 404.613 575.148 402.705C573.042 401 571.045 399.774 569.337 398.864C569.006 398.146 568.275 396.397 568.55 394.177C568.73 392.765 569.236 391.714 569.594 391.093C572.007 393.96 574.909 397.092 578.334 400.24C581.145 402.828 583.862 405.033 586.402 406.903" stroke="#1D1D1B" stroke-width="2" stroke-linecap="round" stroke-linejoin="round"/>
<path d="M39.6559 719.487C45.0766 725.101 42.8299 730.43 45.7323 737.436C51.2476 750.757 65.8546 747.7 72.9917 760.608C77.5934 768.924 77.7571 781.444 71.8911 787.158C62.7217 796.077 38.9948 788.198 26.0912 774.587C16.189 764.138 11.3395 748.915 14.1274 735.281C15.488 728.626 20.0791 715.115 28.5474 714.363C34.1078 713.875 39.0114 718.823 39.6456 719.483L39.6559 719.487Z" fill="white" stroke="#1D1D1B" stroke-width="2" stroke-miterlimit="10"/>
<path d="M41.617 719.654C43.2618 720.922 44.4384 722.177 45.1461 722.99C42.301 722.282 39.4558 721.575 36.6107 720.867C36.7735 723.567 36.9501 726.26 37.1129 728.96C35.554 725.864 34.0091 722.761 32.4502 719.665C32.0163 720.575 31.5988 721.536 31.1942 722.56C30.2847 724.862 29.6354 727.046 29.1752 729.02C28.7368 728.163 28.1884 726.828 27.9417 725.126C27.7362 723.669 27.8237 722.431 27.961 721.544C27.8026 721.996 27.0423 724.003 24.8411 725.149C22.8378 726.19 20.9452 725.827 20.444 725.71C21.3395 724.8 22.4967 723.439 23.4925 721.584C24.3855 719.923 24.8667 718.383 25.1495 717.213C24.2499 717.475 23.228 717.856 22.1418 718.387C20.1185 719.387 18.6087 720.601 17.5533 721.605C19.0324 717.61 21.2855 715.987 22.3352 715.362C29.9474 710.826 40.9292 719.113 41.6103 719.64L41.617 719.654Z" fill="white" stroke="#1D1D1B" stroke-width="2" stroke-linecap="round" stroke-linejoin="round"/>
<path d="M33.0652 717.249C33.8512 716.289 34.9086 715.148 36.2894 714.038C37.5134 713.047 38.6747 712.335 39.6678 711.805C39.8601 711.388 40.2853 710.371 40.1255 709.08C40.0207 708.259 39.7267 707.648 39.5185 707.287C38.1156 708.954 36.4279 710.775 34.4369 712.605C32.8022 714.11 31.2225 715.392 29.7456 716.479" fill="white"/>
<path d="M33.0652 717.249C33.8512 716.289 34.9086 715.148 36.2894 714.038C37.5134 713.047 38.6747 712.335 39.6678 711.805C39.8601 711.388 40.2853 710.371 40.1255 709.08C40.0207 708.259 39.7267 707.648 39.5185 707.287C38.1156 708.954 36.4279 710.775 34.4369 712.605C32.8022 714.11 31.2225 715.392 29.7456 716.479" stroke="#1D1D1B" stroke-width="2" stroke-linecap="round" stroke-linejoin="round"/>
<path d="M548.216 268.489C546.205 267.916 540.34 265.95 537.103 260.343C532.777 252.87 536.272 244.375 537.474 241.442C539.924 235.465 542.003 236.195 548.958 226.25C556.779 215.081 557.363 209.586 557.476 208.092C557.869 203.193 556.633 199.125 555.621 196.608C557.004 196.428 559.195 196.372 560.543 197.732C561.229 198.417 561.397 199.17 561.824 200.496C562.274 201.867 562.982 203.844 564.139 206.238C564.229 200.619 567.15 195.799 571.544 194.012C574.454 192.821 577.218 193.293 578.578 193.641C576.758 194.922 573.825 197.394 571.915 201.417C569.049 207.463 570.24 213.351 570.802 215.958C574.589 233.397 591.59 234.7 593.77 249.578C594.692 255.859 592.916 263.972 587.107 268.849C580.848 274.085 573.432 273.456 571.915 273.299C570.6 274.433 567.611 276.658 563.397 277.007C557.532 277.49 551.677 274.141 548.205 268.489H548.216Z" fill="white" stroke="#1D1D1B" stroke-width="2" stroke-linecap="round" stroke-linejoin="round"/>
<path d="M557.228 276.119C550.037 273.298 545.115 267.231 544.688 260.522C544.396 255.825 546.396 252.173 547.464 250.522" fill="white"/>
<path d="M557.228 276.119C550.037 273.298 545.115 267.231 544.688 260.522C544.396 255.825 546.396 252.173 547.464 250.522" stroke="#1D1D1B" stroke-width="2" stroke-linecap="round" stroke-linejoin="round"/>
<path d="M563.408 277.007C564.577 276.917 566.499 276.636 568.577 275.535C568.937 275.344 570.454 274.523 571.881 273.051C575.117 269.692 575.6 265.017 575.791 263.096C576.567 255.432 573.072 249.274 571.555 246.915" fill="white"/>
<path d="M563.408 277.007C564.577 276.917 566.499 276.636 568.577 275.535C568.937 275.344 570.454 274.523 571.881 273.051C575.117 269.692 575.6 265.017 575.791 263.096C576.567 255.432 573.072 249.274 571.555 246.915" stroke="#1D1D1B" stroke-width="2" stroke-linecap="round" stroke-linejoin="round"/>
<path d="M402.4 494.57C403.555 493.578 406.832 490.49 407.262 485.797C407.843 479.539 402.943 474.99 401.254 473.418C397.812 470.214 396.661 471.331 389.031 466.878C380.457 461.881 378.395 458.427 377.865 457.474C376.112 454.355 375.688 451.29 375.589 449.318C374.621 449.62 373.155 450.251 372.679 451.561C372.435 452.223 372.553 452.772 372.675 453.779C372.796 454.822 372.931 456.345 372.896 458.28C371.123 454.594 367.722 452.298 364.274 452.457C361.987 452.557 360.304 453.712 359.511 454.357C361.105 454.648 363.797 455.388 366.287 457.465C370.024 460.587 371.032 464.841 371.455 466.736C374.27 479.417 363.43 485.462 366.526 495.96C367.832 500.393 371.479 505.214 376.805 506.666C382.539 508.218 387.249 505.541 388.203 504.975C389.418 505.324 392.072 505.883 394.964 504.828C398.988 503.359 401.836 499.361 402.408 494.567L402.4 494.57Z" fill="white" stroke="#1D1D1B" stroke-width="2" stroke-linecap="round" stroke-linejoin="round"/>
<path d="M398.77 502.361C402.664 498.304 404.067 492.793 402.303 488.229C401.064 485.035 398.629 483.231 397.42 482.465" fill="white"/>
<path d="M398.77 502.361C402.664 498.304 404.067 492.793 402.303 488.229C401.064 485.035 398.629 483.231 397.42 482.465" stroke="#1D1D1B" stroke-width="2" stroke-linecap="round" stroke-linejoin="round"/>
<path d="M394.956 504.832C394.156 505.129 392.801 505.529 391.091 505.435C390.795 505.418 389.542 505.339 388.15 504.801C384.987 503.567 383.242 500.625 382.53 499.413C379.681 494.584 380.113 489.449 380.397 487.426" fill="white"/>
<path d="M394.956 504.832C394.156 505.129 392.801 505.529 391.091 505.435C390.795 505.418 389.542 505.339 388.15 504.801C384.987 503.567 383.242 500.625 382.53 499.413C379.681 494.584 380.113 489.449 380.397 487.426" stroke="#1D1D1B" stroke-width="2" stroke-linecap="round" stroke-linejoin="round"/>
</svg>
