<svg width="28" height="24" viewBox="0 0 28 24" fill="none" xmlns="http://www.w3.org/2000/svg">
<path d="M14.9827 1.28379C14.2716 0.750455 13.2939 0.750456 12.5827 1.28379L2.41949 8.90623C1.77713 9.38801 2.11786 10.4102 2.92081 10.4102C3.38227 10.4102 3.75635 10.7843 3.75635 11.2457V21.7787C3.75635 22.8833 4.65178 23.7787 5.75635 23.7787H8.44062C9.54519 23.7787 10.4406 22.8833 10.4406 21.7787V19.0945C10.4406 17.9899 11.336 17.0945 12.4406 17.0945H15.1249C16.2295 17.0945 17.1249 17.9899 17.1249 19.0945V21.7787C17.1249 22.8833 18.0203 23.7787 19.1249 23.7787H21.8091C22.9137 23.7787 23.8092 22.8833 23.8092 21.7787V11.1327C23.8092 10.6824 24.1814 10.3211 24.6316 10.3346C25.4108 10.358 25.7583 9.36542 25.1346 8.89769L14.9827 1.28379Z" fill="black"/>
</svg>
