<svg width="138" height="171" viewBox="0 0 138 171" fill="none" xmlns="http://www.w3.org/2000/svg">
<g clip-path="url(#clip0_123_360)">
<path d="M28.2215 165.321C26.3286 165.689 23.0135 166.082 19.1366 165.089C17.8308 164.757 11.1854 163.054 7.6273 157.158C3.00638 149.504 7.06044 140.52 8.16379 138.071C11.1246 131.505 15.9834 128.059 21.5002 124.254C25.8832 121.231 33.4953 116.807 44.4276 114.358C49.0334 117.326 53.219 118.112 55.5016 118.364C64.8295 119.382 71.9305 114.685 74.1777 113.199C76.2224 111.848 77.7509 110.488 78.7631 109.5C85.4187 111.556 90.7431 113.713 94.4631 115.35C102.511 118.893 107.385 121.085 112.512 125.736C115.619 128.552 119.061 131.671 121.08 137.053C121.951 139.376 124.896 147.191 120.691 154.079C117.436 159.411 111.783 161.099 110.158 161.587C105.871 162.867 102.171 162.404 100.233 162.021C99.16 163.185 97.4442 164.671 94.9895 165.573C87.7924 168.213 81.0002 163.29 80.3068 162.771C72.5985 162.872 64.8852 162.978 57.1769 163.079C56.4076 163.82 55.0765 164.908 53.1532 165.679C50.7947 166.626 48.6993 166.626 47.5605 166.546C46.437 167.438 43.6786 169.362 39.7106 169.67C33.2929 170.164 28.925 166.011 28.2316 165.326L28.2215 165.321Z" fill="white"/>
<path d="M36.6839 108.407C40.3736 111.727 48.3197 118.873 59.2166 118.545C68.833 118.258 75.5796 112.307 78.7581 109.505C100.299 90.5137 95.2122 52.1072 94.4328 46.7358H59.4545C57.1769 41.3139 54.8994 35.887 52.6218 30.4652C50.6175 35.887 48.6082 41.3139 46.604 46.7358H20.7663C19.9869 52.1022 15.1129 88.9919 36.689 108.407H36.6839Z" fill="white" stroke="#1D1D1B" stroke-width="2" stroke-miterlimit="10" stroke-linecap="round"/>
<path d="M67.2589 70.8469C67.6537 70.1666 69.7035 66.7704 73.9853 65.6619C79.5375 64.2258 83.8396 67.9495 84.1787 68.2519C84.2343 68.922 84.4267 72.2679 82.0074 74.9486C79.6792 77.5285 75.8479 78.4556 72.2442 77.3219" stroke="#1D1D1B" stroke-width="2" stroke-miterlimit="10"/>
<path d="M68.9443 69.1185C70.2805 71.7287 73.0439 73.2908 75.9238 73.0791C78.9959 72.8524 81.6227 70.6453 82.3971 67.6069C81.8657 67.2138 78.8644 65.0774 74.8052 65.7727C71.4496 66.3472 69.4859 68.4887 68.9494 69.1185H68.9443Z" fill="#1D1D1B" stroke="#1D1D1B" stroke-miterlimit="10"/>
<path d="M83.2727 67.5565C86.107 65.9894 88.9363 64.4223 91.7706 62.8602C87.5039 63.9033 83.2373 64.9463 78.9757 65.9844C80.408 66.5084 81.8404 67.0325 83.2727 67.5565Z" fill="#1D1D1B" stroke="#1D1D1B" stroke-width="2" stroke-miterlimit="10"/>
<path d="M47.6668 69.8845C47.2721 69.2042 45.2223 65.808 40.9404 64.6994C35.3883 63.2634 31.0862 66.9871 30.7471 67.2894C30.6914 67.9596 30.4991 71.3054 32.9184 73.9861C35.2465 76.566 39.0779 77.4932 42.6815 76.3594" stroke="#1D1D1B" stroke-width="2" stroke-miterlimit="10"/>
<path d="M45.9815 68.1612C44.6453 70.7713 41.8818 72.3334 39.002 72.1217C35.9298 71.895 33.303 69.6879 32.5287 66.6495C33.0601 66.2565 36.0614 64.12 40.1205 64.8153C43.4761 65.3898 45.4399 67.5313 45.9764 68.1612H45.9815Z" fill="#1D1D1B" stroke="#1D1D1B" stroke-miterlimit="10"/>
<path d="M31.653 66.5941C28.8187 65.027 25.9895 63.4599 23.1552 61.8978C27.4218 62.9409 31.6885 63.9839 35.95 65.0219C34.5177 65.546 33.0854 66.07 31.653 66.5941Z" fill="#1D1D1B" stroke="#1D1D1B" stroke-width="2" stroke-miterlimit="10" stroke-linecap="round"/>
<path d="M66.0392 59.7815C64.2222 59.2725 62.7089 57.1058 63.1087 55.569C63.7717 53.0545 69.3442 53.1251 70.2653 53.1402C70.8575 53.1503 74.5269 53.1956 74.8204 54.4352C75.033 55.3372 73.3577 56.4155 71.4041 57.6752C68.8026 59.3532 67.4968 60.1947 66.0341 59.7815H66.0392Z" fill="#1D1D1B"/>
<path d="M47.9958 58.809C49.8128 58.3 51.3261 56.1333 50.9263 54.5964C50.2632 52.082 44.6908 52.1526 43.7697 52.1677C43.1775 52.1778 39.5081 52.2231 39.2145 53.4627C39.002 54.3647 40.6772 55.443 42.6309 56.7027C45.2324 58.3807 46.5382 59.2222 48.0009 58.809H47.9958Z" fill="#1D1D1B"/>
<path d="M53.381 87.0469C53.2949 84.7794 54.869 82.8546 56.853 82.5119C59.166 82.1139 61.6207 83.9329 61.8434 86.6136" stroke="#1D1D1B" stroke-width="2" stroke-miterlimit="10" stroke-linecap="round"/>
<path d="M52.5104 101.08C53.4012 103.393 55.446 105.016 57.7185 105.182C60.6742 105.404 63.5996 103.141 64.2272 99.7853" stroke="#1D1D1B" stroke-width="2" stroke-miterlimit="10" stroke-linecap="round"/>
<path d="M79.4059 95.9003C83.5988 95.9003 86.9978 92.5163 86.9978 88.3419C86.9978 84.1676 83.5988 80.7836 79.4059 80.7836C75.2131 80.7836 71.8141 84.1676 71.8141 88.3419C71.8141 92.5163 75.2131 95.9003 79.4059 95.9003Z" stroke="#1D1D1B" stroke-width="2" stroke-miterlimit="10" stroke-linecap="round"/>
<path d="M38.3086 97.5732C42.5015 97.5732 45.9005 94.1892 45.9005 90.0149C45.9005 85.8405 42.5015 82.4565 38.3086 82.4565C34.1157 82.4565 30.7167 85.8405 30.7167 90.0149C30.7167 94.1892 34.1157 97.5732 38.3086 97.5732Z" stroke="#1D1D1B" stroke-width="2" stroke-miterlimit="10" stroke-linecap="round"/>
<path d="M95.4653 59.1919C101.038 59.0911 105.522 63.7924 105.223 69.1185C104.925 74.485 99.8787 78.6673 94.3214 77.8913C94.8427 74.5102 95.2426 70.7814 95.4197 66.7402C95.5361 64.0847 95.5412 61.5602 95.4703 59.1869L95.4653 59.1919Z" fill="white" stroke="#1D1D1B" stroke-width="1.21" stroke-miterlimit="10" stroke-linecap="round"/>
<path d="M19.5465 59.1919C13.9741 59.0911 9.48984 63.7924 9.78845 69.1185C10.0871 74.485 15.1331 78.6673 20.6904 77.8913C20.1691 74.5102 19.7692 70.7814 19.5921 66.7402C19.4757 64.0847 19.4706 61.5602 19.5415 59.1869L19.5465 59.1919Z" fill="white" stroke="#1D1D1B" stroke-width="1.21" stroke-miterlimit="10" stroke-linecap="round"/>
<path d="M49.6913 16.5377C41.8009 9.72507 36.1981 9.20606 32.7716 9.73514C11.1044 13.0911 3.9984 69.7837 2.83937 79.0553C1.0983 92.9626 1.15398 104.658 1.53863 112.745C4.4033 113.98 11.1095 116.419 19.7591 115.335C28.343 114.262 34.209 110.301 36.6839 108.407C33.6927 105.429 29.7146 100.813 26.3387 94.3836C22.9629 87.9439 21.4293 82.0433 20.6904 77.8963C19.8604 77.9971 16.7831 78.2742 13.9083 76.2889C11.1702 74.3993 9.49491 71.0736 9.81883 67.7177C10.1782 63.9537 12.9011 61.7265 13.9336 60.885C16.0594 59.1466 18.2863 58.552 19.4757 58.3202C19.9008 54.4604 20.331 50.6006 20.7562 46.7358H46.7609C48.7145 41.3139 50.6631 35.887 52.6167 30.4652C54.8943 35.887 57.1719 41.3139 59.4494 46.7358H94.4277C94.7719 50.8878 95.1161 55.0399 95.4602 59.1919C101.002 59.3179 105.345 63.9234 105.218 69.1185C105.082 74.5908 100.031 79.1056 94.2101 78.501C93.7495 81.5797 92.965 85.1926 91.6036 89.128C89.6246 94.8421 87.0687 99.3973 84.8316 102.743C89.5386 104.275 104.737 108.548 120.944 101.564C128.014 98.5155 133.03 94.2979 136.234 91.0378C130.874 84.4066 123.515 74.5757 116.06 61.8827C97.8137 30.8078 96.4877 12.31 82.549 7.30136C76.1566 5.00362 65.9987 5.13967 49.6863 16.5326L49.6913 16.5377Z" fill="#1D1D1B"/>
<path d="M49.6913 16.5377C49.5344 15.1671 49.332 11.7809 51.154 8.11767C53.2798 3.84972 56.8024 1.90471 57.9867 1.31516" stroke="#1D1D1B" stroke-width="5.21" stroke-miterlimit="10" stroke-linecap="round"/>
<path d="M52.804 117.875C52.6825 121.861 55.4612 125.03 58.4726 125.378C62.0256 125.786 66.0594 122.284 65.776 117.437" stroke="#1D1D1B" stroke-width="2" stroke-miterlimit="10"/>
<path d="M78.0394 110.135C80.0183 110.558 118.236 119.17 122.143 140.817C122.553 143.1 123.864 150.361 119.405 156.029C113.235 163.865 101.144 162.162 100.233 162.021C101.21 160.539 103.027 157.289 102.865 153.036C102.642 147.126 98.6842 141.694 92.7119 138.812C91.6693 138.308 84.0066 134.725 76.5463 138.812C75.5037 139.386 68.5951 143.321 68.2762 150.789C68.0839 155.304 70.402 158.63 71.2826 159.773C71.4395 158.267 71.8697 155.944 73.1603 153.409C74.7141 150.361 76.7791 148.431 78.0495 147.418" stroke="#1D1D1B" stroke-width="2" stroke-miterlimit="10"/>
<path d="M71.2776 159.773C71.9305 160.464 73.4893 161.915 75.9795 162.58C77.8319 163.074 79.4059 162.923 80.3018 162.766C80.3777 161.759 80.6054 160.368 81.2432 158.836C82.2757 156.352 83.8699 154.775 84.8164 153.969" stroke="#1D1D1B" stroke-width="2" stroke-miterlimit="10"/>
<path d="M80.3018 162.766C80.9142 163.28 81.8606 163.991 83.1209 164.636C84.2951 165.241 88.6579 167.397 93.8355 165.946C97.0595 165.044 99.1752 163.139 100.228 162.016" stroke="#1D1D1B" stroke-width="2" stroke-miterlimit="10"/>
<path d="M45.3387 114.892C43.7798 115.235 10.3401 122.934 6.31138 143.624C5.86093 145.937 4.39822 153.46 9.04951 159.33C15.3406 167.266 27.4725 165.442 28.2215 165.321C27.2447 163.84 25.4277 160.59 25.5897 156.337C25.8124 150.426 29.7703 144.994 35.7425 142.112C36.7852 141.608 44.4479 138.025 51.9082 142.112C52.9508 142.686 59.8594 146.622 60.1782 154.089C60.3706 158.604 58.0525 161.93 57.1719 163.074C57.015 161.567 56.5848 159.244 55.2941 156.71C53.7403 153.661 51.6753 151.731 50.405 150.718" stroke="#1D1D1B" stroke-width="2" stroke-miterlimit="10"/>
<path d="M57.1719 163.074C56.519 163.764 54.9601 165.215 52.47 165.88C50.6175 166.374 49.0435 166.223 48.1477 166.067C48.0717 165.059 47.844 163.668 47.2063 162.137C46.1738 159.652 44.5795 158.075 43.633 157.269" stroke="#1D1D1B" stroke-width="2" stroke-miterlimit="10"/>
<path d="M48.1477 166.067C47.5353 166.581 46.5888 167.291 45.3285 167.936C44.1543 168.541 39.7915 170.698 34.6139 169.246C31.3899 168.345 29.2743 166.44 28.2215 165.316" stroke="#1D1D1B" stroke-width="2" stroke-miterlimit="10"/>
<path d="M38.5667 141.034C35.6666 142.072 31.3848 143.135 26.2679 142.762C24.6837 142.646 23.2311 142.409 21.9304 142.112" stroke="#1D1D1B" stroke-width="2" stroke-miterlimit="10"/>
<path d="M90.318 137.91C93.2181 138.948 97.4999 140.011 102.617 139.638C104.201 139.522 105.654 139.285 106.954 138.988" stroke="#1D1D1B" stroke-width="2" stroke-miterlimit="10"/>
<path d="M80.5599 162.978C72.7656 163.008 64.9662 163.044 57.1719 163.074" stroke="#1D1D1B" stroke-width="2" stroke-miterlimit="10"/>
</g>
<defs>
<clipPath id="clip0_123_360">
<rect width="138" height="171" fill="white"/>
</clipPath>
</defs>
</svg>
