<?xml version="1.0" encoding="UTF-8"?>
<svg id="Calque_3" data-name="Calque 3" xmlns="http://www.w3.org/2000/svg" viewBox="0 0 1941.6 990.04">
  <defs>
    <style>
      .cls-1 {
        fill: #4eb272;
      }

      .cls-1, .cls-2, .cls-3 {
        stroke-width: 0px;
      }

      .cls-2 {
        fill: #1d1d1b;
      }

      .cls-3 {
        fill: #4db271;
      }
    </style>
  </defs>
  <g>
    <g>
      <path class="cls-2" d="M624.7,323.29v-65.86h12.54v23.91c3.63-5.1,8.33-7.55,14.31-7.55,12.45,0,19.8,10.29,19.8,24.89,0,16.27-8.72,25.87-20.88,25.87-5.88,0-10.39-2.25-13.43-7.16l-.1,5.88h-12.25ZM658.42,299.58c0-9.9-3.53-14.9-10.98-14.9-7.06,0-10.68,5.19-10.68,15.68,0,8.13,4.7,13.82,10.78,13.82s10.88-5.98,10.88-14.6Z"/>
      <path class="cls-2" d="M652.05,361.92h11.86v13.72c0,10.19-5.88,19.31-19.5,19.31s-19.7-9.02-19.7-19.41v-43.12h12.54v13.04h26.66v9.02h-26.66v19.8c0,6.08,2.16,9.6,7.35,9.6s7.45-3.43,7.45-9.41v-12.54Z"/>
      <path class="cls-2" d="M680.76,372.89c.39,7.25,4.51,11.96,10.78,11.96,4.12,0,7.74-2.06,8.62-5.39h13.13c-2.94,9.9-10.88,15.49-21.17,15.49-16.07,0-24.11-8.82-24.11-26.27,0-14.9,8.53-24.5,23.33-24.5s22.64,9.6,22.64,28.72h-33.22ZM700.85,364.86c-.2-7.15-4.9-10.58-9.9-10.58s-9.31,3.92-9.8,10.58h19.7Z"/>
      <path class="cls-2" d="M718.39,393.67v-48.22h11.96v5.78c4.21-6.47,9.12-7.06,14.31-7.06h1.67v13.03c-1.18-.2-2.35-.29-3.53-.29-7.84,0-11.66,3.92-11.66,11.66v25.09h-12.74Z"/>
      <path class="cls-2" d="M749.85,393.67v-48.22h11.96v5.78c4.21-6.47,9.12-7.06,14.31-7.06h1.67v13.03c-1.18-.2-2.35-.29-3.53-.29-7.84,0-11.66,3.92-11.66,11.66v25.09h-12.74Z"/>
      <path class="cls-2" d="M809.14,393.67c-.39-1.18-.69-2.84-.78-4.31-3.04,3.33-8.14,5.59-14.6,5.59-10.98,0-16.07-5.39-16.07-13.23,0-13.92,9.31-15.49,22.15-17.25,6.37-.88,8.14-2.16,8.14-5.49,0-3.14-3.14-5-8.14-5-5.78,0-8.13,2.84-8.72,7.16h-11.86c.2-10,5.68-16.96,21.17-16.96s20.58,6.86,20.58,19.01v30.48h-11.86ZM808.26,370.05c-1.27,1.27-3.53,1.96-8.23,2.84-7.25,1.37-9.61,3.43-9.61,7.55,0,3.63,2.16,5.39,6.17,5.39,6.57,0,11.47-4.8,11.56-10.49l.1-5.29Z"/>
    </g>
    <path class="cls-2" d="M558,278.69c-16.49,18.2-16.54,40.05-16.55,47.1-.02,7-.07,29.69,17.26,48.34,20.54,22.11,49.2,20.97,53.45,20.73v-36.58c-27.3,0-40.68-10.92-40.68-32.49,0-21.57,13.38-32.49,40.68-32.49v-35.76c-4.21-.25-33.65-1.48-54.16,21.16Z"/>
    <g>
      <path class="cls-1" d="M612.16,327.56h0s-5.09,0-5.09,0c-9.7,0-17.57,7.86-17.57,17.57h0s5.09,0,5.09,0c9.7,0,17.57-7.86,17.57-17.57Z"/>
      <path class="cls-1" d="M612.16,324.82h0s-5.09,0-5.09,0c-9.7,0-17.57-7.86-17.57-17.57h0s5.09,0,5.09,0c9.7,0,17.57,7.86,17.57,17.57Z"/>
    </g>
    <g>
      <path class="cls-3" d="M694.93,298.48c0-2.94,1.83-4.87,4.76-4.87s4.7,1.92,4.7,4.87-1.83,4.87-4.7,4.87-4.76-1.99-4.76-4.87ZM701.93,298.48c0-1.88-.75-2.8-2.24-2.8s-2.24.92-2.24,2.8.75,2.82,2.24,2.82,2.24-.94,2.24-2.82Z"/>
      <rect class="cls-3" x="696.41" y="295.51" width="6.03" height="6.03"/>
    </g>
  </g>
  <path class="cls-2" d="M674.93,298.63c0-15.29,9.51-25.38,24.8-25.38s24.5,10,24.5,25.38-9.51,25.38-24.5,25.38-24.8-10.39-24.8-25.38ZM711.39,298.63c0-9.8-3.92-14.6-11.66-14.6s-11.66,4.8-11.66,14.6,3.92,14.7,11.66,14.7,11.66-4.9,11.66-14.7Z"/>
</svg>