<?xml version="1.0" encoding="UTF-8"?>
<svg id="Calque_2" data-name="Calque 2" xmlns="http://www.w3.org/2000/svg" viewBox="0 0 1941.6 990.04">
  <defs>
    <style>
      .cls-1 {
        fill: #1d1d1b;
      }

      .cls-1, .cls-2, .cls-3 {
        stroke-width: 0px;
      }

      .cls-2 {
        fill: #4cb270;
      }

      .cls-3 {
        fill: #4db271;
      }
    </style>
  </defs>
  <g id="Logo_2" data-name="Logo 2">
    <path class="cls-1" d="M535.85,338.94v-64.39h12.27v23.38c3.55-4.98,8.15-7.38,13.99-7.38,12.17,0,19.36,10.06,19.36,24.34,0,15.91-8.53,25.3-20.41,25.3-5.75,0-10.16-2.2-13.13-7l-.1,5.75h-11.98ZM568.81,315.75c0-9.68-3.45-14.57-10.73-14.57-6.9,0-10.45,5.08-10.45,15.33,0,7.95,4.6,13.51,10.54,13.51s10.64-5.84,10.64-14.28Z"/>
    <path class="cls-1" d="M664.44,307.89h11.6v13.42c0,9.97-5.75,18.88-19.07,18.88s-19.26-8.82-19.26-18.97v-42.16h12.27v12.74h26.06v8.82h-26.06v19.36c0,5.94,2.11,9.39,7.19,9.39s7.28-3.35,7.28-9.2v-12.27Z"/>
    <path class="cls-1" d="M692.51,318.62c.38,7.09,4.41,11.69,10.54,11.69,4.02,0,7.57-2.01,8.43-5.27h12.84c-2.88,9.68-10.64,15.14-20.7,15.14-15.72,0-23.57-8.62-23.57-25.68,0-14.57,8.34-23.96,22.81-23.96s22.13,9.39,22.13,28.08h-32.48ZM712.15,310.76c-.19-7-4.79-10.35-9.68-10.35s-9.1,3.83-9.58,10.35h19.26Z"/>
    <path class="cls-1" d="M729.3,340.18v-47.15h11.69v5.65c4.12-6.32,8.91-6.9,13.99-6.9h1.63v12.74c-1.15-.19-2.3-.29-3.45-.29-7.67,0-11.4,3.83-11.4,11.4v24.53h-12.46Z"/>
    <path class="cls-1" d="M760.06,340.18v-47.15h11.69v5.65c4.12-6.32,8.91-6.9,13.99-6.9h1.63v12.74c-1.15-.19-2.3-.29-3.45-.29-7.67,0-11.4,3.83-11.4,11.4v24.53h-12.46Z"/>
    <path class="cls-1" d="M818.03,338.94c-.38-1.15-.67-2.78-.77-4.22-2.97,3.26-7.95,5.46-14.28,5.46-10.73,0-15.71-5.27-15.71-12.94,0-13.61,9.1-15.14,21.66-16.87,6.23-.86,7.95-2.11,7.95-5.37,0-3.07-3.07-4.89-7.95-4.89-5.65,0-7.95,2.78-8.53,7h-11.59c.19-9.77,5.56-16.58,20.7-16.58s20.12,6.71,20.12,18.59v29.8h-11.59ZM817.17,315.84c-1.25,1.25-3.45,1.92-8.05,2.78-7.09,1.34-9.39,3.35-9.39,7.38,0,3.55,2.11,5.27,6.04,5.27,6.42,0,11.21-4.7,11.31-10.25l.1-5.17Z"/>
    <g>
      <path class="cls-2" d="M589.22,279.05h0c10.05,0,18.2,8.16,18.2,18.2v5.28h0c-10.05,0-18.2-8.16-18.2-18.2v-5.28h0Z"/>
      <path class="cls-2" d="M628.46,279.05h0v5.28c0,10.05-8.16,18.2-18.2,18.2h0v-5.28c0-10.05,8.16-18.2,18.2-18.2Z" transform="translate(1238.73 581.57) rotate(-180)"/>
    </g>
    <g>
      <path class="cls-1" d="M584.35,336.22c0-15.29,9.51-25.38,24.8-25.38s24.5,10,24.5,25.38-9.51,25.38-24.5,25.38-24.8-10.39-24.8-25.38ZM620.81,336.22c0-9.8-3.92-14.6-11.66-14.6s-11.66,4.8-11.66,14.6,3.92,14.7,11.66,14.7,11.66-4.9,11.66-14.7Z"/>
      <g>
        <path class="cls-3" d="M604.36,336.08c0-2.94,1.83-4.87,4.76-4.87s4.7,1.92,4.7,4.87-1.83,4.87-4.7,4.87-4.76-1.99-4.76-4.87ZM611.36,336.08c0-1.88-.75-2.8-2.24-2.8s-2.24.92-2.24,2.8.75,2.82,2.24,2.82,2.24-.94,2.24-2.82Z"/>
        <rect class="cls-3" x="605.83" y="333.11" width="6.03" height="6.03"/>
      </g>
    </g>
  </g>
</svg>