<svg width="410" height="171" viewBox="0 0 410 171" fill="none" xmlns="http://www.w3.org/2000/svg">
<path d="M0 80C0 68.9543 8.9543 60 20 60H162.48C165.776 60 169.02 60.8143 171.925 62.3704L191.075 72.6295C193.98 74.1856 197.224 74.9999 200.52 74.9999H267H328.232C336.273 74.9999 343.532 79.8158 346.658 87.2244L366.28 133.724C371.843 146.909 362.163 161.5 347.853 161.5H300.211C296.626 161.5 293.107 160.536 290.022 158.71L281.713 153.79C278.628 151.964 275.108 151 271.523 151H157.907C152.238 151 146.834 153.406 143.041 157.621L136.959 164.379C133.166 168.593 127.762 171 122.093 171H75.7032C69.294 171 63.273 167.928 59.511 162.739L56.989 159.261C53.227 154.072 47.206 151 40.7968 151H20C8.9543 151 0 142.046 0 131V80Z" fill="white"/>
<path d="M18 138.531V69H31.2496V94.2466C35.0831 88.869 40.0503 86.2774 46.3566 86.2774C59.4982 86.2774 67.2622 97.1406 67.2622 112.561C67.2622 129.741 58.0512 139.881 45.2228 139.881C39.0137 139.881 34.2516 137.505 31.0445 132.322L30.9365 138.531H18ZM53.5915 113.489C53.5915 103.037 49.8661 97.7561 42.0049 97.7561C34.554 97.7561 30.7205 103.242 30.7205 114.31C30.7205 122.895 35.6878 128.899 42.102 128.899C48.5162 128.899 53.5915 122.592 53.5915 113.479V113.489Z" fill="#1D1D1B"/>
<path d="M156.857 105.002H169.383V119.493C169.383 130.259 163.174 139.881 148.79 139.881C134.407 139.881 127.993 130.356 127.993 119.396V73.8701H141.242V87.6273H169.383V97.1514H141.242V118.057C141.242 124.471 143.521 128.197 149.006 128.197C154.492 128.197 156.868 124.579 156.868 118.262V105.013L156.857 105.002Z" fill="#1D1D1B"/>
<path d="M187.168 116.588C187.578 124.245 191.93 129.212 198.549 129.212C202.89 129.212 206.724 127.041 207.652 123.521H221.517C218.407 133.974 210.028 139.87 199.165 139.87C182.19 139.87 173.713 130.562 173.713 112.14C173.713 96.4063 182.719 86.2666 198.344 86.2666C213.969 86.2666 222.241 96.4063 222.241 116.588H187.168ZM208.376 108.101C208.171 100.542 203.203 96.9246 197.923 96.9246C192.642 96.9246 188.096 101.06 187.578 108.101H208.376Z" fill="#1D1D1B"/>
<path d="M226.895 139.87V88.9553H239.518V95.0563C243.967 88.2318 249.139 87.6055 254.625 87.6055H256.385V101.363C255.143 101.157 253.901 101.049 252.659 101.049C244.377 101.049 240.349 105.185 240.349 113.36V139.848H226.895V139.87Z" fill="#1D1D1B"/>
<path d="M260.111 139.87V88.9553H272.734V95.0563C277.183 88.2318 282.356 87.6055 287.841 87.6055H289.601V101.363C288.359 101.157 287.118 101.049 285.876 101.049C277.593 101.049 273.566 105.185 273.566 113.36V139.848H260.111V139.87Z" fill="#1D1D1B"/>
<path d="M322.709 138.531C322.299 137.289 321.986 135.529 321.878 133.974C318.67 137.494 313.293 139.87 306.457 139.87C294.871 139.87 289.493 134.179 289.493 125.897C289.493 111.2 299.32 109.548 312.882 107.68C319.61 106.751 321.467 105.401 321.467 101.881C321.467 98.566 318.152 96.6007 312.882 96.6007C306.781 96.6007 304.298 99.6027 303.671 104.16H291.156C291.361 93.6095 297.16 86.2559 313.509 86.2559C329.858 86.2559 335.235 93.5016 335.235 106.33V138.509H322.72L322.709 138.531ZM321.78 113.587C320.431 114.936 318.055 115.66 313.088 116.589C305.432 118.036 302.948 120.206 302.948 124.558C302.948 128.391 305.226 130.248 309.47 130.248C316.403 130.248 321.575 125.173 321.683 119.18L321.791 113.597L321.78 113.587Z" fill="#1D1D1B"/>
<path d="M75.6313 73.8594C86.4837 73.8594 95.2844 82.6709 95.2844 93.5125V99.214C84.432 99.214 75.6313 90.4025 75.6313 79.5609V73.8594Z" fill="#4CB270"/>
<path d="M98.3621 99.2031V93.5016C98.3621 82.6492 107.174 73.8485 118.015 73.8485V79.55C118.015 90.4024 109.204 99.2031 98.3621 99.2031Z" fill="#4CB270"/>
<path d="M70.3721 135.594C70.3721 119.083 80.6414 108.188 97.1521 108.188C113.663 108.188 123.608 118.986 123.608 135.594C123.608 152.202 113.339 163 97.1521 163C80.9653 163 70.3721 151.781 70.3721 135.594ZM109.743 135.594C109.743 125.011 105.51 119.828 97.1521 119.828C88.7942 119.828 84.5612 125.011 84.5612 135.594C84.5612 146.176 88.7942 151.467 97.1521 151.467C105.51 151.467 109.743 146.176 109.743 135.594Z" fill="#1D1D1B"/>
<path d="M91.9795 135.443C91.9795 132.268 93.9556 130.184 97.1195 130.184C100.283 130.184 102.195 132.257 102.195 135.443C102.195 138.628 100.219 140.702 97.1195 140.702C94.0204 140.702 91.9795 138.553 91.9795 135.443ZM99.5384 135.443C99.5384 133.413 98.7285 132.419 97.1195 132.419C95.5106 132.419 94.7007 133.413 94.7007 135.443C94.7007 137.473 95.5106 138.488 97.1195 138.488C98.7285 138.488 99.5384 137.473 99.5384 135.443Z" fill="#4DB271"/>
<path d="M100.078 132.236H93.5669V138.747H100.078V132.236Z" fill="#4DB271"/>
<path d="M334.926 0.0185547C354.147 11.1156 360.724 35.7206 349.638 54.9221L343.808 65.02C324.587 53.923 318.01 29.318 329.096 10.1165L334.926 0.0185547Z" fill="white"/>
<path d="M349.27 68.149L355.1 58.0511C366.197 38.8305 390.802 32.2538 410.003 43.3397L404.173 53.4377C393.076 72.6583 368.471 79.235 349.27 68.149Z" fill="white"/>
</svg>
