<?xml version="1.0" encoding="UTF-8"?>
<svg id="Calque_4" data-name="Calque 4" xmlns="http://www.w3.org/2000/svg" viewBox="0 0 1941.6 990.04">
  <defs>
    <style>
      .cls-1 {
        fill: #1d1d1b;
      }

      .cls-1, .cls-2, .cls-3 {
        stroke-width: 0px;
      }

      .cls-2 {
        fill: #4cb270;
      }

      .cls-3 {
        fill: #4db271;
      }
    </style>
  </defs>
  <g>
    <path class="cls-2" d="M670.19,278.85h0c10.05,0,18.2,8.16,18.2,18.2v5.28h0c-10.05,0-18.2-8.16-18.2-18.2v-5.28h0Z"/>
    <path class="cls-2" d="M709.43,278.85h0v5.28c0,10.05-8.16,18.2-18.2,18.2h0v-5.28c0-10.05,8.16-18.2,18.2-18.2Z" transform="translate(1400.66 581.17) rotate(-180)"/>
  </g>
  <g>
    <path class="cls-1" d="M665.32,336.02c0-15.29,9.51-25.38,24.8-25.38s24.5,10,24.5,25.38-9.51,25.38-24.5,25.38-24.8-10.39-24.8-25.38ZM701.78,336.02c0-9.8-3.92-14.6-11.66-14.6s-11.66,4.8-11.66,14.6,3.92,14.7,11.66,14.7,11.66-4.9,11.66-14.7Z"/>
    <g>
      <path class="cls-3" d="M685.33,335.88c0-2.94,1.83-4.87,4.76-4.87s4.7,1.92,4.7,4.87-1.83,4.87-4.7,4.87-4.76-1.99-4.76-4.87ZM692.33,335.88c0-1.88-.75-2.8-2.24-2.8s-2.24.92-2.24,2.8.75,2.82,2.24,2.82,2.24-.94,2.24-2.82Z"/>
      <rect class="cls-3" x="686.8" y="332.91" width="6.03" height="6.03"/>
    </g>
  </g>
</svg>