<svg width="147" height="73" viewBox="0 0 147 73" fill="none" xmlns="http://www.w3.org/2000/svg">
<path d="M43.7756 35.1298V0.499023H50.3695V13.0715C52.2782 10.3898 54.7496 9.10151 57.894 9.10151C64.4405 9.10151 68.3053 14.5122 68.3053 22.1892C68.3053 30.7444 63.7201 35.7923 57.3261 35.7923C54.2343 35.7923 51.8628 34.6092 50.2643 32.0274L50.2117 35.1193H43.7704L43.7756 35.1298ZM61.5064 22.6625C61.5064 17.4568 59.6503 14.8277 55.7329 14.8277C52.0206 14.8277 50.1171 17.5567 50.1171 23.0726C50.1171 27.3476 52.5884 30.3395 55.7854 30.3395C58.9825 30.3395 61.5064 27.1951 61.5064 22.6625Z" fill="#1D1D1B"/>
<path d="M58.1569 55.4425H64.3931V62.6568C64.3931 68.0149 61.3013 72.8104 54.1396 72.8104C46.9779 72.8104 43.7809 68.0675 43.7809 62.6042V39.9307H50.3747V46.7874H64.3931V51.5303H50.3747V61.9416C50.3747 65.1386 51.5105 66.9896 54.2395 66.9896C56.9685 66.9896 58.1569 65.186 58.1569 62.0415V55.4477V55.4425Z" fill="#1D1D1B"/>
<path d="M73.2533 61.2107C73.4584 65.0229 75.6248 67.4995 78.9217 67.4995C81.0881 67.4995 82.9916 66.4163 83.4543 64.6653H90.3584C88.8124 69.871 84.6374 72.8103 79.2267 72.8103C70.7767 72.8103 66.5491 68.1726 66.5491 58.9969C66.5491 51.1622 71.0344 46.1143 78.8165 46.1143C86.5987 46.1143 90.7212 51.1622 90.7212 61.2159H73.2533V61.2107ZM83.8171 56.9883C83.7119 53.2286 81.2406 51.4251 78.6115 51.4251C75.9824 51.4251 73.7161 53.4863 73.4584 56.9883H83.8171Z" fill="#1D1D1B"/>
<path d="M93.0399 72.1374V46.7822H99.3287V49.8214C101.542 46.4194 104.124 46.1091 106.853 46.1091H107.731V52.9606C107.111 52.8554 106.496 52.8081 105.875 52.8081C101.753 52.8081 99.7442 54.8693 99.7442 58.9392V72.1321H93.0452L93.0399 72.1374Z" fill="#1D1D1B"/>
<path d="M109.582 72.1374V46.7822H115.871V49.8214C118.085 46.4194 120.667 46.1091 123.396 46.1091H124.274V52.9606C123.653 52.8554 123.038 52.8081 122.418 52.8081C118.295 52.8081 116.287 54.8693 116.287 58.9392V72.1321H109.588L109.582 72.1374Z" fill="#1D1D1B"/>
<path d="M140.758 72.1373C140.553 71.5168 140.396 70.6439 140.348 69.871C138.75 71.622 136.068 72.8103 132.671 72.8103C126.898 72.8103 124.221 69.9761 124.221 65.8537C124.221 58.5342 129.117 57.7087 135.868 56.7832C139.218 56.3205 140.149 55.6475 140.149 53.8965C140.149 52.2454 138.497 51.2673 135.868 51.2673C132.829 51.2673 131.593 52.7607 131.283 55.0322H125.047C125.152 49.774 128.034 46.1143 136.179 46.1143C144.324 46.1143 147 49.7214 147 56.1102V72.1373H140.764H140.758ZM140.296 59.7173C139.628 60.3851 138.44 60.7479 135.968 61.2107C132.156 61.931 130.915 63.0142 130.915 65.1806C130.915 67.0894 132.051 68.0148 134.159 68.0148C137.614 68.0148 140.191 65.4909 140.238 62.4989L140.29 59.7173H140.296Z" fill="#1D1D1B"/>
<path d="M8.70315 11.6784C0.0323134 21.2484 0.00602832 32.7376 0.000770083 36.4447C-0.00974639 40.1254 -0.0360322 52.0564 9.07649 61.863C19.8769 73.4889 34.947 72.8895 37.1817 72.7633V53.5287C22.8268 53.5287 15.7912 47.7867 15.7912 36.4447C15.7912 25.1026 22.8268 19.3606 37.1817 19.3606V0.557195C34.968 0.42574 19.4878 -0.221021 8.70315 11.6836V11.6784Z" fill="#1D1D1B"/>
<path d="M37.1819 37.375H34.5055C29.405 37.375 25.2667 41.508 25.2667 46.6137H27.9432C33.0437 46.6137 37.1819 42.4807 37.1819 37.375Z" fill="#4EB272"/>
<path d="M37.1819 35.9343H34.5055C29.405 35.9343 25.2667 31.8013 25.2667 26.6956H27.9432C33.0437 26.6956 37.1819 30.8285 37.1819 35.9343Z" fill="#4EB272"/>
<path d="M80.7042 22.0842C80.7042 20.5383 81.6665 19.5234 83.2071 19.5234C84.7478 19.5234 85.6785 20.533 85.6785 22.0842C85.6785 23.6354 84.7163 24.645 83.2071 24.645C81.698 24.645 80.7042 23.5986 80.7042 22.0842ZM84.385 22.0842C84.385 21.0957 83.9906 20.6119 83.2071 20.6119C82.4237 20.6119 82.0293 21.0957 82.0293 22.0842C82.0293 23.0728 82.4237 23.567 83.2071 23.567C83.9906 23.567 84.385 23.0728 84.385 22.0842Z" fill="#4DB271"/>
<path d="M84.6532 20.5225H81.4824V23.6932H84.6532V20.5225Z" fill="#4DB271"/>
<path d="M70.1877 22.1633C70.1877 14.1234 75.1883 8.81787 83.2282 8.81787C91.268 8.81787 96.1108 14.0761 96.1108 22.1633C96.1108 30.2505 91.1103 35.5087 83.2282 35.5087C75.3461 35.5087 70.1877 30.0454 70.1877 22.1633ZM89.3593 22.1633C89.3593 17.0102 87.298 14.4863 83.2282 14.4863C79.1583 14.4863 77.0971 17.0102 77.0971 22.1633C77.0971 27.3164 79.1583 29.8929 83.2282 29.8929C87.298 29.8929 89.3593 27.3164 89.3593 22.1633Z" fill="#1D1D1B"/>
</svg>
