<svg width="28" height="21" viewBox="0 0 28 21" fill="none" xmlns="http://www.w3.org/2000/svg">
<path d="M0 1.80691C0 0.808981 0.808981 0 1.80691 0H26.2056C27.1966 0 28 0.803385 28 1.79441V1.79441C28 2.58735 27.4796 3.28628 26.7199 3.51354L14.7902 7.0824C14.0219 7.31224 13.2023 7.30584 12.4377 7.06403L1.26207 3.52972C0.51071 3.2921 0 2.59495 0 1.80691V1.80691Z" fill="black"/>
<path d="M0 16.7402C0 18.9494 1.79086 20.7402 4 20.7402H24C26.2091 20.7402 28 18.9494 28 16.7402V6.39559C28 5.73652 27.3735 5.25768 26.7376 5.43064L14.6908 8.70692C13.9845 8.89898 13.2392 8.89361 12.5358 8.69139L1.27631 5.45425C0.637136 5.27049 0 5.75025 0 6.41532V16.7402Z" fill="black"/>
</svg>
