<svg width="27" height="24" viewBox="0 0 27 24" fill="none" xmlns="http://www.w3.org/2000/svg">
<path d="M1.82237 0.458984C0.899468 0.458984 0.151306 1.20715 0.151306 2.13005C0.151306 3.05296 0.899468 3.80112 1.82237 3.80112H25.2173C26.1402 3.80112 26.8884 3.05296 26.8884 2.13005C26.8884 1.20715 26.1402 0.458984 25.2173 0.458984H1.82237ZM1.82237 10.3851C0.899468 10.3851 0.151306 11.1333 0.151306 12.0562C0.151306 12.9791 0.899468 13.7273 1.82237 13.7273H25.2173C26.1402 13.7273 26.8884 12.9791 26.8884 12.0562C26.8884 11.1333 26.1402 10.3851 25.2173 10.3851H1.82237ZM1.82237 20.4115C0.899468 20.4115 0.151306 21.1597 0.151306 22.0826C0.151306 23.0055 0.899468 23.7537 1.82237 23.7537H25.2173C26.1402 23.7537 26.8884 23.0055 26.8884 22.0826C26.8884 21.1597 26.1402 20.4115 25.2173 20.4115H1.82237Z" fill="black"/>
</svg>
