<svg width="28" height="20" viewBox="0 0 28 20" fill="none" xmlns="http://www.w3.org/2000/svg">
<mask id="path-1-inside-1_483_1373" fill="white">
<path d="M1.43472 0C0.642347 0 0 0.642346 0 1.43472V1.43472C0 2.22709 0.642346 2.86944 1.43472 2.86944H26.5653C27.3577 2.86944 28 2.22709 28 1.43472V1.43472C28 0.642346 27.3577 0 26.5653 0H1.43472ZM1.43472 8.52224C0.642347 8.52224 0 9.16458 0 9.95696V9.95696C0 10.7493 0.642346 11.3917 1.43472 11.3917H26.5653C27.3577 11.3917 28 10.7493 28 9.95696V9.95696C28 9.16458 27.3577 8.52224 26.5653 8.52224H1.43472ZM1.43472 17.1306C0.642347 17.1306 0 17.7729 0 18.5653V18.5653C0 19.3577 0.642346 20 1.43472 20H26.5653C27.3577 20 28 19.3577 28 18.5653V18.5653C28 17.7729 27.3577 17.1306 26.5653 17.1306H1.43472Z"/>
</mask>
<path d="M1.43472 0C0.642347 0 0 0.642346 0 1.43472V1.43472C0 2.22709 0.642346 2.86944 1.43472 2.86944H26.5653C27.3577 2.86944 28 2.22709 28 1.43472V1.43472C28 0.642346 27.3577 0 26.5653 0H1.43472ZM1.43472 8.52224C0.642347 8.52224 0 9.16458 0 9.95696V9.95696C0 10.7493 0.642346 11.3917 1.43472 11.3917H26.5653C27.3577 11.3917 28 10.7493 28 9.95696V9.95696C28 9.16458 27.3577 8.52224 26.5653 8.52224H1.43472ZM1.43472 17.1306C0.642347 17.1306 0 17.7729 0 18.5653V18.5653C0 19.3577 0.642346 20 1.43472 20H26.5653C27.3577 20 28 19.3577 28 18.5653V18.5653C28 17.7729 27.3577 17.1306 26.5653 17.1306H1.43472Z" fill="black"/>
<path d="M1.43472 6.86944H26.5653V-1.13056H1.43472V6.86944ZM26.5653 -4H1.43472V4H26.5653V-4ZM1.43472 15.3917H26.5653V7.39168H1.43472V15.3917ZM26.5653 4.52224H1.43472V12.5222H26.5653V4.52224ZM1.43472 24H26.5653V16H1.43472V24ZM26.5653 13.1306H1.43472V21.1306H26.5653V13.1306ZM32 18.5653C32 15.5638 29.5668 13.1306 26.5653 13.1306V21.1306C25.1485 21.1306 24 19.982 24 18.5653H32ZM26.5653 24C29.5668 24 32 21.5668 32 18.5653H24C24 17.1485 25.1485 16 26.5653 16V24ZM-4 18.5653C-4 21.5668 -1.56679 24 1.43472 24V16C2.85149 16 4 17.1485 4 18.5653H-4ZM4 18.5653C4 19.982 2.85148 21.1306 1.43472 21.1306V13.1306C-1.56679 13.1306 -4 15.5638 -4 18.5653H4ZM32 9.95696C32 6.95545 29.5668 4.52224 26.5653 4.52224V12.5222C25.1485 12.5222 24 11.3737 24 9.95696H32ZM26.5653 15.3917C29.5668 15.3917 32 12.9585 32 9.95696H24C24 8.54019 25.1485 7.39168 26.5653 7.39168V15.3917ZM-4 9.95696C-4 12.9585 -1.56679 15.3917 1.43472 15.3917V7.39168C2.85149 7.39168 4 8.54019 4 9.95696H-4ZM4 9.95696C4 11.3737 2.85148 12.5222 1.43472 12.5222V4.52224C-1.56679 4.52224 -4 6.95544 -4 9.95696H4ZM32 1.43472C32 -1.56679 29.5668 -4 26.5653 -4V4C25.1485 4 24 2.85148 24 1.43472H32ZM26.5653 6.86944C29.5668 6.86944 32 4.43624 32 1.43472H24C24 0.0179536 25.1485 -1.13056 26.5653 -1.13056V6.86944ZM-4 1.43472C-4 4.43623 -1.56679 6.86944 1.43472 6.86944V-1.13056C2.85149 -1.13056 4 0.0179559 4 1.43472H-4ZM4 1.43472C4 2.85149 2.85148 4 1.43472 4V-4C-1.56679 -4 -4 -1.56679 -4 1.43472H4Z" fill="black" mask="url(#path-1-inside-1_483_1373)"/>
</svg>
