<svg width="139" height="193" viewBox="0 0 139 193" fill="none" xmlns="http://www.w3.org/2000/svg">
<path d="M30.5912 186.968C28.4425 187.41 24.6795 187.882 20.2788 186.69C18.7965 186.291 11.2532 184.245 7.21443 177.165C1.96916 167.972 6.57098 157.182 7.82341 154.241C11.2647 146.168 16.9638 141.957 22.9617 137.648C28.454 133.702 38.2322 127.856 52.434 125.175C56.6337 127.197 60.3163 127.959 62.8154 128.28C65.9809 128.685 74.6043 129.666 82.7509 124.371C85.1293 122.827 86.8471 121.145 87.9559 119.929C95.5107 122.398 101.555 124.988 105.777 126.955C114.912 131.209 120.444 133.841 126.264 139.427C129.792 142.81 133.698 146.556 135.991 153.019C136.979 155.809 140.322 165.195 135.548 173.467C131.854 179.87 125.437 181.897 123.593 182.484C118.727 184.021 114.527 183.464 112.327 183.005C111.109 184.402 109.161 186.188 106.375 187.271C98.2052 190.442 90.4952 184.53 89.7082 183.906C80.9584 184.027 72.2029 184.154 63.4531 184.275C62.5799 185.165 61.0689 186.472 58.8858 187.398C56.2086 188.536 53.8301 188.536 52.5375 188.439C51.262 189.51 48.131 191.822 43.6268 192.191C36.342 192.784 31.384 187.797 30.597 186.974L30.5912 186.968Z" fill="white"/>
<path d="M61.2871 129.387C61.1492 134.174 64.3033 137.981 67.7216 138.398C71.7546 138.888 76.3335 134.682 76.0117 128.861" stroke="#1D1D1B" stroke-width="2" stroke-linecap="round" stroke-linejoin="round"/>
<path d="M87.1288 120.395C89.3751 120.903 132.756 131.245 137.192 157.243C137.657 159.984 139.145 168.704 134.083 175.513C127.08 184.923 113.355 182.877 112.321 182.708C113.43 180.929 115.492 177.025 115.308 171.918C115.056 164.819 110.563 158.296 103.784 154.834C102.6 154.229 93.9022 149.926 85.434 154.834C84.2505 155.524 76.4084 160.25 76.0465 169.219C75.8282 174.641 78.4594 178.635 79.4591 180.009C79.6372 178.199 80.1255 175.41 81.5905 172.366C83.3543 168.704 85.6983 166.387 87.1403 165.17" stroke="#1D1D1B" stroke-width="2" stroke-linecap="round" stroke-linejoin="round"/>
<path d="M79.4531 180.009C80.1942 180.838 81.9637 182.581 84.7903 183.38C86.893 183.973 88.6798 183.791 89.6966 183.604C89.7828 182.393 90.0413 180.723 90.7652 178.883C91.9372 175.9 93.7469 174.006 94.8212 173.038" stroke="#1D1D1B" stroke-width="2" stroke-linecap="round" stroke-linejoin="round"/>
<path d="M89.6968 183.603C90.3919 184.221 91.4663 185.074 92.8968 185.848C94.2297 186.575 99.1819 189.165 105.059 187.422C108.719 186.339 111.12 184.051 112.315 182.702" stroke="#1D1D1B" stroke-width="2" stroke-linecap="round" stroke-linejoin="round"/>
<path d="M52.4341 125.175C50.5152 125.611 10.3513 135.209 5.70927 160.613C5.19796 163.403 3.5491 172.444 8.81735 179.476C15.9585 189.008 29.7295 186.817 30.5798 186.672C29.471 184.892 27.4085 180.989 27.5923 175.882C27.8451 168.783 32.3377 162.259 39.1169 158.798C40.3004 158.193 48.9985 153.89 57.4668 158.798C58.6503 159.488 66.4923 164.214 66.8543 173.183C67.0726 178.605 64.4413 182.599 63.4417 183.973C63.2636 182.163 62.7752 179.373 61.3102 176.329C59.5465 172.668 57.2025 170.35 55.7605 169.134" stroke="#1D1D1B" stroke-width="2" stroke-linecap="round" stroke-linejoin="round"/>
<path d="M63.4418 183.972C62.7007 184.802 60.9313 186.544 58.1047 187.343C56.002 187.936 54.2152 187.755 53.1983 187.567C53.1122 186.357 52.8536 184.686 52.1298 182.847C50.9578 179.863 49.1481 177.969 48.0737 177.001" stroke="#1D1D1B" stroke-width="2" stroke-linecap="round" stroke-linejoin="round"/>
<path d="M53.198 187.574C52.5029 188.191 51.4285 189.044 49.998 189.819C48.6651 190.545 43.7129 193.135 37.8356 191.392C34.176 190.309 31.7746 188.021 30.5796 186.672" stroke="#1D1D1B" stroke-width="2" stroke-linecap="round" stroke-linejoin="round"/>
<path d="M42.3226 157.503C39.0306 158.75 34.1703 160.026 28.362 159.579C26.5638 159.439 24.915 159.155 23.4385 158.798" stroke="#1D1D1B" stroke-width="2" stroke-linecap="round" stroke-linejoin="round"/>
<path d="M101.066 153.751C104.358 154.998 109.219 156.275 115.027 155.827C116.825 155.688 118.474 155.403 119.951 155.046" stroke="#1D1D1B" stroke-width="2" stroke-linecap="round" stroke-linejoin="round"/>
<path d="M89.99 183.858C81.1425 183.894 72.2893 183.937 63.4419 183.973" stroke="#1D1D1B" stroke-width="2" stroke-linecap="round" stroke-linejoin="round"/>
<path d="M108.316 63.7698C117.646 63.5943 125.149 71.9153 124.65 81.3558C124.144 90.8628 115.699 98.2761 106.397 96.8963C107.271 90.9113 107.943 84.3029 108.236 77.1439C108.431 72.4418 108.437 67.9696 108.316 63.7698Z" fill="white" stroke="#1D1D1B" stroke-width="3" stroke-linecap="round" stroke-linejoin="round"/>
<path d="M43.0578 119.287C46.143 121.696 54.8927 128.534 67.4343 128.625C67.4343 128.625 80.4124 128.722 92.3622 119.287C108.851 106.27 114.877 78.4026 108.54 48.7437H68.8361L61.0802 29.2031C58.8051 35.7146 56.5243 42.2322 54.2493 48.7437H24.9148C19.7902 78.5721 26.3569 106.246 43.0578 119.287Z" fill="white" stroke="#1D1D1B" stroke-width="2" stroke-linecap="round" stroke-linejoin="round"/>
<path d="M57.0933 75.5763C55.0423 74.3901 50.9461 72.3992 45.4767 72.2842C38.3988 72.1329 33.2684 75.2132 31.2979 76.5506C31.3668 77.4341 31.9011 83.056 36.411 86.3965C41.0128 89.8036 46.8441 88.6961 50.5612 86.2936C55.9845 82.7958 56.9612 76.5324 57.0933 75.5763Z" stroke="#1D1D1B" stroke-width="2" stroke-linecap="round" stroke-linejoin="round"/>
<path d="M78.7236 74.8503C80.8034 73.5068 84.9513 71.2496 90.4379 71.0196C97.5388 70.7171 102.635 73.991 104.594 75.4191C104.508 76.3934 103.876 82.56 99.291 86.312C94.6145 90.1366 88.7833 89.0292 85.095 86.4754C79.7175 82.7476 78.8443 75.8972 78.7236 74.8563V74.8503Z" stroke="#1D1D1B" stroke-width="2" stroke-linecap="round" stroke-linejoin="round"/>
<path d="M76.1729 68.5746C74.0817 68.1631 72.3295 66.4142 72.7948 65.1736C73.5589 63.1403 79.9819 63.2008 81.0448 63.2129C81.7284 63.219 85.9568 63.2553 86.2958 64.2598C86.5428 64.986 84.6125 65.8574 82.3604 66.8741C79.3615 68.2297 77.8562 68.9074 76.1729 68.5746Z" fill="#1D1D1B" stroke="#1D1D1B" stroke-linecap="round" stroke-linejoin="round"/>
<path d="M61.9595 92.3938C62.2237 91.8795 63.6428 89.2228 66.2166 88.6963C69.1006 88.1093 71.1171 90.657 71.4044 91.0322" stroke="#1D1D1B" stroke-width="2" stroke-linecap="round" stroke-linejoin="round"/>
<path d="M56.0992 101.314C55.2432 109.435 60.1783 116.528 66.4232 116.788C72.3636 117.036 77.7869 111.045 78.2178 103.293C75.2419 103.844 71.4214 104.219 67.0264 103.82C62.6372 103.426 58.9431 102.379 56.105 101.308L56.0992 101.314Z" stroke="#1D1D1B" stroke-width="2" stroke-linecap="round" stroke-linejoin="round"/>
<path d="M44.1956 100.43C45.9629 100.43 47.3956 98.9213 47.3956 97.0597C47.3956 95.1981 45.9629 93.689 44.1956 93.689C42.4283 93.689 40.9956 95.1981 40.9956 97.0597C40.9956 98.9213 42.4283 100.43 44.1956 100.43Z" stroke="#1D1D1B" stroke-linecap="round" stroke-linejoin="round"/>
<path d="M55.4846 68.5021C57.5528 68.0966 59.2763 66.3719 58.8167 65.1434C58.0641 63.1403 51.7215 63.1948 50.6759 63.2069C50.0037 63.213 45.8271 63.2493 45.4939 64.2417C45.2526 64.9619 47.1542 65.8212 49.3775 66.8258C52.3363 68.1632 53.8185 68.8349 55.4846 68.5021Z" fill="#1D1D1B" stroke="#1D1D1B" stroke-linecap="round" stroke-linejoin="round"/>
<path d="M91.7248 100.782C93.562 100.782 95.0513 99.2129 95.0513 97.2778C95.0513 95.3427 93.562 93.7739 91.7248 93.7739C89.8877 93.7739 88.3984 95.3427 88.3984 97.2778C88.3984 99.2129 89.8877 100.782 91.7248 100.782Z" stroke="#1D1D1B" stroke-linecap="round" stroke-linejoin="round"/>
<path d="M61.9822 102.488L61.2812 113.774" stroke="#1D1D1B" stroke-linecap="round" stroke-linejoin="round"/>
<path d="M67.2966 105.181L66.6187 116.068" stroke="#1D1D1B" stroke-linecap="round" stroke-linejoin="round"/>
<path d="M73.7711 104.443L73.1621 114.253" stroke="#1D1D1B" stroke-linecap="round" stroke-linejoin="round"/>
<path d="M89.5648 76.8476C90.761 76.8476 91.7307 75.8261 91.7307 74.5661C91.7307 73.3061 90.761 72.2847 89.5648 72.2847C88.3686 72.2847 87.3989 73.3061 87.3989 74.5661C87.3989 75.8261 88.3686 76.8476 89.5648 76.8476Z" fill="#1D1D1B" stroke="#1D1D1B" stroke-width="3" stroke-linecap="round" stroke-linejoin="round"/>
<path d="M47.9471 77.2709C49.1433 77.2709 50.113 76.2495 50.113 74.9895C50.113 73.7294 49.1433 72.708 47.9471 72.708C46.7509 72.708 45.7812 73.7294 45.7812 74.9895C45.7812 76.2495 46.7509 77.2709 47.9471 77.2709Z" fill="#1D1D1B" stroke="#1D1D1B" stroke-width="3" stroke-linecap="round" stroke-linejoin="round"/>
<path d="M23.7891 63.5098C14.8613 63.9152 8.23143 70.8201 7.87523 77.7068C7.4501 85.9128 15.8954 94.9236 26.903 93.4833C25.6736 88.3516 24.6049 82.3181 24.0821 75.5101C23.7489 71.1953 23.6857 67.171 23.7891 63.5098Z" fill="white" stroke="#1D1D1B" stroke-width="2" stroke-linecap="round" stroke-linejoin="round"/>
<path d="M34.6587 110.373C29.988 103.898 27.8967 97.5136 26.9086 93.4832C20.5775 94.8993 14.1487 92.164 10.8223 86.6994C8.08767 82.2091 7.42699 75.8307 10.5351 70.5477C13.31 65.8274 18.4288 63.1102 23.7948 63.5097C24.1682 58.5837 24.5416 53.6637 24.9151 48.7377C42.9834 54.9103 50.676 52.5442 54.2495 48.7377C57.1737 45.6211 58.1332 40.6709 61.1551 40.5075C64.3781 40.326 66.3774 45.7785 68.8363 48.7377C73.0647 53.821 83.1358 56.9195 108.541 48.7377C109.27 53.7968 110 58.856 110.729 63.9151C117.733 64.8531 123.328 70.5114 124.449 77.7067C125.632 85.3075 121.421 92.049 116.176 95.0627C112.516 97.1687 108.914 97.1323 107.139 96.981C106.001 100.691 103.893 105.998 99.8885 111.378C97.3089 114.845 94.626 117.423 92.3624 119.281C94.2411 120.364 105.823 126.785 118.399 121.617C120.174 120.885 126.994 117.98 131.142 111.112C136.479 102.276 133.618 93.1504 125.787 63.6488C115.883 26.3286 115.073 20.6704 107.69 13.4629C104.571 10.419 95.459 1.78939 81.8374 1.40209C72.2489 1.12976 64.9353 5.06936 61.5228 7.23583C57.4265 6.19495 49.257 4.77888 40.0993 8.01648C37.2153 9.03315 29.5456 12.1679 21.4048 22.5343C11.1843 35.5513 8.40365 50.4624 3.53181 79.9882C-0.397828 103.795 0.555879 110.591 4.27295 116.364C10.1961 125.569 20.2271 127.645 21.2612 127.838C34.0383 130.271 43.4602 121.623 44.6437 120.498C41.8286 118.416 38.1115 115.16 34.653 110.361L34.6587 110.373Z" fill="#1D1D1B" stroke="#1D1D1B" stroke-width="2" stroke-linecap="round" stroke-linejoin="round"/>
<path d="M114.803 80.1396C115.021 80.2667 116.63 81.235 116.963 83.2562C117.233 84.8962 116.566 86.5907 115.251 87.6315" stroke="#1D1D1B" stroke-linecap="round" stroke-linejoin="round"/>
<path d="M20.6983 76.9985C20.5029 77.1075 19.0839 77.9668 18.7852 79.7581C18.5439 81.2104 19.1356 82.7112 20.3018 83.6311" stroke="#1D1D1B" stroke-linecap="round" stroke-linejoin="round"/>
</svg>
