<svg width="138" height="190" viewBox="0 0 138 190" fill="none" xmlns="http://www.w3.org/2000/svg">
<path d="M38.3496 184.086C36.3783 184.469 32.9257 184.878 28.888 183.845C27.5281 183.499 20.6071 181.727 16.9015 175.592C12.089 167.628 16.3111 158.28 17.4602 155.732C20.5438 148.901 25.6041 145.314 31.3496 141.356C35.9144 138.21 43.8421 133.607 55.2277 131.059C60.0245 134.147 64.3836 134.965 66.7609 135.227C76.4756 136.286 83.8709 131.4 86.2113 129.853C88.3409 128.448 89.9327 127.032 90.9869 126.005C97.9184 128.144 103.464 130.388 107.338 132.092C115.719 135.778 120.795 138.058 126.135 142.897C129.371 145.828 132.956 149.074 135.059 154.673C135.965 157.09 139.033 165.222 134.653 172.389C131.263 177.936 125.376 179.692 123.684 180.201C119.219 181.533 115.366 181.05 113.347 180.652C112.23 181.863 110.443 183.41 107.886 184.348C100.391 187.095 93.3168 181.973 92.5946 181.433C84.5667 181.538 76.5336 181.648 68.5057 181.753C67.7045 182.524 66.3182 183.656 64.3151 184.458C61.8588 185.444 59.6766 185.444 58.4906 185.36C57.3204 186.288 54.4476 188.291 50.3151 188.611C43.6313 189.124 39.0823 184.804 38.3602 184.091L38.3496 184.086Z" fill="white"/>
<path d="M47.1629 124.867C51.0056 128.322 59.2812 135.757 70.6299 135.416C80.645 135.117 87.6714 128.925 90.9817 126.01C113.416 106.249 108.118 66.2876 107.306 60.6986L72 59.5C69.628 53.8586 66.1337 49.4106 63.7617 43.7692C61.6743 49.4106 58.0874 53.8586 56 59.5L30.5853 60.6986C29.7736 66.2824 24.6975 104.666 47.1682 124.867H47.1629Z" fill="white" stroke="#1D1D1B" stroke-width="2" stroke-miterlimit="10" stroke-linecap="round"/>
<path d="M54 84.6646C52.7123 88.1591 50.0387 90.2557 47.2547 89.9749C44.2807 89.6692 41.742 86.7114 41 82.6429C41.5151 82.1187 44.4156 79.2545 48.3401 80.1843C51.584 80.9518 53.4849 83.8285 54 84.6709V84.6646Z" fill="#1D1D1B"/>
<path d="M83 84.6646C84.2877 88.1591 86.9613 90.2557 89.7453 89.9749C92.7193 89.6692 95.258 86.7114 96 82.6429C95.4849 82.1187 92.5844 79.2545 88.6599 80.1843C85.416 80.9518 83.5151 83.8285 83 84.6709V84.6646Z" fill="#1D1D1B"/>
<path d="M79.1533 77.7854C76.2964 77.2558 73.9139 75.0014 74.5464 73.4023C75.5848 70.786 84.3507 70.8594 85.8055 70.8752C86.7385 70.8856 92.5103 70.9328 92.9689 72.2226C93.301 73.1611 90.6707 74.2831 87.5977 75.5938C83.502 77.3397 81.4568 78.2153 79.1533 77.7854Z" fill="#1D1D1B"/>
<path d="M62.9763 102.752C63.3137 102.307 65.1164 100.005 68.4003 99.5488C72.0743 99.0402 74.6413 101.248 75.0103 101.573" stroke="#1D1D1B" stroke-width="2" stroke-miterlimit="10" stroke-linecap="round"/>
<path d="M60.715 111.87C60.0508 117.59 64.4469 122.644 69.9289 122.896C75.1367 123.137 79.8333 118.969 80.1232 113.511C77.5246 113.867 74.1774 114.087 70.3189 113.762C66.4658 113.437 63.2135 112.656 60.715 111.87Z" stroke="#1D1D1B" stroke-width="2" stroke-miterlimit="10" stroke-linecap="round"/>
<path d="M46.9363 110.653C49.1313 110.653 50.9108 108.883 50.9108 106.7C50.9108 104.517 49.1313 102.747 46.9363 102.747C44.7413 102.747 42.9619 104.517 42.9619 106.7C42.9619 108.883 44.7413 110.653 46.9363 110.653Z" stroke="#1D1D1B" stroke-width="2" stroke-miterlimit="10" stroke-linecap="round"/>
<path d="M29.315 73.6644C23.5115 73.5595 18.8413 78.4512 19.1523 83.993C19.4633 89.5767 24.7186 93.9284 30.5063 93.121C29.9633 89.6029 29.5469 85.7232 29.3625 81.5183C29.2412 78.7553 29.2359 76.1286 29.3097 73.6592L29.315 73.6644Z" fill="white" stroke="#1D1D1B" stroke-width="2" stroke-miterlimit="10" stroke-linecap="round"/>
<path d="M51.791 14.4454C40.7533 9.4279 28.0816 10.5342 19.263 17.4811C7.77725 26.5251 4.49336 44.1571 12.827 58.6014C11.7411 59.1048 3.35479 63.1785 1.30433 72.4218C-0.598544 81.0203 3.77121 90.5205 11.9151 94.3373C21.0025 98.5998 30.5695 93.8025 30.5063 93.1314C30.4694 92.7173 26.7638 93.6925 23.443 91.459C20.876 89.734 18.8255 86.2842 19.1839 82.5407C19.5582 78.6242 22.394 76.3069 23.4693 75.4313C25.6832 73.6225 28.0025 73.0038 29.2412 72.7626C29.684 68.7465 30.132 64.7304 30.5748 60.7091C39.4144 67.1474 50.8317 66.8171 57.6578 60.7091C64.5734 54.5172 63.8671 44.9908 63.7564 43.7796C63.8513 46.3015 64.4838 54.6011 70.8724 60.7091C78.7053 68.2013 91.999 69.3495 103.464 62.9636C105.103 66.534 106.737 70.0992 108.376 73.6696C108.998 73.6225 113.679 73.3289 116.852 76.8049C120.236 80.5064 119.788 86.1636 117.532 89.2779C114.233 93.8288 107.037 92.9742 107.08 93.7711C107.132 94.7148 117.474 98.0493 125.671 92.4499C133.567 87.0549 133.794 77.3502 133.799 76.8102C133.873 65.8996 124.511 59.9489 123.974 59.6186C131.427 52.074 132.724 40.9852 127.7 33.3305C122.213 24.968 111.734 24.5852 110.759 24.5695C107.312 12.8568 97.8131 3.90708 86.0216 1.31183C73.1812 -1.50887 59.6871 3.66067 51.7963 14.4559L51.791 14.4454Z" fill="#1D1D1B"/>
<path d="M63.9514 134.724C63.8249 138.871 66.7188 142.169 69.8551 142.53C73.5554 142.955 77.7565 139.311 77.4613 134.268" stroke="#1D1D1B" stroke-width="2" stroke-miterlimit="10"/>
<path d="M90.2279 126.671C92.2889 127.111 132.091 136.071 136.16 158.595C136.587 160.97 137.953 168.525 133.309 174.423C126.883 182.576 114.291 180.804 113.342 180.657C114.359 179.116 116.251 175.734 116.083 171.309C115.851 165.159 111.729 159.507 105.509 156.508C104.423 155.984 96.4426 152.256 88.673 156.508C87.5871 157.106 80.392 161.201 80.06 168.971C79.8597 173.668 82.2738 177.129 83.191 178.319C83.3544 176.751 83.8025 174.334 85.1466 171.697C86.7648 168.525 88.9154 166.517 90.2385 165.463" stroke="#1D1D1B" stroke-width="2" stroke-miterlimit="10"/>
<path d="M83.191 178.313C83.871 179.032 85.4945 180.542 88.0879 181.234C90.0171 181.748 91.6565 181.59 92.5894 181.428C92.6685 180.379 92.9057 178.932 93.5699 177.338C94.6452 174.754 96.3056 173.112 97.2913 172.274" stroke="#1D1D1B" stroke-width="2" stroke-miterlimit="10"/>
<path d="M92.5894 181.433C93.2272 181.968 94.2129 182.707 95.5254 183.378C96.7483 184.007 101.292 186.251 106.684 184.741C110.042 183.803 112.245 181.821 113.342 180.652" stroke="#1D1D1B" stroke-width="2" stroke-miterlimit="10"/>
<path d="M56.1713 131.62C54.5478 131.976 19.7216 139.988 15.5258 161.515C15.0567 163.922 13.5333 171.749 18.3775 177.857C24.9294 186.115 37.5643 184.217 38.3444 184.091C37.3271 182.55 35.4348 179.168 35.6034 174.743C35.8354 168.593 39.9574 162.941 46.1773 159.942C47.2631 159.418 55.2436 155.69 63.0132 159.942C64.0991 160.54 71.2941 164.635 71.6262 172.405C71.8265 177.102 69.4123 180.563 68.4952 181.753C68.3317 180.185 67.8837 177.768 66.5396 175.131C64.9213 171.959 62.7707 169.951 61.4477 168.897" stroke="#1D1D1B" stroke-width="2" stroke-miterlimit="10"/>
<path d="M68.5004 181.753C67.8205 182.471 66.1969 183.981 63.6036 184.673C61.6743 185.187 60.035 185.03 59.102 184.867C59.023 183.819 58.7858 182.372 58.1216 180.778C57.0463 178.193 55.3859 176.552 54.4002 175.713" stroke="#1D1D1B" stroke-width="2" stroke-miterlimit="10"/>
<path d="M59.102 184.867C58.4642 185.402 57.4785 186.141 56.166 186.812C54.9431 187.441 50.3994 189.685 45.0071 188.175C41.6494 187.237 39.4461 185.255 38.3497 184.086" stroke="#1D1D1B" stroke-width="2" stroke-miterlimit="10"/>
<path d="M49.1186 158.82C46.0982 159.9 41.6389 161.007 36.3098 160.619C34.6599 160.498 33.1471 160.252 31.7924 159.942" stroke="#1D1D1B" stroke-width="2" stroke-miterlimit="10"/>
<path d="M103.021 155.57C106.041 156.65 110.501 157.756 115.83 157.368C117.48 157.247 118.992 157.001 120.347 156.692" stroke="#1D1D1B" stroke-width="2" stroke-miterlimit="10"/>
<path d="M92.8582 181.648C84.7407 181.679 76.6179 181.716 68.5004 181.748" stroke="#1D1D1B" stroke-width="2" stroke-miterlimit="10"/>
<path d="M57.041 77.7854C59.898 77.2558 62.2805 75.0014 61.648 73.4023C60.6096 70.786 51.8437 70.8594 50.3889 70.8752C49.4559 70.8856 43.684 70.9328 43.2255 72.2226C42.8934 73.1611 45.5237 74.2831 48.5967 75.5938C52.6924 77.3397 54.7376 78.2153 57.041 77.7854Z" fill="#1D1D1B"/>
<path d="M56.4876 86.8175C56.0448 86.0521 53.7308 82.2247 48.9077 80.9821C42.6456 79.3673 37.8015 83.5564 37.4167 83.8972C37.3482 84.6627 37.0899 88.5529 39.8625 91.4366C43.0673 94.7711 48.5018 94.8602 52.1336 92.6267C55.1171 90.7917 56.1766 87.8242 56.4876 86.8175Z" stroke="#1D1D1B" stroke-width="2" stroke-miterlimit="10"/>
<path d="M81 86.2043C81.4428 85.4388 83.7568 81.6115 88.5799 80.3689C94.8419 78.7541 99.6861 82.9432 100.071 83.284C100.139 84.0495 100.398 87.9397 97.6251 90.8233C94.4202 94.1578 88.9857 94.247 85.3539 92.0135C82.3705 90.1784 81.311 87.211 81 86.2043Z" stroke="#1D1D1B" stroke-width="2" stroke-miterlimit="10"/>
<path d="M92.9953 110.653C95.1903 110.653 96.9697 108.883 96.9697 106.7C96.9697 104.517 95.1903 102.747 92.9953 102.747C90.8003 102.747 89.0209 104.517 89.0209 106.7C89.0209 108.883 90.8003 110.653 92.9953 110.653Z" stroke="#1D1D1B" stroke-width="2" stroke-miterlimit="10" stroke-linecap="round"/>
<path d="M64.8897 112.73L64.447 119.435" stroke="#1D1D1B" stroke-miterlimit="10" stroke-linecap="round"/>
<path d="M69.7602 115.068L69.3227 121.774" stroke="#1D1D1B" stroke-miterlimit="10" stroke-linecap="round"/>
<path d="M75.2316 114.392L74.7941 121.103" stroke="#1D1D1B" stroke-miterlimit="10" stroke-linecap="round"/>
<path d="M108.376 73.6644C114.18 73.5595 118.85 78.4512 118.539 83.993C118.228 89.5767 112.973 93.9284 107.185 93.121C107.728 89.6029 108.144 85.7232 108.329 81.5183C108.45 78.7553 108.455 76.1286 108.382 73.6592L108.376 73.6644Z" fill="white" stroke="#1D1D1B" stroke-width="2" stroke-miterlimit="10" stroke-linecap="round"/>
</svg>
