<svg width="142" height="186" viewBox="0 0 142 186" fill="none" xmlns="http://www.w3.org/2000/svg">
<path d="M31.895 179.42C29.718 179.845 25.9054 180.299 21.4466 179.153C19.9449 178.768 12.3022 176.801 8.21016 169.991C2.89577 161.149 7.55823 150.77 8.82716 147.941C12.3138 140.176 18.0881 136.125 24.165 131.981C29.7297 128.186 39.6367 122.563 54.0257 119.984C58.2807 121.928 62.0118 122.662 64.5439 122.97C67.7511 123.36 76.4882 124.303 84.742 119.21C87.1519 117.726 88.8923 116.107 90.0157 114.938C97.67 117.312 103.794 119.804 108.072 121.695C117.327 125.787 122.932 128.32 128.829 133.692C132.403 136.946 136.361 140.549 138.683 146.766C139.685 149.449 143.072 158.477 138.235 166.434C134.492 172.593 127.991 174.542 126.122 175.107C121.192 176.586 116.937 176.05 114.707 175.608C113.473 176.952 111.5 178.669 108.677 179.711C100.4 182.761 92.5885 177.075 91.791 176.475C82.9259 176.591 74.055 176.714 65.19 176.83C64.3052 177.686 62.7743 178.943 60.5624 179.834C57.8499 180.928 55.4401 180.928 54.1304 180.835C52.8382 181.865 49.6659 184.089 45.1024 184.444C37.7216 185.014 32.6983 180.218 31.9008 179.426L31.895 179.42Z" fill="white"/>
<path d="M62.9898 124.035C62.8501 128.639 66.0457 132.301 69.5091 132.702C73.5953 133.174 78.2344 129.128 77.9085 123.529" stroke="#1D1D1B" stroke-width="2" stroke-linecap="round" stroke-linejoin="round"/>
<path d="M89.1715 115.386C91.4474 115.875 135.4 125.822 139.894 150.829C140.365 153.465 141.873 161.853 136.745 168.402C129.649 177.453 115.743 175.485 114.696 175.323C115.819 173.611 117.909 169.857 117.723 164.944C117.466 158.116 112.914 151.841 106.046 148.512C104.847 147.93 96.0342 143.791 87.4544 148.512C86.2553 149.175 78.3099 153.722 77.9432 162.348C77.722 167.563 80.3879 171.405 81.4007 172.726C81.5812 170.986 82.0759 168.303 83.5602 165.375C85.3472 161.853 87.7221 159.624 89.1831 158.454" stroke="#1D1D1B" stroke-width="2" stroke-linecap="round" stroke-linejoin="round"/>
<path d="M81.4009 172.727C82.1518 173.524 83.9446 175.2 86.8084 175.969C88.9388 176.539 90.7491 176.365 91.7794 176.184C91.8667 175.02 92.1286 173.413 92.862 171.644C94.0495 168.774 95.883 166.952 96.9715 166.021" stroke="#1D1D1B" stroke-width="2" stroke-linecap="round" stroke-linejoin="round"/>
<path d="M91.7734 176.184C92.4778 176.778 93.5662 177.599 95.0156 178.344C96.3661 179.042 101.384 181.534 107.338 179.857C111.046 178.815 113.479 176.615 114.69 175.317" stroke="#1D1D1B" stroke-width="2" stroke-linecap="round" stroke-linejoin="round"/>
<path d="M54.0198 119.984C52.0757 120.403 11.3825 129.635 6.67925 154.071C6.1612 156.754 4.49065 165.451 9.82832 172.214C17.0636 181.382 31.016 179.275 31.8775 179.135C30.7541 177.424 28.6644 173.67 28.8507 168.757C29.1068 161.929 33.6587 155.654 40.5272 152.325C41.7263 151.743 50.539 147.604 59.1188 152.325C60.3179 152.988 68.2633 157.534 68.63 166.161C68.8512 171.376 66.1853 175.218 65.1724 176.539C64.992 174.799 64.4973 172.115 63.013 169.188C61.226 165.666 58.8511 163.437 57.39 162.267" stroke="#1D1D1B" stroke-width="2" stroke-linecap="round" stroke-linejoin="round"/>
<path d="M65.1727 176.539C64.4218 177.337 62.629 179.013 59.7652 179.781C57.6348 180.352 55.8245 180.177 54.7942 179.997C54.7069 178.832 54.445 177.226 53.7116 175.456C52.5241 172.587 50.6905 170.765 49.6021 169.833" stroke="#1D1D1B" stroke-width="2" stroke-linecap="round" stroke-linejoin="round"/>
<path d="M54.7998 179.997C54.0955 180.59 53.007 181.411 51.5576 182.156C50.2072 182.855 45.1896 185.346 39.2349 183.67C35.5271 182.628 33.094 180.427 31.8833 179.129" stroke="#1D1D1B" stroke-width="2" stroke-linecap="round" stroke-linejoin="round"/>
<path d="M43.7751 151.079C40.4397 152.278 35.5153 153.506 29.6305 153.076C27.8086 152.942 26.138 152.668 24.6421 152.325" stroke="#1D1D1B" stroke-width="2" stroke-linecap="round" stroke-linejoin="round"/>
<path d="M103.293 147.47C106.628 148.669 111.553 149.897 117.438 149.467C119.259 149.333 120.93 149.059 122.426 148.716" stroke="#1D1D1B" stroke-width="2" stroke-linecap="round" stroke-linejoin="round"/>
<path d="M92.0703 176.429C83.1063 176.464 74.1364 176.504 65.1724 176.539" stroke="#1D1D1B" stroke-width="2" stroke-linecap="round" stroke-linejoin="round"/>
<path d="M109.731 61.0021C119.184 60.8333 126.786 68.8369 126.279 77.9174C125.767 87.0618 117.21 94.1923 107.787 92.8652C108.671 87.1084 109.352 80.7521 109.649 73.8661C109.847 69.3433 109.853 65.0418 109.731 61.0021Z" fill="white" stroke="#1D1D1B" stroke-width="3" stroke-linecap="round" stroke-linejoin="round"/>
<path d="M43.6123 114.408C46.7381 116.724 55.6032 123.302 68.31 123.389C68.31 123.389 81.4592 123.482 93.5664 114.408C110.272 101.887 116.378 75.0824 109.958 46.5546H69.7302L61.8722 27.7593C59.5671 34.0225 57.2563 40.2914 54.9512 46.5546H25.2302C20.0381 75.2453 26.6913 101.864 43.6123 114.408Z" fill="white" stroke="#1D1D1B" stroke-width="2" stroke-linecap="round" stroke-linejoin="round"/>
<path d="M57.8326 72.3643C55.2773 67.6261 50.3587 64.6401 45.0502 64.6226C39.34 64.6052 34.0896 68.0103 31.6973 73.3014C31.7671 74.1513 32.3084 79.5588 36.8778 82.7719C41.5402 86.049 47.4483 84.9838 51.2144 82.6729C56.7092 79.3085 57.6988 73.284 57.8326 72.3643Z" stroke="#1D1D1B" stroke-width="2" stroke-linecap="round" stroke-linejoin="round"/>
<path d="M79.748 71.6659C79.9518 71.305 84.1485 64.2386 92.385 64.064C98.037 63.9417 103.311 67.1141 105.959 72.2131C105.872 73.1502 105.231 79.0816 100.586 82.6905C95.8484 86.3693 89.9402 85.304 86.2033 82.8477C80.755 79.2621 79.8703 72.6729 79.748 71.6717V71.6659Z" stroke="#1D1D1B" stroke-width="2" stroke-linecap="round" stroke-linejoin="round"/>
<path d="M78.2401 62.5503C76.3716 61.4677 75.2657 59.2907 76.1097 58.3244C76.878 57.4397 79.0259 58.7493 84.6197 59.3431C88.1936 59.7214 89.8409 59.4304 89.9981 60.0241C90.2076 60.8448 87.3787 62.4688 84.6953 63.1091C83.0481 63.4991 80.5509 63.8949 78.2401 62.5562V62.5503Z" fill="#1D1D1B" stroke="#1D1D1B" stroke-width="2" stroke-linecap="round" stroke-linejoin="round"/>
<path d="M58.0829 82.7837C56.7034 85.8105 55.318 88.8373 53.9385 91.8641" stroke="#3C3C3B" stroke-width="0.49" stroke-linecap="round" stroke-linejoin="round"/>
<path d="M61.4413 82.8125C60.0618 85.8393 58.6764 88.8661 57.2969 91.8929" stroke="#3C3C3B" stroke-width="0.49" stroke-linecap="round" stroke-linejoin="round"/>
<path d="M64.87 82.8477C63.4905 85.8745 62.1051 88.9013 60.7256 91.9281" stroke="#3C3C3B" stroke-width="0.49" stroke-linecap="round" stroke-linejoin="round"/>
<path d="M68.1703 82.6729C66.7908 85.6997 65.4054 88.7265 64.0259 91.7533" stroke="#3C3C3B" stroke-width="0.49" stroke-linecap="round" stroke-linejoin="round"/>
<path d="M71.5292 82.7021C70.1496 85.729 68.7643 88.7558 67.3848 91.7826" stroke="#3C3C3B" stroke-width="0.49" stroke-linecap="round" stroke-linejoin="round"/>
<path d="M74.9574 82.731C73.5779 85.7578 72.1925 88.7846 70.813 91.8114" stroke="#3C3C3B" stroke-width="0.49" stroke-linecap="round" stroke-linejoin="round"/>
<path d="M78.3685 82.9639C76.989 85.9907 75.6037 89.0175 74.2241 92.0443" stroke="#3C3C3B" stroke-width="0.49" stroke-linecap="round" stroke-linejoin="round"/>
<path d="M81.7269 82.999C80.3474 86.0258 78.962 89.0527 77.5825 92.0795" stroke="#3C3C3B" stroke-width="0.49" stroke-linecap="round" stroke-linejoin="round"/>
<path d="M85.1556 83.0278C83.7761 86.0546 82.3908 89.0815 81.0112 92.1083" stroke="#3C3C3B" stroke-width="0.49" stroke-linecap="round" stroke-linejoin="round"/>
<path d="M62.7627 88.5346C63.0305 88.0399 64.4682 85.4845 67.0759 84.9781C69.9979 84.4135 72.041 86.8641 72.3321 87.225" stroke="#1D1D1B" stroke-width="2" stroke-linecap="round" stroke-linejoin="round"/>
<path d="M44.7646 96.2647C46.5552 96.2647 48.0068 94.8131 48.0068 93.0225C48.0068 91.2319 46.5552 89.7803 44.7646 89.7803C42.974 89.7803 41.5225 91.2319 41.5225 93.0225C41.5225 94.8131 42.974 96.2647 44.7646 96.2647Z" stroke="#1D1D1B" stroke-linecap="round" stroke-linejoin="round"/>
<path d="M92.9201 96.6023C94.7814 96.6023 96.2903 95.0934 96.2903 93.232C96.2903 91.3707 94.7814 89.8618 92.9201 89.8618C91.0587 89.8618 89.5498 91.3707 89.5498 93.232C89.5498 95.0934 91.0587 96.6023 92.9201 96.6023Z" stroke="#1D1D1B" stroke-linecap="round" stroke-linejoin="round"/>
<path d="M93 81C96.3137 81 99 78.0899 99 74.5C99 70.9101 96.3137 68 93 68C89.6863 68 87 70.9101 87 74.5C87 78.0899 89.6863 81 93 81Z" fill="#1D1D1B" stroke="#1D1D1B" stroke-width="6.24" stroke-linecap="round" stroke-linejoin="round"/>
<path d="M44.5 81C48.0898 81 51 78.0899 51 74.5C51 70.9102 48.0898 68 44.5 68C40.9102 68 38 70.9102 38 74.5C38 78.0899 40.9102 81 44.5 81Z" fill="#1D1D1B" stroke="#1D1D1B" stroke-width="5.58" stroke-linecap="round" stroke-linejoin="round"/>
<path d="M24.0894 60.7578C15.0439 61.1478 8.32666 67.7893 7.96577 74.4134C7.53503 82.3064 16.0916 90.9736 27.2442 89.5882C25.9986 84.6522 24.9159 78.8488 24.3863 72.3004C24.0486 68.1502 23.9846 64.2794 24.0894 60.7578Z" fill="white" stroke="#1D1D1B" stroke-width="2" stroke-linecap="round" stroke-linejoin="round"/>
<path d="M35.1023 105.828C30.37 99.5998 28.2512 93.4588 27.25 89.5822C20.8355 90.9443 14.322 88.3133 10.9518 83.0571C8.18109 78.738 7.51169 72.6029 10.6607 67.5214C13.4722 62.9811 18.6585 60.3676 24.0952 60.7518C24.4735 56.0136 24.8518 51.2813 25.2302 46.5432C43.5366 52.4804 51.3306 50.2045 54.9512 46.5432C57.914 43.5455 58.8861 38.7841 61.9478 38.6269C65.2133 38.4523 67.2389 43.6968 69.7302 46.5432C74.0143 51.4327 84.2182 54.4129 109.958 46.5432C110.697 51.4094 111.436 56.2756 112.175 61.1418C119.271 62.044 124.94 67.4864 126.076 74.4074C127.275 81.7183 123.008 88.2026 117.694 91.1014C113.986 93.127 110.336 93.0921 108.537 92.9466C107.385 96.5148 105.249 101.62 101.192 106.794C98.5781 110.13 95.8598 112.609 93.5664 114.396C95.4698 115.438 107.204 121.614 119.946 116.643C121.745 115.939 128.654 113.145 132.857 106.538C138.264 98.0398 135.366 89.262 127.432 60.8857C117.397 24.9888 116.576 19.5463 109.096 12.6138C105.936 9.6859 96.7038 1.38543 82.9027 1.0129C73.1878 0.750967 65.7779 4.54031 62.3203 6.62415C58.1701 5.62298 49.8929 4.26091 40.6146 7.37504C37.6925 8.35293 29.9218 11.3681 21.6737 21.3391C11.3185 33.8597 8.50123 48.2021 3.56519 76.6018C-0.416234 99.5008 0.550006 106.038 4.31606 111.591C10.3173 120.444 20.4804 122.441 21.5282 122.627C34.4736 124.967 44.0197 116.649 45.2188 115.566C42.3666 113.564 38.6006 110.432 35.0964 105.816L35.1023 105.828Z" fill="#1D1D1B" stroke="#1D1D1B" stroke-width="2" stroke-linecap="round" stroke-linejoin="round"/>
<path d="M116.302 76.7529C116.523 76.8752 118.153 77.8065 118.491 79.7506C118.764 81.3281 118.089 82.9579 116.756 83.9591" stroke="#1D1D1B" stroke-linecap="round" stroke-linejoin="round"/>
<path d="M20.9576 73.7266C20.7597 73.8313 19.3219 74.6579 19.0193 76.3808C18.7748 77.7778 19.3743 79.2214 20.556 80.1062" stroke="#1D1D1B" stroke-linecap="round" stroke-linejoin="round"/>
<path d="M72.7454 96.6255C75.4929 97.7314 76.7793 99.7221 75.8479 100.927C75.0854 101.917 72.9259 102.26 70.6034 101.672C73.1063 102.446 74.7769 103.989 74.7013 105.165C74.6023 106.626 71.7966 107.499 68.5195 106.521" stroke="#1D1D1B" stroke-width="2" stroke-linecap="round" stroke-linejoin="round"/>
<path d="M59.7768 60.0708C61.6453 58.9882 62.7512 56.8112 61.9072 55.8449C61.1389 54.9602 58.991 56.2699 53.3972 56.8636C49.8232 57.2419 48.1759 56.9509 48.0188 57.5446C47.8092 58.3653 50.6381 59.9893 53.3215 60.6296C54.9688 61.0196 57.4659 61.4154 59.7768 60.0767V60.0708Z" fill="#1D1D1B" stroke="#1D1D1B" stroke-width="2" stroke-linecap="round" stroke-linejoin="round"/>
<path d="M90.9121 77.8941C92.3748 77.8941 93.5606 76.7083 93.5606 75.2456C93.5606 73.7829 92.3748 72.5972 90.9121 72.5972C89.4494 72.5972 88.2637 73.7829 88.2637 75.2456C88.2637 76.7083 89.4494 77.8941 90.9121 77.8941Z" fill="white"/>
<path d="M48.0069 79.0235C49.4696 79.0235 50.6553 77.8377 50.6553 76.375C50.6553 74.9123 49.4696 73.7266 48.0069 73.7266C46.5441 73.7266 45.3584 74.9123 45.3584 76.375C45.3584 77.8377 46.5441 79.0235 48.0069 79.0235Z" fill="white"/>
</svg>
