<svg width="158" height="178" viewBox="0 0 158 178" fill="none" xmlns="http://www.w3.org/2000/svg">
<g filter="url(#filter0_d_642_1840)">
<path d="M58.9408 57.2385C45.5168 51.1754 42.8342 46.9552 43.1287 44.1527C43.3468 42.0153 45.2661 40.9575 44.7317 38.7439C43.8811 35.2107 38.4614 35.625 36.3131 31.2413C35.3426 29.2566 35.0809 26.3559 36.6621 24.0658C37.938 22.2338 39.9227 21.4923 40.7842 21.2306C39.9336 18.9841 40.8387 16.476 42.9433 15.1674C44.9934 13.8916 47.7305 14.0224 49.6607 15.4837C49.9878 15.1456 52.0816 13.0301 54.6442 13.3791C55.0804 13.4445 56.9779 13.7716 58.8099 16.8359C62.1686 22.441 60.6528 29.442 60.2385 32.7243C59.5296 38.2204 60.2385 46.2682 66.8687 56.955C64.2297 57.0422 61.5798 57.1404 58.9408 57.2276V57.2385Z" fill="white" stroke="#1D1D1B" stroke-width="2.25" stroke-linecap="round" stroke-linejoin="round"/>
<path d="M64.0552 57.0638C61.8306 54.294 59.5624 51.088 57.4141 47.4239C52.4742 39.0162 49.8679 31.0774 48.4394 24.7744" stroke="#1D1D1B" stroke-width="2.25" stroke-linecap="round" stroke-linejoin="round"/>
<path d="M69.5623 56.9875C57.2725 43.8144 55.9312 37.4459 57.9377 34.1744C59.2572 32.0153 61.8089 31.5027 62.2669 28.8637C62.9975 24.6217 56.8254 22.8878 56.531 17.1737C56.4001 14.5892 57.4797 11.285 60.304 9.4094C62.5832 7.90452 65.1131 7.89362 66.1927 7.94815C66.3236 5.12378 68.4936 2.72471 71.4489 2.13585C74.306 1.5688 77.272 2.81196 78.7006 5.21104C79.224 4.97113 82.5391 3.48804 85.1999 4.91659C85.6579 5.15649 87.5881 6.29062 88.166 10.4236C89.2129 17.9043 84.3384 24.8507 82.2338 28.5257C78.9732 34.218 76.0289 43.1055 77.9155 56.8675C75.1347 56.9111 72.3649 56.9548 69.5841 56.9875H69.5623Z" fill="white" stroke="#1D1D1B" stroke-width="2.25" stroke-linecap="round" stroke-linejoin="round"/>
<path d="M74.7202 56.9111C73.6515 52.9199 72.7246 48.4598 72.1358 43.5853C70.7726 32.3969 71.5905 22.6152 72.9427 14.96" stroke="#1D1D1B" stroke-width="2.25" stroke-linecap="round" stroke-linejoin="round"/>
<path d="M84.0547 57.7292C97.7731 51.1317 100.39 46.7698 100.009 43.9236C99.725 41.8081 97.8058 40.7612 98.2965 38.5475C99.0707 35.0034 104.501 35.3306 106.562 30.9032C107.5 28.8967 107.697 25.996 106.072 23.7386C104.763 21.9284 102.767 21.2196 101.895 20.9688C102.702 18.7006 101.753 16.2143 99.6159 14.9384C97.544 13.7061 94.8069 13.8806 92.9095 15.3746C92.5823 15.0474 90.4341 12.9646 87.8823 13.3572C87.4461 13.4226 85.5596 13.7825 83.7821 16.8795C80.5324 22.55 82.1899 29.54 82.6698 32.7897C83.4876 38.2967 82.9533 46.3772 76.4867 57.2494C79.0057 57.402 81.5357 57.5547 84.0547 57.7183V57.7292Z" fill="white" stroke="#1D1D1B" stroke-width="2.25" stroke-linecap="round" stroke-linejoin="round"/>
<path d="M79.0605 57.4129C81.3069 54.5668 83.6187 51.2516 85.7888 47.4349C90.6305 38.9073 93.0514 30.8922 94.3164 24.6328" stroke="#1D1D1B" stroke-width="2.25" stroke-linecap="round" stroke-linejoin="round"/>
<path d="M158.097 65C149.917 70.0558 140.06 75.4025 128.367 80.4783C102.351 91.7535 77.3619 97.2908 58.7461 100.16C59.8301 101.785 61.0009 104.052 61.4778 106.831C62.4462 112.548 59.8735 117.072 58.4137 119.189C59.4544 121.526 60.4227 124.596 60.5673 128.217C60.8419 135.079 58.0235 140.486 56 143.545C68.0251 144.147 81.3943 144.217 95.862 143.355C140.378 140.696 175.629 130.304 199 121.426" fill="white"/>
<path d="M158.097 65C149.917 70.0558 140.06 75.4025 128.367 80.4783C102.351 91.7535 77.3619 97.2908 58.7461 100.16C59.8301 101.785 61.0009 104.052 61.4778 106.831C62.4462 112.548 59.8735 117.072 58.4137 119.189C59.4544 121.526 60.4227 124.596 60.5673 128.217C60.8419 135.079 58.0234 140.486 56 143.545C68.0251 144.147 81.3943 144.217 95.862 143.355C140.378 140.696 175.629 130.304 199 121.426" stroke="#1D1D1B" stroke-width="2" stroke-linecap="round" stroke-linejoin="round"/>
<path d="M68.9077 168.37C56.7924 168.207 48.7446 96.7686 46.3019 73.1159C45.2877 64.4247 52.4195 56.8349 61.5469 56.9112L79.649 57.053C88.7655 57.1293 95.7664 64.8282 94.5887 73.4976C91.4154 96.9976 81.0557 168.534 68.9077 168.359V168.37Z" fill="white" stroke="#1D1D1B" stroke-width="2.25" stroke-linecap="round" stroke-linejoin="round"/>
<path d="M93.6072 80.564C91.8842 82.0797 89.1361 84.1299 85.2649 85.6457C79.3326 87.9793 73.9892 87.8266 71.2739 87.5649" stroke="#1D1D1B" stroke-width="2.25" stroke-linecap="round" stroke-linejoin="round"/>
<path d="M50.0313 103.399C52.2123 104.271 55.5491 105.329 59.7475 105.525C66.1814 105.841 71.1541 103.999 73.6077 102.886" stroke="#1D1D1B" stroke-width="2.25" stroke-linecap="round" stroke-linejoin="round"/>
<path d="M88.0132 112.406C86.6719 113.584 84.5345 115.176 81.5138 116.365C76.8902 118.186 72.7354 118.066 70.6199 117.859" stroke="#1D1D1B" stroke-width="2.25" stroke-linecap="round" stroke-linejoin="round"/>
<path d="M55.9528 136.702C57.3813 137.28 59.5623 137.967 62.3103 138.098C66.5196 138.305 69.7693 137.095 71.3723 136.375" stroke="#1D1D1B" stroke-width="2.25" stroke-linecap="round" stroke-linejoin="round"/>
<path d="M79.2236 154.423C78.5584 155.012 77.4788 155.808 75.9739 156.408C73.6621 157.313 71.5793 157.258 70.5215 157.149" stroke="#1D1D1B" stroke-width="2.25" stroke-linecap="round" stroke-linejoin="round"/>
<path d="M26.3568 150.573C18.0254 147.269 13.6198 141.01 11.5588 137.967C3.84905 126.659 4.90685 114.729 5.2449 111.468C5.60476 107.957 6.84795 97.532 15.1575 88.7971C20.3918 83.3011 26.0732 80.9238 28.1997 80.1278C31.1876 79.0155 37.2289 76.8345 44.6225 78.2303C46.28 78.5466 60.2492 81.4037 64.7638 94.0751C67.8608 102.755 64.5676 110.574 63.6079 112.646C64.5785 115.754 65.7562 120.988 65.0037 127.368C64.6002 130.781 63.5643 139.472 56.8141 145.895C48.4283 153.867 35.5169 154.216 26.3458 150.584L26.3568 150.573Z" fill="white" stroke="#1D1D1B" stroke-width="2" stroke-linecap="round" stroke-linejoin="round"/>
<path d="M63.6079 112.646C61.3942 111.938 57.523 111.022 52.7139 111.48C47.6868 111.959 43.9355 113.715 41.8745 114.871" stroke="#1D1D1B" stroke-width="3" stroke-linecap="round" stroke-linejoin="round"/>
<path d="M63.8696 91.9595C60.6963 91.1307 55.6691 90.2474 49.5515 90.9235C42.1907 91.7414 36.7273 94.4567 33.7176 96.2451" stroke="#1D1D1B" stroke-width="3" stroke-linecap="round" stroke-linejoin="round"/>
</g>
<defs>
<filter id="filter0_d_642_1840" x="-0.000488281" y="0.875488" width="204.001" height="176.62" filterUnits="userSpaceOnUse" color-interpolation-filters="sRGB">
<feFlood flood-opacity="0" result="BackgroundImageFix"/>
<feColorMatrix in="SourceAlpha" type="matrix" values="0 0 0 0 0 0 0 0 0 0 0 0 0 0 0 0 0 0 127 0" result="hardAlpha"/>
<feOffset dy="4"/>
<feGaussianBlur stdDeviation="2"/>
<feComposite in2="hardAlpha" operator="out"/>
<feColorMatrix type="matrix" values="0 0 0 0 0 0 0 0 0 0 0 0 0 0 0 0 0 0 0.25 0"/>
<feBlend mode="normal" in2="BackgroundImageFix" result="effect1_dropShadow_642_1840"/>
<feBlend mode="normal" in="SourceGraphic" in2="effect1_dropShadow_642_1840" result="shape"/>
</filter>
</defs>
</svg>
