<svg width="138" height="133" viewBox="0 0 138 133" fill="none" xmlns="http://www.w3.org/2000/svg">
<path d="M110.462 61.339C119.941 61.1702 127.563 69.1751 127.055 78.257C126.542 87.4029 117.962 94.5345 108.513 93.2072C109.4 87.4495 110.083 81.0922 110.381 74.2051C110.579 69.6816 110.585 65.3793 110.462 61.339Z" fill="white" stroke="#1D1D1B" stroke-width="3" stroke-linecap="round" stroke-linejoin="round"/>
<path d="M44.1622 114.754C47.2963 117.071 56.1849 123.649 68.9256 123.736C68.9256 123.736 82.1097 123.83 94.2492 114.754C110.999 102.231 117.122 75.422 110.684 46.8897H70.3496L62.4706 28.0913C60.1595 34.3555 57.8424 40.6255 55.5313 46.8897H25.7312C20.5252 75.585 27.1961 102.208 44.1622 114.754Z" fill="white" stroke="#1D1D1B" stroke-width="2" stroke-linecap="round" stroke-linejoin="round"/>
<path d="M58.4261 72.7033C58.0643 72.1211 54.0255 65.8511 46.3917 65.4494C40.5962 65.1467 35.0518 68.3486 32.2153 73.6406C32.2854 74.4905 32.8282 79.8989 37.4096 83.1125C42.0845 86.3902 48.0084 85.3248 51.7844 83.0136C57.2939 79.6486 58.2861 73.6231 58.4203 72.7033H58.4261Z" stroke="#1D1D1B" stroke-width="2" stroke-linecap="round" stroke-linejoin="round"/>
<path d="M80.394 72.0046C80.8026 71.3177 84.5262 65.2689 91.7923 64.5121C97.722 63.9008 103.605 67.062 106.675 72.5461C106.587 73.4834 105.945 79.4157 101.288 83.0252C96.5372 86.7045 90.6134 85.6391 86.8665 83.1824C81.4037 79.5962 80.5166 73.006 80.394 72.0046Z" stroke="#1D1D1B" stroke-width="2" stroke-linecap="round" stroke-linejoin="round"/>
<path d="M35.6296 106.172C30.8846 99.9431 28.7602 93.8012 27.7564 89.9239C21.3248 91.2862 14.794 88.6548 11.4148 83.3978C8.63671 79.0781 7.96554 72.942 11.123 67.8596C13.9419 63.3186 19.142 60.7047 24.5931 61.0889C24.9725 56.35 25.3519 51.617 25.7312 46.8781C44.0864 52.8162 51.9012 50.5399 55.5313 46.8781C58.502 43.8799 59.4767 39.1177 62.5466 38.9605C65.8207 38.7859 67.8518 44.0313 70.3497 46.8781C74.6452 51.7683 84.8762 54.7491 110.684 46.8781C111.425 51.745 112.167 56.612 112.908 61.479C120.022 62.3813 125.707 67.8247 126.845 74.7467C128.047 82.0588 123.769 88.5442 118.441 91.4434C114.723 93.4694 111.064 93.4344 109.26 93.2889C108.105 96.8576 105.963 101.963 101.895 107.139C99.2743 110.475 96.5488 112.955 94.2493 114.742C96.1577 115.784 107.924 121.961 120.699 116.989C122.503 116.285 129.43 113.49 133.644 106.883C139.066 98.3829 136.16 89.6037 128.205 61.2228C118.143 25.3202 117.32 19.8769 109.82 12.9432C106.651 10.0149 97.3951 1.71313 83.5572 1.34054C73.8165 1.07856 66.3868 4.86851 62.9201 6.95269C58.7588 5.95135 50.4596 4.58906 41.1565 7.70368C38.2267 8.68173 30.4353 11.6974 22.1653 21.67C11.7825 34.1925 8.9577 48.5373 4.00853 76.9415C0.016505 99.8442 0.985352 106.382 4.76143 111.936C10.7787 120.791 20.9688 122.788 22.0194 122.974C34.9993 125.314 50.7977 121.583 52 120.5C49.1402 118.497 39.1372 110.777 35.6237 106.161L35.6296 106.172Z" fill="#1D1D1B" stroke="#1D1D1B" stroke-width="2" stroke-linecap="round" stroke-linejoin="round"/>
<path d="M77.8086 65.9617C75.6841 65.5658 73.9041 63.8833 74.3768 62.6898C75.153 60.7337 81.678 60.792 82.7577 60.8036C83.4522 60.8094 87.7478 60.8444 88.0921 61.8108C88.3431 62.5094 86.3821 63.3477 84.0943 64.3257C81.0477 65.6298 79.5186 66.2818 77.8086 65.9617Z" fill="#1D1D1B" stroke="#1D1D1B" stroke-width="2" stroke-linecap="round" stroke-linejoin="round"/>
<path d="M63.3694 88.876C63.6379 88.3812 65.0794 85.8254 67.6941 85.319C70.6239 84.7543 72.6724 87.2052 72.9643 87.5662" stroke="#1D1D1B" stroke-width="2" stroke-linecap="round" stroke-linejoin="round"/>
<path d="M45.3236 96.6075C47.1189 96.6075 48.5744 95.1557 48.5744 93.3648C48.5744 91.5739 47.1189 90.1221 45.3236 90.1221C43.5282 90.1221 42.0728 91.5739 42.0728 93.3648C42.0728 95.1557 43.5282 96.6075 45.3236 96.6075Z" stroke="#1D1D1B" stroke-linecap="round" stroke-linejoin="round"/>
<path d="M59.1381 62.7829C61.1341 62.0261 62.564 60.0875 61.8987 59.0105C60.8073 57.2465 54.4749 58.4341 53.4244 58.6321C52.7532 58.7601 48.5803 59.5403 48.4169 60.5358C48.3001 61.2577 50.3487 61.735 52.7415 62.2881C55.9282 63.0275 57.5273 63.3942 59.1323 62.7888L59.1381 62.7829Z" fill="#1D1D1B" stroke="#1D1D1B" stroke-width="2" stroke-linecap="round" stroke-linejoin="round"/>
<path d="M93.6072 96.9447C95.4735 96.9447 96.9864 95.4355 96.9864 93.5739C96.9864 91.7123 95.4735 90.2031 93.6072 90.2031C91.7409 90.2031 90.228 91.7123 90.228 93.5739C90.228 95.4355 91.7409 96.9447 93.6072 96.9447Z" stroke="#1D1D1B" stroke-linecap="round" stroke-linejoin="round"/>
<path d="M93.6073 85.0859C94.8225 85.0859 95.8076 84.1032 95.8076 82.8911C95.8076 81.6789 94.8225 80.6963 93.6073 80.6963C92.3921 80.6963 91.407 81.6789 91.407 82.8911C91.407 84.1032 92.3921 85.0859 93.6073 85.0859Z" fill="#1D1D1B" stroke="#1D1D1B" stroke-width="2" stroke-linecap="round" stroke-linejoin="round"/>
<path d="M46.6136 84.8417C47.8288 84.8417 48.8139 83.8591 48.8139 82.6469C48.8139 81.4348 47.8288 80.4521 46.6136 80.4521C45.3984 80.4521 44.4133 81.4348 44.4133 82.6469C44.4133 83.8591 45.3984 84.8417 46.6136 84.8417Z" fill="#1D1D1B" stroke="#1D1D1B" stroke-width="2" stroke-linecap="round" stroke-linejoin="round"/>
<path d="M24.5933 61.0947C15.5237 61.4848 8.7886 68.1274 8.42675 74.7525C7.99486 82.6468 16.5742 91.3153 27.7565 89.9297C26.5076 84.9929 25.422 79.1886 24.8909 72.6392C24.5524 68.4883 24.4882 64.6169 24.5933 61.0947Z" fill="white" stroke="#1D1D1B" stroke-width="2" stroke-linecap="round" stroke-linejoin="round"/>
<path d="M117.046 77.0928C117.268 77.215 118.902 78.1465 119.24 80.091C119.515 81.6686 118.838 83.2987 117.501 84.3001" stroke="#1D1D1B" stroke-linecap="round" stroke-linejoin="round"/>
<path d="M21.4531 74.0654C21.2547 74.1702 19.8131 74.9969 19.5096 76.7201C19.2645 78.1173 19.8657 79.5611 21.0504 80.446" stroke="#1D1D1B" stroke-linecap="round" stroke-linejoin="round"/>
<path d="M2 115.584C2.24512 107.183 12.2602 101.222 20.6411 101.007C29.6699 100.768 40.2219 107.102 40.4612 115.584C40.7005 124.224 30.1368 131.419 20.7053 131.198C11.84 130.988 1.75488 124.171 2.00584 115.584H2Z" fill="white" stroke="#1D1D1B" stroke-width="2" stroke-linecap="round" stroke-linejoin="round"/>
<path d="M10.988 127.792C10.5269 125.947 10.1184 123.735 9.93163 121.214C9.77405 119.077 9.80907 117.144 9.93163 115.474" stroke="#1D1D1B" stroke-width="2" stroke-linecap="round" stroke-linejoin="round"/>
<path d="M29.9558 129.219C30.4169 127.164 30.8254 124.689 31.0122 121.878C31.1698 119.496 31.1347 117.342 31.0122 115.479" stroke="#1D1D1B" stroke-width="2" stroke-linecap="round" stroke-linejoin="round"/>
<path d="M20.7053 131.198C20.5419 129.562 20.4252 127.81 20.3902 125.958C20.326 122.558 20.5419 119.461 20.8921 116.725" stroke="#1D1D1B" stroke-width="2" stroke-linecap="round" stroke-linejoin="round"/>
<path d="M79 115.584C79.2451 107.183 89.2602 101.222 97.6411 101.007C106.67 100.768 117.222 107.102 117.461 115.584C117.7 124.224 107.137 131.419 97.7053 131.198C88.84 130.988 78.7549 124.171 79.0058 115.584H79Z" fill="white" stroke="#1D1D1B" stroke-width="2" stroke-linecap="round" stroke-linejoin="round"/>
<path d="M87.9936 127.792C87.5325 125.947 87.124 123.735 86.9372 121.214C86.7797 119.077 86.8147 117.144 86.9372 115.474" stroke="#1D1D1B" stroke-width="2" stroke-linecap="round" stroke-linejoin="round"/>
<path d="M106.956 129.213C107.417 127.158 107.825 124.684 108.012 121.872C108.17 119.491 108.135 117.337 108.012 115.474" stroke="#1D1D1B" stroke-width="2" stroke-linecap="round" stroke-linejoin="round"/>
<path d="M97.7054 131.192C97.5419 129.556 97.4252 127.804 97.3902 125.953C97.326 122.553 97.5419 119.455 97.8921 116.719" stroke="#1D1D1B" stroke-width="2" stroke-linecap="round" stroke-linejoin="round"/>
<path d="M62.6808 115.895C63.5801 115.895 64.3091 115.167 64.3091 114.27C64.3091 113.373 63.5801 112.646 62.6808 112.646C61.7815 112.646 61.0525 113.373 61.0525 114.27C61.0525 115.167 61.7815 115.895 62.6808 115.895Z" stroke="#1D1D1B" stroke-width="1.11" stroke-linecap="round" stroke-linejoin="round"/>
</svg>
