<svg width="158" height="172" viewBox="0 0 158 172" fill="none" xmlns="http://www.w3.org/2000/svg">
<g filter="url(#filter0_d_402_287)">
<path d="M155.097 74C146.917 79.0558 137.06 84.4025 125.367 89.4783C99.3514 100.753 74.3619 106.291 55.7461 109.16C56.8301 110.785 58.0009 113.052 58.4778 115.831C59.4462 121.548 56.8735 126.072 55.4137 128.189C56.4544 130.526 57.4227 133.596 57.5673 137.217C57.8419 144.079 55.0235 149.486 53 152.545C65.0251 153.147 78.3943 153.217 92.862 152.355C137.378 149.696 172.629 139.304 196 130.426" fill="white"/>
<path d="M155.097 74C146.917 79.0558 137.06 84.4025 125.367 89.4783C99.3514 100.753 74.3619 106.291 55.7461 109.16C56.8301 110.785 58.0009 113.052 58.4778 115.831C59.4462 121.548 56.8735 126.072 55.4137 128.189C56.4544 130.526 57.4227 133.596 57.5673 137.217C57.8419 144.079 55.0234 149.486 53 152.545C65.0251 153.147 78.3943 153.217 92.862 152.355C137.378 149.696 172.629 139.304 196 130.426" stroke="#1D1D1B" stroke-width="2" stroke-linecap="round" stroke-linejoin="round"/>
<path d="M67.727 130.402L75.9914 127.087C78.9521 125.898 80.4624 122.956 79.3273 120.614L61.4146 83.6626C60.6019 81.9782 58.0372 81.4273 55.6246 82.4017L51.532 84.0472C49.1193 85.0216 47.65 87.1806 48.2229 88.9593L60.8319 128.037C61.6252 130.507 64.7555 131.589 67.7162 130.401L67.727 130.402Z" fill="white" stroke="#1D1D1B" stroke-width="2" stroke-miterlimit="10"/>
<path d="M37.5616 72.0925C14.7447 69.0323 11.2506 22.6201 11.9722 13.3274C12.3406 8.61085 14.3683 6.04206 14.9462 5.35014C17.2422 2.62451 21.0047 0.997973 24.6429 1.22777C26.4787 1.33902 29.327 1.99724 32.8018 5.15071C39.0942 10.8617 70.4406 45.735 56.8692 64.0354C52.6188 69.7642 44.5776 73.0379 37.5712 72.1045L37.5616 72.0925Z" fill="white" stroke="#1D1D1B" stroke-width="2" stroke-miterlimit="10"/>
<path d="M41.7163 55.9328L53.1792 82.8695" stroke="#1D1D1B" stroke-width="2" stroke-miterlimit="10"/>
<path d="M28.3568 159.795C20.0254 156.491 15.6198 150.231 13.5588 147.189C5.84905 135.881 6.90685 123.951 7.2449 120.69C7.60476 117.179 8.84795 106.754 17.1575 98.0188C22.3918 92.5228 28.0732 90.1455 30.1997 89.3494C33.1876 88.2372 39.2289 86.0562 46.6225 87.452C48.28 87.7683 62.2492 90.6253 66.7638 103.297C69.8608 111.977 66.5676 119.796 65.6079 121.868C66.5785 124.976 67.7562 130.21 67.0037 136.589C66.6002 140.003 65.5643 148.694 58.8141 155.117C50.4283 163.088 37.5169 163.437 28.3458 159.806L28.3568 159.795Z" fill="white" stroke="#1D1D1B" stroke-width="2" stroke-linecap="round" stroke-linejoin="round"/>
<path d="M65.6079 121.868C63.3942 121.159 59.523 120.243 54.7139 120.701C49.6868 121.181 45.9355 122.937 43.8745 124.093" stroke="#1D1D1B" stroke-width="3" stroke-linecap="round" stroke-linejoin="round"/>
<path d="M65.8696 101.181C62.6963 100.352 57.6691 99.4691 51.5515 100.145C44.1907 100.963 38.7273 103.678 35.7176 105.467" stroke="#1D1D1B" stroke-width="3" stroke-linecap="round" stroke-linejoin="round"/>
</g>
<defs>
<filter id="filter0_d_402_287" x="1.99976" y="0.206055" width="199" height="170.815" filterUnits="userSpaceOnUse" color-interpolation-filters="sRGB">
<feFlood flood-opacity="0" result="BackgroundImageFix"/>
<feColorMatrix in="SourceAlpha" type="matrix" values="0 0 0 0 0 0 0 0 0 0 0 0 0 0 0 0 0 0 127 0" result="hardAlpha"/>
<feOffset dy="4"/>
<feGaussianBlur stdDeviation="2"/>
<feComposite in2="hardAlpha" operator="out"/>
<feColorMatrix type="matrix" values="0 0 0 0 0 0 0 0 0 0 0 0 0 0 0 0 0 0 0.25 0"/>
<feBlend mode="normal" in2="BackgroundImageFix" result="effect1_dropShadow_402_287"/>
<feBlend mode="normal" in="SourceGraphic" in2="effect1_dropShadow_402_287" result="shape"/>
</filter>
</defs>
</svg>
