<svg width="30" height="30" viewBox="0 0 30 30" fill="none" xmlns="http://www.w3.org/2000/svg">
<path d="M12.9884 0L11.1382 4.40347C10.7681 4.51448 10.4351 4.6995 10.1021 4.88452L5.69861 3.03432L3.03432 5.69861L4.88452 10.1021C4.6995 10.4721 4.55148 10.7681 4.40347 11.1382L0 12.9884V16.6888L4.40347 18.539C4.55148 18.909 4.6995 19.205 4.88452 19.5751L3.03432 23.9785L5.69861 26.6428L10.1021 24.7926C10.4351 24.9406 10.7681 25.1257 11.1382 25.2737L12.9884 29.6772H16.6888L18.539 25.2737C18.872 25.1257 19.242 24.9777 19.5751 24.7926L23.9785 26.6428L26.6428 23.9785L24.7926 19.5751C24.9406 19.242 25.1257 18.872 25.2737 18.539L29.6772 16.6888V12.9884L25.2737 11.1382C25.1627 10.8051 24.9777 10.4351 24.7926 10.1021L26.6428 5.69861L23.9785 3.03432L19.5751 4.88452C19.242 4.7365 18.872 4.55148 18.539 4.40347L16.6888 0L12.9884 0ZM14.8386 9.25098C17.9099 9.25098 20.3892 11.7302 20.3892 14.8016C20.3892 17.8729 17.9099 20.3522 14.8386 20.3522C11.7673 20.3522 9.28799 17.8729 9.28799 14.8016C9.28799 11.7302 11.7673 9.25098 14.8386 9.25098Z" fill="black"/>
</svg>
