<svg width="235" height="285" viewBox="0 0 235 285" fill="none" xmlns="http://www.w3.org/2000/svg">
<path d="M188.797 163.53C205.037 163.24 218.097 176.99 217.227 192.59C216.347 208.3 201.647 220.55 185.457 218.27C186.977 208.38 188.147 197.46 188.657 185.63C188.997 177.86 189.007 170.47 188.797 163.53Z" fill="white" stroke="#1D1D1B" stroke-width="3" stroke-linecap="round" stroke-linejoin="round"/>
<path d="M75.2071 255.27C80.5771 259.25 95.8071 270.55 117.637 270.7C117.637 270.7 140.227 270.86 161.027 255.27C189.727 233.76 200.217 187.71 189.187 138.7H120.077L106.577 106.41C102.617 117.17 98.6471 127.94 94.6871 138.7H43.6271C34.7071 187.99 46.1371 233.72 75.2071 255.27Z" fill="white" stroke="#1D1D1B" stroke-width="3" stroke-linecap="round" stroke-linejoin="round"/>
<path d="M99.637 183.04C99.017 182.04 92.097 171.27 79.017 170.58C69.087 170.06 59.5871 175.56 54.7271 184.65C54.8471 186.11 55.7771 195.4 63.6271 200.92C71.6371 206.55 81.787 204.72 88.257 200.75C97.697 194.97 99.3971 184.62 99.6271 183.04H99.637Z" stroke="#1D1D1B" stroke-width="3" stroke-linecap="round" stroke-linejoin="round"/>
<path d="M137.287 181.84C137.987 180.66 144.367 170.27 156.817 168.97C166.977 167.92 177.057 173.35 182.317 182.77C182.167 184.38 181.067 194.57 173.087 200.77C164.947 207.09 154.797 205.26 148.377 201.04C139.017 194.88 137.497 183.56 137.287 181.84Z" stroke="#1D1D1B" stroke-width="3.15" stroke-linecap="round" stroke-linejoin="round"/>
<path d="M132.815 164.838C129.5 163.188 127.357 159.574 128.697 157.824C130.896 154.956 141.622 158.111 143.396 158.636C144.538 158.971 151.6 161.042 151.714 162.801C151.799 164.072 148.173 164.538 143.943 165.082C138.31 165.808 135.483 166.169 132.815 164.838Z" fill="#1D1D1B" stroke="#1D1D1B" stroke-width="3" stroke-linecap="round" stroke-linejoin="round"/>
<path d="M108.107 210.83C108.567 209.98 111.037 205.59 115.517 204.72C120.537 203.75 124.047 207.96 124.547 208.58" stroke="#1D1D1B" stroke-width="2.55" stroke-linecap="round" stroke-linejoin="round"/>
<path d="M98.9092 158.698C101.782 156.432 103.121 152.521 101.478 151.098C98.7858 148.768 89.0468 153.968 87.4316 154.832C86.4005 155.387 79.9814 158.809 80.2271 160.524C80.4082 161.767 84.0025 161.497 88.1987 161.174C93.7883 160.748 96.5911 160.528 98.9027 158.711L98.9092 158.698Z" fill="#1D1D1B" stroke="#1D1D1B" stroke-width="3" stroke-linecap="round" stroke-linejoin="round"/>
<path d="M149.77 179.54C151.852 179.54 153.54 177.852 153.54 175.77C153.54 173.688 151.852 172 149.77 172C147.688 172 146 173.688 146 175.77C146 177.852 147.688 179.54 149.77 179.54Z" fill="#1D1D1B" stroke="#1D1D1B" stroke-width="3" stroke-linecap="round" stroke-linejoin="round"/>
<path d="M83.77 180.54C85.8521 180.54 87.54 178.852 87.54 176.77C87.54 174.688 85.8521 173 83.77 173C81.6879 173 80 174.688 80 176.77C80 178.852 81.6879 180.54 83.77 180.54Z" fill="#1D1D1B" stroke="#1D1D1B" stroke-width="3" stroke-linecap="round" stroke-linejoin="round"/>
<path d="M41.6672 163.1C26.1272 163.77 14.5872 175.18 13.9672 186.56C13.2272 200.12 27.9272 215.01 47.0872 212.63C44.9472 204.15 43.0872 194.18 42.1772 182.93C41.5972 175.8 41.4872 169.15 41.6672 163.1Z" fill="white" stroke="#1D1D1B" stroke-width="3" stroke-linecap="round" stroke-linejoin="round"/>
<path d="M60.5869 240.54C52.4569 229.84 48.8169 219.29 47.0969 212.63C36.0769 214.97 24.8869 210.45 19.0969 201.42C14.3369 194 13.1869 183.46 18.5969 174.73C23.4269 166.93 32.337 162.44 41.677 163.1C42.327 154.96 42.977 146.83 43.627 138.69C75.077 148.89 88.467 144.98 94.687 138.69C99.777 133.54 101.447 125.36 106.707 125.09C112.317 124.79 115.797 133.8 120.077 138.69C127.437 147.09 144.967 152.21 189.187 138.69C190.457 147.05 191.727 155.41 192.997 163.77C205.187 165.32 214.927 174.67 216.877 186.56C218.937 199.12 211.607 210.26 202.477 215.24C196.107 218.72 189.837 218.66 186.747 218.41C184.767 224.54 181.097 233.31 174.127 242.2C169.637 247.93 164.967 252.19 161.027 255.26C164.297 257.05 184.457 267.66 206.347 259.12C209.437 257.91 221.307 253.11 228.527 241.76C237.817 227.16 232.837 212.08 219.207 163.33C201.967 101.66 200.557 92.3099 187.707 80.3999C182.277 75.3699 166.417 61.1099 142.707 60.4699C126.017 60.0199 113.287 66.5299 107.347 70.1099C100.217 68.3899 85.997 66.0499 70.057 71.3999C65.037 73.0799 51.6869 78.2599 37.5169 95.3899C19.7269 116.9 14.8869 141.54 6.40694 190.33C-0.433058 229.67 1.22692 240.9 7.69692 250.44C18.0069 265.65 35.4669 269.08 37.2669 269.4C59.5069 273.42 75.9069 259.13 77.9669 257.27C73.0669 253.83 66.5969 248.45 60.5769 240.52L60.5869 240.54Z" fill="#1D1D1B" stroke="#1D1D1B" stroke-width="3" stroke-linecap="round" stroke-linejoin="round"/>
<path d="M200.087 190.58C200.467 190.79 203.267 192.39 203.847 195.73C204.317 198.44 203.157 201.24 200.867 202.96" stroke="#1D1D1B" stroke-width="2.6" stroke-linecap="round" stroke-linejoin="round"/>
<path d="M36.2869 185.39C35.9469 185.57 33.4769 186.99 32.9569 189.95C32.5369 192.35 33.5669 194.83 35.5969 196.35" stroke="#1D1D1B" stroke-width="2.3" stroke-linecap="round" stroke-linejoin="round"/>
<path d="M21.7969 255.9C22.2169 241.47 39.3769 231.23 53.7369 230.86C69.2069 230.45 87.2868 241.33 87.6968 255.9C88.1068 270.74 70.0069 283.1 53.8469 282.72C38.6569 282.36 21.3769 270.65 21.8069 255.9H21.7969Z" fill="white" stroke="#1D1D1B" stroke-width="3" stroke-linecap="round" stroke-linejoin="round"/>
<path d="M37.1967 276.87C36.4067 273.7 35.7068 269.9 35.3868 265.57C35.1168 261.9 35.1768 258.58 35.3868 255.71" stroke="#1D1D1B" stroke-width="3" stroke-linecap="round" stroke-linejoin="round"/>
<path d="M69.687 279.31C70.477 275.78 71.177 271.53 71.497 266.7C71.767 262.61 71.707 258.91 71.497 255.71" stroke="#1D1D1B" stroke-width="3.17" stroke-linecap="round" stroke-linejoin="round"/>
<path d="M53.8366 282.71C53.5566 279.9 53.3566 276.89 53.2966 273.71C53.1866 267.87 53.5566 262.55 54.1566 257.85" stroke="#1D1D1B" stroke-width="3" stroke-linecap="round" stroke-linejoin="round"/>
<path d="M154.087 265.03C153.297 261.86 152.597 258.06 152.277 253.73C152.007 250.06 152.067 246.74 152.277 243.87" stroke="#1D1D1B" stroke-width="3" stroke-linecap="round" stroke-linejoin="round"/>
<path d="M186.577 267.47C187.367 263.94 188.067 259.69 188.387 254.86C188.657 250.77 188.597 247.07 188.387 243.87" stroke="#1D1D1B" stroke-width="3.17" stroke-linecap="round" stroke-linejoin="round"/>
<path d="M170.727 270.87C170.447 268.06 170.247 265.05 170.187 261.87C170.077 256.03 170.447 250.71 171.047 246.01" stroke="#1D1D1B" stroke-width="3" stroke-linecap="round" stroke-linejoin="round"/>
<path d="M114.857 244.94C116.398 244.94 117.647 243.691 117.647 242.15C117.647 240.609 116.398 239.36 114.857 239.36C113.316 239.36 112.067 240.609 112.067 242.15C112.067 243.691 113.316 244.94 114.857 244.94Z" stroke="#1D1D1B" stroke-width="1.11" stroke-linecap="round" stroke-linejoin="round"/>
<path d="M106.337 70.8398C105.647 66.3698 105.157 59.9498 106.337 52.3998C107.767 43.2198 111.047 36.2298 113.507 31.9198" stroke="#1D1D1B" stroke-width="4.78" stroke-linecap="round" stroke-linejoin="round"/>
<path d="M111.127 36.0898C114.617 33.4498 111.387 23.9998 110.747 22.1198C107.177 11.6698 97.5569 1.27983 92.6269 3.23983C88.2969 4.95983 87.1968 16.3798 91.3268 24.4698C95.9268 33.4998 107.327 38.9598 111.127 36.0898Z" fill="white" stroke="#1D1D1B" stroke-width="4.78" stroke-linecap="round" stroke-linejoin="round"/>
<path d="M111.127 36.0898C107.937 32.8498 103.987 28.1998 100.417 22.0198C96.8667 15.8698 94.8267 10.1598 93.6167 5.77979" stroke="#1D1D1B" stroke-width="3.52" stroke-linecap="round" stroke-linejoin="round"/>
<path d="M113.627 33.4898C112.647 30.6198 118.157 26.4598 119.247 25.6298C125.337 21.0298 134.867 18.7998 136.937 21.8298C138.747 24.4898 134.967 31.4598 129.467 34.4998C123.337 37.8898 114.697 36.6098 113.627 33.4898Z" fill="white" stroke="#1D1D1B" stroke-width="3.3" stroke-linecap="round" stroke-linejoin="round"/>
<path d="M113.627 33.4898C116.717 32.8698 120.767 31.7298 125.207 29.5698C129.617 27.4198 132.997 24.9398 135.387 22.8998" stroke="#1D1D1B" stroke-width="2.44" stroke-linecap="round" stroke-linejoin="round"/>
</svg>
