<svg width="353" height="466" viewBox="0 0 353 466" fill="none" xmlns="http://www.w3.org/2000/svg">
<path d="M76.7856 452.212C71.2827 453.287 61.6452 454.434 50.3745 451.536C46.5784 450.565 27.2594 445.591 16.9157 428.376C3.48212 406.026 15.2678 379.792 18.4753 372.641C27.2888 353.013 41.8847 342.772 57.2458 332.296C71.3121 322.703 96.3548 308.489 132.727 301.971C143.483 306.886 152.914 308.74 159.314 309.519C167.422 310.505 189.507 312.889 210.371 300.014C216.462 296.262 220.862 292.172 223.701 289.215C243.05 295.218 258.529 301.515 269.343 306.297C292.738 316.641 306.907 323.041 321.812 336.622C330.846 344.847 340.852 353.955 346.722 369.669C349.253 376.452 357.816 399.273 345.589 419.386C336.128 434.953 319.693 439.882 314.97 441.31C302.508 445.047 291.752 443.693 286.117 442.575C282.998 445.974 278.01 450.314 270.874 452.948C249.951 460.658 230.205 446.283 228.189 444.767C205.78 445.062 183.357 445.371 160.948 445.665C158.711 447.828 154.842 451.006 149.25 453.257C142.394 456.023 136.302 456.023 132.992 455.788C129.725 458.392 121.706 464.013 110.171 464.91C91.514 466.352 78.8161 454.228 76.8003 452.227L76.7856 452.212Z" fill="white"/>
<path d="M155.401 312.212C155.048 323.851 163.125 333.105 171.88 334.121C182.209 335.312 193.936 325.086 193.112 310.932" stroke="#1D1D1B" stroke-width="3" stroke-linecap="round" stroke-linejoin="round"/>
<path d="M221.583 290.347C227.336 291.583 338.439 316.729 349.798 379.939C350.989 386.604 354.8 407.806 341.837 424.359C323.902 447.239 288.751 442.266 286.102 441.854C288.942 437.528 294.224 428.038 293.753 415.619C293.106 398.36 281.6 382.499 264.238 374.083C261.207 372.611 238.93 362.15 217.242 374.083C214.211 375.76 194.127 387.251 193.2 409.057C192.641 422.241 199.38 431.952 201.94 435.292C202.396 430.892 203.647 424.109 207.399 416.708C211.916 407.806 217.919 402.171 221.612 399.214" stroke="#1D1D1B" stroke-width="3" stroke-linecap="round" stroke-linejoin="round"/>
<path d="M201.925 435.292C203.823 437.307 208.355 441.545 215.594 443.487C220.979 444.929 225.555 444.488 228.16 444.031C228.38 441.089 229.042 437.028 230.896 432.555C233.898 425.301 238.533 420.696 241.284 418.341" stroke="#1D1D1B" stroke-width="3" stroke-linecap="round" stroke-linejoin="round"/>
<path d="M228.16 444.031C229.94 445.532 232.691 447.607 236.355 449.49C239.769 451.256 252.452 457.553 267.504 453.316C276.877 450.682 283.027 445.12 286.087 441.839" stroke="#1D1D1B" stroke-width="3" stroke-linecap="round" stroke-linejoin="round"/>
<path d="M132.727 301.971C127.813 303.03 24.9493 326.366 13.0607 388.134C11.7512 394.917 7.52832 416.899 21.0207 433.997C39.3098 457.171 74.5785 451.844 76.7561 451.491C73.9164 447.165 68.6341 437.675 69.105 425.257C69.7524 407.998 81.2585 392.136 98.6206 383.72C101.652 382.249 123.928 371.787 145.616 383.72C148.647 385.397 168.731 396.889 169.658 418.694C170.217 431.878 163.478 441.589 160.918 444.929C160.462 440.53 159.211 433.747 155.459 426.346C150.942 417.444 144.939 411.808 141.246 408.851" stroke="#1D1D1B" stroke-width="3" stroke-linecap="round" stroke-linejoin="round"/>
<path d="M160.918 444.929C159.02 446.945 154.488 451.182 147.249 453.124C141.864 454.566 137.288 454.125 134.684 453.669C134.463 450.726 133.801 446.665 131.947 442.192C128.945 434.938 124.311 430.333 121.559 427.979" stroke="#1D1D1B" stroke-width="3" stroke-linecap="round" stroke-linejoin="round"/>
<path d="M134.684 453.684C132.903 455.185 130.152 457.259 126.488 459.143C123.075 460.908 110.391 467.206 95.3393 462.968C85.9667 460.334 79.8164 454.773 76.756 451.491" stroke="#1D1D1B" stroke-width="3" stroke-linecap="round" stroke-linejoin="round"/>
<path d="M106.831 380.571C98.3998 383.602 85.9521 386.707 71.0766 385.618C66.4712 385.28 62.2484 384.588 58.467 383.72" stroke="#1D1D1B" stroke-width="3" stroke-linecap="round" stroke-linejoin="round"/>
<path d="M257.278 371.449C265.709 374.48 278.157 377.585 293.032 376.496C297.637 376.157 301.86 375.466 305.642 374.598" stroke="#1D1D1B" stroke-width="3" stroke-linecap="round" stroke-linejoin="round"/>
<path d="M228.91 444.649C206.251 444.738 183.577 444.841 160.918 444.929" stroke="#1D1D1B" stroke-width="3" stroke-linecap="round" stroke-linejoin="round"/>
<path d="M275.847 152.672C299.742 152.245 318.958 172.476 317.678 195.429C316.383 218.545 294.754 236.569 270.932 233.214C273.169 218.662 274.89 202.595 275.641 185.189C276.141 173.756 276.156 162.883 275.847 152.672Z" fill="white" stroke="#1D1D1B" stroke-width="3" stroke-linecap="round" stroke-linejoin="round"/>
<path d="M108.714 287.655C116.616 293.511 139.024 310.137 171.144 310.358C171.144 310.358 204.383 310.593 234.987 287.655C277.215 256.006 292.65 188.249 276.421 116.138H174.735L154.871 68.6272C149.044 84.4591 143.203 100.306 137.377 116.138H62.2486C49.124 188.661 65.9417 255.947 108.714 287.655Z" fill="white" stroke="#1D1D1B" stroke-width="3" stroke-linecap="round" stroke-linejoin="round"/>
<path d="M144.66 181.378C139.407 178.494 128.916 173.653 114.909 173.374C96.7814 173.006 83.6421 180.495 78.5953 183.747C78.7719 185.895 80.1403 199.564 91.6905 207.686C103.476 215.97 118.411 213.277 127.93 207.436C141.82 198.931 144.321 183.703 144.66 181.378Z" stroke="#1D1D1B" stroke-width="3" stroke-linecap="round" stroke-linejoin="round"/>
<path d="M200.057 179.612C205.383 176.346 216.006 170.858 230.058 170.298C248.244 169.563 261.295 177.523 266.312 180.995C266.091 183.364 264.473 198.357 252.732 207.48C240.755 216.779 225.82 214.086 216.374 207.877C202.602 198.814 200.366 182.158 200.057 179.627V179.612Z" stroke="#1D1D1B" stroke-width="3" stroke-linecap="round" stroke-linejoin="round"/>
<path d="M193.524 164.354C188.168 163.354 183.68 159.102 184.872 156.085C186.829 151.141 203.279 151.289 206.001 151.318C207.752 151.333 218.581 151.421 219.449 153.864C220.082 155.629 215.138 157.748 209.37 160.22C201.69 163.516 197.835 165.164 193.524 164.354Z" fill="#1D1D1B" stroke="#1D1D1B" stroke-width="3" stroke-linecap="round" stroke-linejoin="round"/>
<path d="M157.122 222.267C157.799 221.017 161.433 214.557 168.025 213.277C175.411 211.85 180.576 218.044 181.311 218.957" stroke="#1D1D1B" stroke-width="3" stroke-linecap="round" stroke-linejoin="round"/>
<path d="M142.114 243.955C139.922 263.701 152.561 280.945 168.555 281.578C183.769 282.181 197.658 267.615 198.762 248.766C191.14 250.105 181.356 251.018 170.1 250.047C158.858 249.09 149.398 246.545 142.129 243.94L142.114 243.955Z" stroke="#1D1D1B" stroke-width="3" stroke-linecap="round" stroke-linejoin="round"/>
<path d="M111.628 241.807C116.154 241.807 119.823 238.138 119.823 233.611C119.823 229.085 116.154 225.416 111.628 225.416C107.101 225.416 103.432 229.085 103.432 233.611C103.432 238.138 107.101 241.807 111.628 241.807Z" stroke="#1D1D1B" stroke-width="3" stroke-linecap="round" stroke-linejoin="round"/>
<path d="M140.54 164.178C145.837 163.192 150.251 158.999 149.074 156.012C147.146 151.141 130.902 151.274 128.224 151.303C126.503 151.318 115.806 151.406 114.953 153.819C114.335 155.57 119.205 157.66 124.899 160.102C132.477 163.354 136.273 164.987 140.54 164.178Z" fill="#1D1D1B" stroke="#1D1D1B" stroke-width="3" stroke-linecap="round" stroke-linejoin="round"/>
<path d="M233.353 242.66C238.058 242.66 241.873 238.846 241.873 234.141C241.873 229.436 238.058 225.622 233.353 225.622C228.648 225.622 224.834 229.436 224.834 234.141C224.834 238.846 228.648 242.66 233.353 242.66Z" stroke="#1D1D1B" stroke-width="3" stroke-linecap="round" stroke-linejoin="round"/>
<path d="M157.181 246.81L155.386 274.251" stroke="#1D1D1B" stroke-width="3" stroke-linecap="round" stroke-linejoin="round"/>
<path d="M170.791 253.357L169.055 279.827" stroke="#1D1D1B" stroke-width="3" stroke-linecap="round" stroke-linejoin="round"/>
<path d="M187.373 251.562L185.814 275.413" stroke="#1D1D1B" stroke-width="3" stroke-linecap="round" stroke-linejoin="round"/>
<path d="M227.821 184.468C230.885 184.468 233.368 181.984 233.368 178.921C233.368 175.857 230.885 173.374 227.821 173.374C224.758 173.374 222.274 175.857 222.274 178.921C222.274 181.984 224.758 184.468 227.821 184.468Z" fill="#1D1D1B" stroke="#1D1D1B" stroke-width="3" stroke-linecap="round" stroke-linejoin="round"/>
<path d="M121.236 185.498C124.299 185.498 126.783 183.014 126.783 179.951C126.783 176.887 124.299 174.404 121.236 174.404C118.172 174.404 115.689 176.887 115.689 179.951C115.689 183.014 118.172 185.498 121.236 185.498Z" fill="#1D1D1B" stroke="#1D1D1B" stroke-width="3" stroke-linecap="round" stroke-linejoin="round"/>
<path d="M59.3646 152.039C36.4996 153.025 19.52 169.813 18.6078 186.557C17.519 206.509 39.1481 228.418 67.3395 224.916C64.1908 212.439 61.454 197.769 60.115 181.216C59.2617 170.725 59.0998 160.941 59.3646 152.039Z" fill="white" stroke="#1D1D1B" stroke-width="3" stroke-linecap="round" stroke-linejoin="round"/>
<path d="M87.2029 265.981C75.2407 250.238 69.8848 234.715 67.3541 224.916C51.1396 228.359 34.675 221.708 26.1558 208.422C19.1521 197.504 17.4601 181.996 25.4201 169.151C32.5268 157.674 45.6367 151.068 59.3793 152.039C60.3357 140.062 61.2921 128.1 62.2485 116.123C108.523 131.131 128.225 125.378 137.376 116.123C144.866 108.545 147.323 96.5095 155.062 96.1123C163.317 95.6709 168.437 108.928 174.734 116.123C185.564 128.482 211.357 136.016 276.42 116.123C278.289 128.423 280.158 140.724 282.026 153.025C299.962 155.305 314.293 169.063 317.163 186.557C320.194 205.037 309.408 221.429 295.975 228.756C286.602 233.876 277.377 233.788 272.83 233.42C269.917 242.44 264.517 255.344 254.262 268.424C247.655 276.855 240.784 283.123 234.987 287.64C239.798 290.274 269.461 305.885 301.669 293.319C306.216 291.539 323.681 284.477 334.304 267.777C347.973 246.295 340.646 224.106 320.591 152.377C295.224 61.6382 293.15 47.8809 274.243 30.3569C266.253 22.956 242.918 1.97429 208.031 1.03262C183.474 0.370502 164.744 9.94909 156.004 15.2166C145.513 12.6858 124.59 9.24283 101.137 17.1146C93.7504 19.5865 74.1077 27.2082 53.2585 52.4127C27.0828 84.0618 19.9614 120.316 7.48419 192.104C-2.57996 249.988 -0.137431 266.511 9.38231 280.548C24.5521 302.927 50.2422 307.974 52.8906 308.445C85.6138 314.36 109.744 293.334 112.775 290.597C105.565 285.536 96.0458 277.62 87.1881 265.952L87.2029 265.981Z" fill="#1D1D1B" stroke="#1D1D1B" stroke-width="2" stroke-linecap="round" stroke-linejoin="round"/>
<path d="M292.458 192.472C293.017 192.781 297.137 195.135 297.991 200.05C298.682 204.037 296.975 208.157 293.606 210.688" stroke="#1D1D1B" stroke-width="3" stroke-linecap="round" stroke-linejoin="round"/>
<path d="M51.4488 184.836C50.9485 185.1 47.3143 187.19 46.5492 191.545C45.9312 195.076 47.4466 198.725 50.4335 200.962" stroke="#1D1D1B" stroke-width="3" stroke-linecap="round" stroke-linejoin="round"/>
</svg>
