<svg width="137" height="180" viewBox="0 0 137 180" fill="none" xmlns="http://www.w3.org/2000/svg">
<path d="M31.1223 173.288C29.0318 173.695 25.3706 174.131 21.0891 173.031C19.647 172.662 12.3079 170.774 8.37844 164.239C3.27519 155.754 7.75241 145.795 8.97093 143.081C12.3191 135.63 17.8639 131.742 23.6994 127.765C29.043 124.124 38.5564 118.728 52.3737 116.254C56.4597 118.119 60.0426 118.823 62.474 119.119C65.5539 119.493 73.9438 120.398 81.8697 115.511C84.1838 114.086 85.8551 112.534 86.9339 111.411C94.2841 113.69 100.164 116.08 104.273 117.896C113.16 121.822 118.543 124.252 124.205 129.408C127.637 132.53 131.438 135.987 133.668 141.953C134.629 144.528 137.883 153.191 133.238 160.826C129.644 166.736 123.4 168.607 121.606 169.149C116.871 170.567 112.785 170.053 110.645 169.629C109.46 170.919 107.565 172.567 104.854 173.567C96.9056 176.494 89.4044 171.037 88.6387 170.461C80.1258 170.573 71.6074 170.69 63.0945 170.802C62.2449 171.623 60.7748 172.83 58.6508 173.684C56.0461 174.734 53.732 174.734 52.4744 174.645C51.2335 175.633 48.1872 177.767 43.805 178.108C36.7174 178.655 31.8937 174.053 31.1279 173.293L31.1223 173.288Z" fill="white"/>
<path d="M60.9867 120.141C60.8525 124.559 63.9212 128.072 67.247 128.458C71.1708 128.91 75.6257 125.028 75.3127 119.655" stroke="#1D1D1B" stroke-width="3" stroke-linecap="round" stroke-linejoin="round"/>
<path d="M86.1287 111.841C88.3142 112.31 130.521 121.856 134.836 145.851C135.289 148.382 136.736 156.43 131.812 162.714C124.998 171.4 111.645 169.512 110.639 169.355C111.718 167.713 113.724 164.111 113.545 159.396C113.299 152.845 108.928 146.823 102.333 143.628C101.181 143.07 92.7187 139.099 84.4797 143.628C83.3283 144.265 75.6986 148.627 75.3464 156.905C75.134 161.91 77.6941 165.596 78.6666 166.864C78.8399 165.194 79.315 162.619 80.7403 159.81C82.4563 156.43 84.7369 154.291 86.1399 153.168" stroke="#1D1D1B" stroke-width="3" stroke-linecap="round" stroke-linejoin="round"/>
<path d="M78.6611 166.864C79.3822 167.629 81.1038 169.238 83.8538 169.975C85.8996 170.523 87.6379 170.355 88.6273 170.182C88.7111 169.065 88.9627 167.523 89.6669 165.825C90.8072 163.072 92.5679 161.323 93.6132 160.43" stroke="#1D1D1B" stroke-width="3" stroke-linecap="round" stroke-linejoin="round"/>
<path d="M88.627 170.182C89.3033 170.752 90.3485 171.539 91.7403 172.254C93.0371 172.924 97.8553 175.315 103.573 173.706C107.134 172.707 109.47 170.595 110.633 169.35" stroke="#1D1D1B" stroke-width="3" stroke-linecap="round" stroke-linejoin="round"/>
<path d="M52.3736 116.254C50.5067 116.656 11.4302 125.514 6.91383 148.963C6.41637 151.538 4.81215 159.882 9.93776 166.373C16.8856 175.17 30.2837 173.148 31.111 173.014C30.0322 171.372 28.0255 167.769 28.2044 163.055C28.4503 156.503 32.8213 150.482 39.417 147.287C40.5685 146.728 49.031 142.757 57.27 147.287C58.4215 147.924 66.0512 152.286 66.4033 160.564C66.6157 165.568 64.0557 169.255 63.0832 170.523C62.9099 168.853 62.4348 166.278 61.0094 163.468C59.2934 160.089 57.0129 157.95 55.6099 156.827" stroke="#1D1D1B" stroke-width="3" stroke-linecap="round" stroke-linejoin="round"/>
<path d="M63.0829 170.523C62.3618 171.288 60.6402 172.897 57.8902 173.634C55.8444 174.181 54.1061 174.014 53.1167 173.841C53.0329 172.723 52.7814 171.182 52.0771 169.484C50.9368 166.73 49.1761 164.982 48.1309 164.088" stroke="#1D1D1B" stroke-width="3" stroke-linecap="round" stroke-linejoin="round"/>
<path d="M53.1174 173.841C52.441 174.41 51.3958 175.198 50.004 175.913C48.7072 176.583 43.889 178.974 38.1709 177.365C34.6104 176.365 32.274 174.254 31.1113 173.008" stroke="#1D1D1B" stroke-width="3" stroke-linecap="round" stroke-linejoin="round"/>
<path d="M42.5349 146.092C39.3321 147.242 34.6034 148.421 28.9524 148.008C27.2028 147.879 25.5986 147.617 24.1621 147.287" stroke="#1D1D1B" stroke-width="3" stroke-linecap="round" stroke-linejoin="round"/>
<path d="M99.6895 142.629C102.892 143.779 107.621 144.958 113.272 144.545C115.022 144.416 116.626 144.154 118.062 143.824" stroke="#1D1D1B" stroke-width="3" stroke-linecap="round" stroke-linejoin="round"/>
<path d="M88.9123 170.417C80.3044 170.45 71.6909 170.489 63.083 170.523" stroke="#1D1D1B" stroke-width="3" stroke-linecap="round" stroke-linejoin="round"/>
<path d="M106.743 59.5767C115.82 59.4148 123.12 67.0949 122.634 75.8083C122.142 84.5832 113.925 91.4255 104.876 90.152C105.726 84.6279 106.38 78.5285 106.665 71.9208C106.855 67.5808 106.86 63.4531 106.743 59.5767Z" fill="white" stroke="#1D1D1B" stroke-width="3" stroke-linecap="round" stroke-linejoin="round"/>
<path d="M43.2457 110.819C46.2472 113.042 54.7601 119.353 66.9621 119.437C66.9621 119.437 79.5889 119.527 91.2151 110.819C107.257 98.8042 113.121 73.0828 106.955 45.7081H68.3259L60.7801 27.6724C58.5666 33.6824 56.3475 39.698 54.1341 45.7081H25.5939C20.608 73.2392 26.9969 98.7819 43.2457 110.819Z" fill="white" stroke="#1D1D1B" stroke-width="3" stroke-linecap="round" stroke-linejoin="round"/>
<path d="M56.9076 70.4742C54.9121 69.3794 50.9268 67.5418 45.6055 67.4356C38.7192 67.296 33.7278 70.139 31.8105 71.3734C31.8776 72.1889 32.3975 77.3779 36.7853 80.4611C41.2625 83.6058 46.9359 82.5836 50.5523 80.3662C55.8288 77.1377 56.7791 71.3567 56.9076 70.4742Z" stroke="#1D1D1B" stroke-width="3" stroke-linecap="round" stroke-linejoin="round"/>
<path d="M77.9473 69.804C79.9707 68.564 84.0063 66.4806 89.3444 66.2684C96.253 65.9891 101.211 69.0109 103.117 70.329C103.033 71.2283 102.418 76.92 97.9579 80.383C93.408 83.9131 87.7346 82.8909 84.1461 80.5338C78.9143 77.0931 78.0646 70.7703 77.9473 69.8096V69.804Z" stroke="#1D1D1B" stroke-width="3.15" stroke-linecap="round" stroke-linejoin="round"/>
<path d="M75.4705 64.012C73.4359 63.6322 71.7311 62.018 72.1839 60.873C72.9273 58.9962 79.1764 59.0521 80.2105 59.0633C80.8756 59.0688 84.9895 59.1024 85.3193 60.0295C85.5597 60.6998 83.6816 61.5041 81.4905 62.4425C78.5727 63.6937 77.1083 64.3192 75.4705 64.012Z" fill="#1D1D1B" stroke="#1D1D1B" stroke-width="3" stroke-linecap="round" stroke-linejoin="round"/>
<path d="M61.6396 85.9964C61.8968 85.5216 63.2774 83.0696 65.7815 82.5836C68.5875 82.0418 70.5494 84.3933 70.8289 84.7396" stroke="#1D1D1B" stroke-width="2.55" stroke-linecap="round" stroke-linejoin="round"/>
<path d="M44.3585 93.4142C46.078 93.4142 47.4719 92.0213 47.4719 90.303C47.4719 88.5848 46.078 87.1919 44.3585 87.1919C42.639 87.1919 41.2451 88.5848 41.2451 90.303C41.2451 92.0213 42.639 93.4142 44.3585 93.4142Z" stroke="#1D1D1B" stroke-width="2.22" stroke-linecap="round" stroke-linejoin="round"/>
<path d="M55.3361 63.9446C57.3483 63.5704 59.0252 61.9785 58.578 60.8447C57.8458 58.9958 51.6749 59.0461 50.6576 59.0573C50.0037 59.0629 45.9401 59.0964 45.6159 60.0124C45.3811 60.6771 47.2312 61.4702 49.3944 62.3974C52.273 63.6318 53.7151 64.2518 55.3361 63.9446Z" fill="#1D1D1B" stroke="#1D1D1B" stroke-width="3" stroke-linecap="round" stroke-linejoin="round"/>
<path d="M90.6006 93.7327C92.388 93.7327 93.837 92.2848 93.837 90.4987C93.837 88.7126 92.388 87.2646 90.6006 87.2646C88.8132 87.2646 87.3643 88.7126 87.3643 90.4987C87.3643 92.2848 88.8132 93.7327 90.6006 93.7327Z" stroke="#1D1D1B" stroke-width="2.3" stroke-linecap="round" stroke-linejoin="round"/>
<path d="M89.035 82.1202C90.1988 82.1202 91.1423 81.1774 91.1423 80.0145C91.1423 78.8515 90.1988 77.9087 89.035 77.9087C87.8712 77.9087 86.9277 78.8515 86.9277 80.0145C86.9277 81.1774 87.8712 82.1202 89.035 82.1202Z" fill="#1D1D1B" stroke="#1D1D1B" stroke-width="3" stroke-linecap="round" stroke-linejoin="round"/>
<path d="M48.908 80.2491C50.0719 80.2491 51.0153 79.3063 51.0153 78.1434C51.0153 76.9804 50.0719 76.0376 48.908 76.0376C47.7442 76.0376 46.8008 76.9804 46.8008 78.1434C46.8008 79.3063 47.7442 80.2491 48.908 80.2491Z" fill="#1D1D1B" stroke="#1D1D1B" stroke-width="3" stroke-linecap="round" stroke-linejoin="round"/>
<path d="M24.5039 59.3367C15.8177 59.7109 9.36736 66.084 9.02081 72.4403C8.60719 80.0143 16.8238 88.3312 27.5334 87.0019C26.3372 82.2653 25.2976 76.6965 24.7889 70.4128C24.4647 66.4303 24.4032 62.7159 24.5039 59.3367Z" fill="white" stroke="#1D1D1B" stroke-width="3" stroke-linecap="round" stroke-linejoin="round"/>
<path d="M35.0736 102.591C30.5293 96.6147 28.4947 90.722 27.5333 87.002C21.3736 88.309 15.1189 85.7843 11.8826 80.7406C9.22195 76.5961 8.57915 70.709 11.6031 65.8328C14.3028 61.4761 19.2831 58.9681 24.5038 59.3368C24.8671 54.7902 25.2304 50.2491 25.5937 45.7025C43.1728 51.3997 50.6572 49.2158 54.1339 45.7025C56.979 42.8259 57.9125 38.257 60.8526 38.1061C63.9883 37.9386 65.9335 42.9712 68.3258 45.7025C72.4397 50.3943 82.2382 53.2541 106.955 45.7025C107.665 50.372 108.375 55.0415 109.085 59.711C115.898 60.5768 121.343 65.7993 122.433 72.4405C123.584 79.4559 119.487 85.6782 114.384 88.4598C110.823 90.4036 107.318 90.3701 105.591 90.2304C104.485 93.6544 102.433 98.5529 98.5373 103.518C96.0276 106.719 93.4173 109.098 91.215 110.813C93.0428 111.813 104.311 117.739 116.547 112.969C118.274 112.293 124.909 109.612 128.944 103.273C134.137 95.1178 131.353 86.6948 123.735 59.4653C114.099 25.0192 113.31 19.7967 106.128 13.1444C103.093 10.3348 94.2277 2.36986 80.9749 2.01238C71.646 1.76103 64.5305 5.39722 61.2103 7.39684C57.2249 6.43613 49.2766 5.12911 40.3669 8.11737C37.5609 9.05575 30.0989 11.9491 22.1785 21.5171C12.2347 33.5316 9.52937 47.2944 4.78944 74.5462C0.966189 96.5198 1.89408 102.792 5.51051 108.121C11.2733 116.617 21.0327 118.532 22.0388 118.711C34.4699 120.956 43.6368 112.975 44.7882 111.936C42.0494 110.014 38.4329 107.009 35.068 102.58L35.0736 102.591Z" fill="#1D1D1B" stroke="#1D1D1B" stroke-width="3" stroke-linecap="round" stroke-linejoin="round"/>
<path d="M113.048 74.6858C113.26 74.8031 114.825 75.6968 115.15 77.5623C115.412 79.076 114.764 80.64 113.484 81.6007" stroke="#1D1D1B" stroke-width="2.6" stroke-linecap="round" stroke-linejoin="round"/>
<path d="M21.4971 71.7869C21.307 71.8874 19.9264 72.6806 19.6358 74.3339C19.401 75.6744 19.9767 77.0596 21.1114 77.9086" stroke="#1D1D1B" stroke-width="2.3" stroke-linecap="round" stroke-linejoin="round"/>
<path d="M75.5296 105.049C76.8786 105.049 77.9722 103.956 77.9722 102.608C77.9722 101.26 76.8786 100.167 75.5296 100.167C74.1805 100.167 73.0869 101.26 73.0869 102.608C73.0869 103.956 74.1805 105.049 75.5296 105.049Z" stroke="#1D1D1B" stroke-width="1.74" stroke-linecap="round" stroke-linejoin="round"/>
<path d="M94.3949 162.904C93.495 162.904 92.6677 162.334 92.3379 161.491L75.4855 118.113C75.3737 117.829 75.3234 117.527 75.3345 117.22L75.8655 104.094C75.9159 102.91 76.8772 101.982 78.0566 101.982C78.6044 101.982 79.1354 102.195 79.5435 102.574L89.3978 111.701C89.6438 111.93 89.8394 112.215 89.9568 112.528L106.798 155.877C107.24 157.011 106.681 158.296 105.552 158.732L95.1774 162.759C94.9259 162.859 94.6576 162.904 94.3893 162.904H94.3949Z" fill="white"/>
<path d="M78.0562 102.826C78.3748 102.826 78.699 102.938 78.9673 103.189C82.254 106.233 85.535 109.277 88.8217 112.316C88.9726 112.455 89.0956 112.634 89.1682 112.83L106.01 156.179C106.283 156.883 105.942 157.67 105.249 157.939L94.8752 161.966C94.7187 162.027 94.551 162.055 94.3945 162.055C93.8523 162.055 93.338 161.72 93.1256 161.178L76.2731 117.801C76.2061 117.622 76.1725 117.432 76.1781 117.248C76.357 112.874 76.5303 108.495 76.7091 104.122C76.7427 103.334 77.3799 102.826 78.0562 102.826ZM78.0562 101.139C76.4185 101.139 75.0882 102.424 75.0211 104.06L74.7584 110.623L74.4957 117.186C74.4789 117.611 74.546 118.024 74.7025 118.421L91.555 161.798C92.0077 162.966 93.1536 163.753 94.4 163.753C94.7745 163.753 95.1434 163.686 95.4956 163.546L105.87 159.519C107.435 158.91 108.206 157.14 107.597 155.57L90.7557 112.221C90.588 111.791 90.3197 111.394 89.9787 111.081L80.1243 101.955C79.5542 101.43 78.822 101.139 78.0618 101.139H78.0562Z" fill="#1D1D1B"/>
<path d="M89.8857 112.78C89.6677 113.36 88.2032 117.08 84.0502 118.706C79.8636 120.348 76.2304 118.572 75.6826 118.292" fill="white"/>
<path d="M89.8857 112.78C89.6677 113.36 88.2032 117.08 84.0502 118.706C79.8636 120.348 76.2304 118.572 75.6826 118.292" stroke="#1D1D1B" stroke-width="3" stroke-linecap="round" stroke-linejoin="round"/>
<path d="M76.979 102.608C77.4485 102.653 77.9739 102.753 78.5385 102.954C80.7911 103.759 82.0934 105.613 82.6021 106.434C82.1941 106.993 81.1768 108.216 79.4049 108.847C78.0243 109.339 76.8001 109.261 76.135 109.16C75.8835 108.227 75.481 106.244 76.2188 104.144C76.4312 103.53 76.7051 103.016 76.979 102.603V102.608Z" fill="black"/>
<path d="M100.567 153.258L89.0693 123.04" stroke="#1D1D1B" stroke-width="1.41" stroke-miterlimit="10"/>
<path d="M94.943 155.392L83.4453 125.174" stroke="#1D1D1B" stroke-width="1.41" stroke-miterlimit="10"/>
<path d="M109.626 114.751C109.861 113.634 110.09 112.517 110.325 111.394C105.764 111.757 97.4692 113.025 88.593 118.114C80.3764 122.822 75.3067 128.726 72.6461 132.329C70.237 129.045 64.8989 122.699 55.7656 118.466C44.4412 113.21 34.095 114.349 30.1152 114.997C30.2717 116.053 30.4282 117.108 30.5847 118.164C44.6033 122.884 58.6275 127.609 72.6461 132.329C84.971 126.47 97.3016 120.61 109.626 114.746V114.751Z" fill="white"/>
<path d="M72.6461 132.329C75.3067 128.726 80.3764 122.822 88.593 118.114C97.4692 113.025 105.764 111.757 110.325 111.394C110.09 112.517 109.861 113.634 109.626 114.751V114.746C97.3015 120.61 84.971 126.47 72.6461 132.329ZM72.6461 132.329C70.237 129.045 64.8989 122.699 55.7656 118.466C44.4412 113.21 34.095 114.349 30.1152 114.997C30.2717 116.053 30.4282 117.108 30.5847 118.164C44.6033 122.884 58.6275 127.609 72.6461 132.329Z" stroke="#1D1D1B" stroke-width="3.48" stroke-miterlimit="10"/>
<path d="M64.0612 170.517C71.2494 170.668 81.7354 170.014 93.5908 166.082C101.645 163.407 108.129 159.949 112.981 156.866C113.713 142.025 114.44 127.179 115.172 112.338C107.727 115.544 100.114 118.979 92.3443 122.649C85.5586 125.855 78.9909 129.095 72.6412 132.334C63.7426 128.849 54.3019 125.436 44.3413 122.18C36.7339 119.694 29.3222 117.46 22.1396 115.46C26.1921 126.944 30.2445 138.434 34.3025 149.918C47.315 146.064 59.3325 150.236 63.3346 158.229C65.5648 162.692 64.8829 167.501 64.0668 170.517H64.0612Z" fill="white" stroke="#1D1D1B" stroke-width="3.48" stroke-miterlimit="10"/>
<path d="M72.6421 132.334C72.3403 145.008 72.044 157.676 71.7422 170.35L72.6421 132.334Z" fill="white"/>
<path d="M72.6421 132.334C72.3403 145.008 72.044 157.676 71.7422 170.35" stroke="#1D1D1B" stroke-width="3.18" stroke-miterlimit="10"/>
<path d="M77.9785 140.696C78.7275 140.137 80.097 140.35 80.9633 139.763C81.7459 139.232 82.0533 137.875 82.9309 137.333C83.747 136.831 85.094 137.166 85.9883 136.669C86.8324 136.199 87.2572 134.876 88.1683 134.423C89.0347 133.993 90.3482 134.446 91.2761 134.032C92.2319 133.608 92.7964 132.323 93.7243 131.96C94.7025 131.58 95.9936 132.144 96.9271 131.832C97.9276 131.496 98.6151 130.268 99.5542 129.994C100.577 129.703 101.807 130.385 102.751 130.162C103.797 129.91 104.59 128.754 105.529 128.575" stroke="#1D1D1B" stroke-width="3.48" stroke-miterlimit="10"/>
<path d="M77.9785 151.71C78.7275 151.152 80.097 151.364 80.9633 150.778C81.7459 150.247 82.0533 148.89 82.9309 148.348C83.747 147.845 85.094 148.18 85.9883 147.683C86.8324 147.214 87.2572 145.89 88.1683 145.438C89.0347 145.008 90.3482 145.46 91.2761 145.047C92.2319 144.622 92.7964 143.338 93.7243 142.975C94.7025 142.595 95.9936 143.159 96.9271 142.846C97.9276 142.511 98.6151 141.282 99.5542 141.009C100.577 140.718 101.807 141.4 102.751 141.176C103.797 140.925 104.59 139.769 105.529 139.59" stroke="#1D1D1B" stroke-width="3.48" stroke-miterlimit="10"/>
<path d="M80.8857 162.558C81.4335 162.139 82.4508 162.295 83.0936 161.854C83.6693 161.457 83.8873 160.452 84.5413 160.044C85.1394 159.67 86.1399 159.916 86.8051 159.541C87.4255 159.189 87.7329 158.212 88.4093 157.871C89.0465 157.547 90.0191 157.882 90.7066 157.575C91.4109 157.257 91.8245 156.302 92.5064 156.034C93.2275 155.749 94.1833 156.168 94.8708 155.933C95.6086 155.682 96.1117 154.766 96.8048 154.565C97.5594 154.347 98.4705 154.85 99.1636 154.682C99.9349 154.498 100.516 153.637 101.209 153.503" stroke="#1D1D1B" stroke-width="3.48" stroke-miterlimit="10"/>
<path d="M59.881 143.679C59.132 143.12 58.8917 141.752 58.0253 141.16C57.2428 140.629 55.8789 140.903 54.9957 140.361C54.1797 139.858 53.8164 138.518 52.9164 138.021C52.0724 137.551 50.7421 137.948 49.8254 137.496C48.959 137.065 48.4728 135.758 47.5449 135.351C46.5891 134.926 45.2755 135.434 44.3533 135.077C43.3751 134.697 42.7491 133.435 41.8156 133.122C40.8151 132.787 39.5518 133.413 38.6072 133.139C37.5843 132.848 36.8465 131.647 35.9019 131.424C34.8566 131.173 33.6549 131.916 32.7158 131.737" stroke="#1D1D1B" stroke-width="3.48" stroke-miterlimit="10"/>
<path d="M54.8164 150.465C54.3077 150.085 54.1401 149.147 53.542 148.739C53.0054 148.376 52.0719 148.56 51.4682 148.192C50.9093 147.851 50.6634 146.929 50.0485 146.589C49.4728 146.27 48.5617 146.538 47.9357 146.226C47.3432 145.93 47.0134 145.036 46.3762 144.757C45.7222 144.466 44.8223 144.812 44.1907 144.567C43.5199 144.304 43.0951 143.444 42.4523 143.226C41.7648 142.997 40.904 143.422 40.2556 143.237C39.5569 143.036 39.0483 142.221 38.4055 142.064C37.69 141.897 36.8684 142.399 36.2256 142.282" stroke="#1D1D1B" stroke-width="2.38" stroke-miterlimit="10"/>
</svg>
