<svg width="28" height="27" viewBox="0 0 28 27" fill="none" xmlns="http://www.w3.org/2000/svg">
<path d="M7.86142 8.35533C7.86142 3.91015 10.7433 0.5 14.0457 0.5C17.3481 0.5 20.23 3.91015 20.23 8.35533C20.23 12.8005 17.3481 16.2107 14.0457 16.2107C10.7433 16.2107 7.86142 12.8005 7.86142 8.35533ZM6.20402 17.3144C6.58403 17.2417 7.00986 17.4095 7.3814 17.7623C9.18583 19.4757 11.511 20.5528 14.0457 20.5528C16.5805 20.5528 18.9059 19.4756 20.7104 17.7619C21.0815 17.4095 21.5075 17.2412 21.8882 17.3131C24.7666 17.8571 26.9142 20.3561 26.9142 23.3949V24.7371C26.9142 25.5655 26.2427 26.2371 25.4142 26.2371H2.67715C1.84873 26.2371 1.17715 25.5655 1.17715 24.7371V23.3949C1.17715 20.3609 3.34665 17.8614 6.20402 17.3144Z" fill="black" stroke="black"/>
</svg>
