<svg width="265" height="255" viewBox="0 0 265 255" fill="none" xmlns="http://www.w3.org/2000/svg">
<path d="M212.814 118.039C231.141 117.713 245.879 133.191 244.897 150.752C243.904 168.436 227.315 182.226 209.044 179.66C210.76 168.526 212.08 156.234 212.656 142.917C213.039 134.17 213.051 125.851 212.814 118.039Z" fill="white" stroke="#1D1D1B" stroke-width="3" stroke-linecap="round" stroke-linejoin="round"/>
<path d="M84.6149 221.322C90.675 225.802 107.862 238.522 132.498 238.691C132.498 238.691 157.991 238.871 181.464 221.322C213.852 197.108 225.69 145.27 213.242 90.0993H135.251L120.016 53.7506C115.547 65.8631 111.067 77.9868 106.598 90.0993H48.9765C38.9101 145.585 51.8091 197.063 84.6149 221.322Z" fill="white" stroke="#1D1D1B" stroke-width="3" stroke-linecap="round" stroke-linejoin="round"/>
<path d="M112.196 140.013C111.496 138.887 103.687 126.763 88.9257 125.986C77.7196 125.401 66.9987 131.592 61.5142 141.825C61.6496 143.468 62.6991 153.926 71.5579 160.14C80.5973 166.478 92.0517 164.418 99.3532 159.949C110.006 153.442 111.925 141.791 112.184 140.013H112.196Z" stroke="#1D1D1B" stroke-width="3" stroke-linecap="round" stroke-linejoin="round"/>
<path d="M154.673 138.662C155.463 137.334 162.663 125.638 176.713 124.174C188.178 122.992 199.554 129.105 205.49 139.709C205.32 141.521 204.079 152.992 195.074 159.971C185.887 167.086 174.433 165.026 167.188 160.275C156.625 153.341 154.91 140.598 154.673 138.662Z" stroke="#1D1D1B" stroke-width="3.15" stroke-linecap="round" stroke-linejoin="round"/>
<path d="M68.116 204.729C58.9412 192.684 54.8334 180.808 52.8924 173.311C40.4562 175.945 27.8281 170.857 21.2941 160.692C15.9224 152.339 14.6246 140.474 20.7298 130.647C26.1805 121.866 36.2356 116.812 46.7759 117.555C47.5094 108.392 48.2429 99.2399 48.9765 90.0768C84.4681 101.559 99.5789 97.1574 106.598 90.0768C112.342 84.2794 114.227 75.0713 120.163 74.7673C126.494 74.4296 130.421 84.5721 135.251 90.0768C143.557 99.5326 163.34 105.296 213.242 90.0768C214.676 99.4876 216.109 108.898 217.542 118.309C231.299 120.054 242.29 130.579 244.491 143.964C246.816 158.103 238.544 170.643 228.24 176.249C221.052 180.166 213.976 180.099 210.489 179.817C208.255 186.718 204.113 196.59 196.247 206.597C191.18 213.048 185.91 217.843 181.464 221.299C185.154 223.314 207.905 235.258 232.608 225.644C236.095 224.282 249.49 218.879 257.638 206.102C268.122 189.667 262.502 172.691 247.12 117.814C227.665 48.3923 226.074 37.8671 211.572 24.46C205.444 18.7978 187.546 2.7454 160.789 2.02495C141.955 1.51839 127.589 8.84666 120.885 12.8766C112.839 10.9405 96.7915 8.30632 78.803 14.3288C73.1379 16.22 58.0723 22.0511 42.0813 41.3342C22.0051 65.5479 16.543 93.285 6.97325 148.208C-0.745761 192.492 1.12761 205.134 8.42908 215.873C20.064 232.995 39.7678 236.856 41.7992 237.216C66.8972 241.742 97.4453 234.527 99.77 232.433C94.2403 228.561 74.8984 213.633 68.1047 204.706L68.116 204.729Z" fill="#1D1D1B" stroke="#1D1D1B" stroke-width="3" stroke-linecap="round" stroke-linejoin="round"/>
<path d="M149.673 126.977C145.565 126.211 142.124 122.958 143.038 120.651C144.539 116.868 157.155 116.981 159.243 117.003C160.586 117.015 168.892 117.082 169.558 118.951C170.043 120.302 166.251 121.923 161.827 123.814C155.937 126.335 152.98 127.596 149.673 126.977Z" fill="#1D1D1B" stroke="#1D1D1B" stroke-width="3" stroke-linecap="round" stroke-linejoin="round"/>
<path d="M121.754 171.284C122.274 170.327 125.061 165.386 130.117 164.406C135.782 163.314 139.743 168.054 140.307 168.751" stroke="#1D1D1B" stroke-width="2.55" stroke-linecap="round" stroke-linejoin="round"/>
<path d="M86.8605 186.234C90.3321 186.234 93.1463 183.426 93.1463 179.963C93.1463 176.501 90.3321 173.693 86.8605 173.693C83.389 173.693 80.5747 176.501 80.5747 179.963C80.5747 183.426 83.389 186.234 86.8605 186.234Z" stroke="#1D1D1B" stroke-width="2.22" stroke-linecap="round" stroke-linejoin="round"/>
<path d="M113.572 120.831C117.432 119.367 120.197 115.619 118.91 113.536C116.8 110.125 104.556 112.422 102.524 112.804C101.227 113.052 93.1577 114.56 92.8417 116.485C92.616 117.881 96.5771 118.804 101.204 119.874C107.366 121.303 110.458 122.013 113.561 120.842L113.572 120.831Z" fill="#1D1D1B" stroke="#1D1D1B" stroke-width="3" stroke-linecap="round" stroke-linejoin="round"/>
<path d="M180.222 186.886C183.831 186.886 186.756 183.968 186.756 180.369C186.756 176.769 183.831 173.851 180.222 173.851C176.613 173.851 173.688 176.769 173.688 180.369C173.688 183.968 176.613 186.886 180.222 186.886Z" stroke="#1D1D1B" stroke-width="2.3" stroke-linecap="round" stroke-linejoin="round"/>
<path d="M187.917 134.314C190.266 134.314 192.171 132.414 192.171 130.071C192.171 127.727 190.266 125.827 187.917 125.827C185.567 125.827 183.662 127.727 183.662 130.071C183.662 132.414 185.567 134.314 187.917 134.314Z" fill="#1D1D1B" stroke="#1D1D1B" stroke-width="3" stroke-linecap="round" stroke-linejoin="round"/>
<path d="M97.4561 138.022C99.8058 138.022 101.711 136.122 101.711 133.778C101.711 131.434 99.8058 129.534 97.4561 129.534C95.1064 129.534 93.2017 131.434 93.2017 133.778C93.2017 136.122 95.1064 138.022 97.4561 138.022Z" fill="#1D1D1B" stroke="#1D1D1B" stroke-width="3" stroke-linecap="round" stroke-linejoin="round"/>
<path d="M46.7758 117.566C29.2387 118.32 16.2157 131.165 15.516 143.975C14.6809 159.239 31.27 176.001 52.8923 173.322C50.4773 163.776 48.3783 152.553 47.3514 139.889C46.6968 131.862 46.5727 124.377 46.7758 117.566Z" fill="white" stroke="#1D1D1B" stroke-width="3" stroke-linecap="round" stroke-linejoin="round"/>
<path d="M225.543 148.5C225.972 148.737 229.132 150.538 229.787 154.298C230.317 157.348 229.008 160.5 226.424 162.436" stroke="#1D1D1B" stroke-width="2.6" stroke-linecap="round" stroke-linejoin="round"/>
<path d="M40.7043 142.646C40.3206 142.849 37.5332 144.448 36.9464 147.78C36.4724 150.481 37.6348 153.273 39.9256 154.984" stroke="#1D1D1B" stroke-width="2.3" stroke-linecap="round" stroke-linejoin="round"/>
<path d="M3.08936 222.928C3.56333 206.684 22.9286 195.157 39.134 194.74C56.5921 194.279 76.9956 206.526 77.4583 222.928C77.921 239.633 57.4949 253.546 39.2581 253.119C22.116 252.713 2.61539 239.532 3.10065 222.928H3.08936Z" fill="white" stroke="#1D1D1B" stroke-width="3" stroke-linecap="round" stroke-linejoin="round"/>
<path d="M20.4687 246.533C19.5772 242.965 18.7872 238.687 18.4261 233.813C18.1214 229.682 18.1891 225.944 18.4261 222.714" stroke="#1D1D1B" stroke-width="3" stroke-linecap="round" stroke-linejoin="round"/>
<path d="M57.145 249.291C58.0365 245.317 58.8265 240.533 59.1876 235.096C59.4923 230.492 59.4246 226.327 59.1876 222.725" stroke="#1D1D1B" stroke-width="3.17" stroke-linecap="round" stroke-linejoin="round"/>
<path d="M39.2581 253.118C38.9421 249.955 38.7164 246.567 38.6487 242.987C38.5246 236.413 38.9421 230.424 39.6192 225.134" stroke="#1D1D1B" stroke-width="3" stroke-linecap="round" stroke-linejoin="round"/>
<path d="M151.978 222.928C152.452 206.684 171.817 195.157 188.022 194.74C205.48 194.279 225.884 206.526 226.346 222.928C226.809 239.633 206.383 253.546 188.146 253.119C171.004 252.713 151.504 239.532 151.989 222.928H151.978Z" fill="white" stroke="#1D1D1B" stroke-width="3" stroke-linecap="round" stroke-linejoin="round"/>
<path d="M169.368 246.533C168.477 242.965 167.687 238.687 167.326 233.813C167.021 229.682 167.089 225.944 167.326 222.714" stroke="#1D1D1B" stroke-width="3" stroke-linecap="round" stroke-linejoin="round"/>
<path d="M206.033 249.28C206.925 245.306 207.715 240.522 208.076 235.085C208.381 230.481 208.313 226.316 208.076 222.714" stroke="#1D1D1B" stroke-width="3.17" stroke-linecap="round" stroke-linejoin="round"/>
<path d="M188.146 253.107C187.83 249.944 187.605 246.556 187.537 242.976C187.413 236.402 187.83 230.413 188.507 225.122" stroke="#1D1D1B" stroke-width="3" stroke-linecap="round" stroke-linejoin="round"/>
<path d="M120.422 223.528C122.161 223.528 123.571 222.122 123.571 220.388C123.571 218.653 122.161 217.247 120.422 217.247C118.684 217.247 117.274 218.653 117.274 220.388C117.274 222.122 118.684 223.528 120.422 223.528Z" stroke="#1D1D1B" stroke-width="1.11" stroke-linecap="round" stroke-linejoin="round"/>
</svg>
