<svg width="82" height="34" viewBox="0 0 82 34" fill="none" xmlns="http://www.w3.org/2000/svg">
<path d="M65.5858 33.4142C66.3668 34.1953 67.6332 34.1953 68.4142 33.4142L81.1421 20.6863C81.9232 19.9052 81.9232 18.6389 81.1421 17.8579C80.3611 17.0768 79.0948 17.0768 78.3137 17.8579L67 29.1716L55.6863 17.8579C54.9052 17.0768 53.6389 17.0768 52.8579 17.8579C52.0768 18.6389 52.0768 19.9052 52.8579 20.6863L65.5858 33.4142ZM65 0V32H69V0L65 0Z" fill="#FFA04C"/>
<path d="M13.5858 33.4142C14.3668 34.1953 15.6332 34.1953 16.4142 33.4142L29.1421 20.6863C29.9232 19.9052 29.9232 18.6389 29.1421 17.8579C28.3611 17.0768 27.0948 17.0768 26.3137 17.8579L15 29.1716L3.68629 17.8579C2.90524 17.0768 1.63891 17.0768 0.857864 17.8579C0.0768156 18.6389 0.0768156 19.9052 0.857864 20.6863L13.5858 33.4142ZM13 0L13 32H17V0L13 0Z" fill="#FFA04C"/>
</svg>
