<svg width="29" height="31" viewBox="0 0 29 31" fill="none" xmlns="http://www.w3.org/2000/svg">
<g filter="url(#filter0_d_483_1297)">
<path d="M14.5 0.566895C13.765 0.566895 13.1875 1.15775 13.1875 1.90974C13.1875 2.66173 13.765 3.25258 14.5 3.25258C15.235 3.25258 15.8125 2.66173 15.8125 1.90974C15.8125 1.15775 15.235 0.566895 14.5 0.566895ZM7.9375 3.25258C7.2025 3.25258 6.625 3.84343 6.625 4.59543C6.625 5.34742 7.2025 5.93827 7.9375 5.93827C8.6725 5.93827 9.25 5.34742 9.25 4.59543C9.25 3.84343 8.6725 3.25258 7.9375 3.25258ZM21.0625 3.25258C20.3275 3.25258 19.75 3.84343 19.75 4.59543C19.75 5.34742 20.3275 5.93827 21.0625 5.93827C21.7975 5.93827 22.375 5.34742 22.375 4.59543C22.375 3.84343 21.7975 3.25258 21.0625 3.25258ZM14.5 5.93827C11.6125 5.93827 9.25 8.35539 9.25 11.3096C9.25 14.2639 11.6125 16.681 14.5 16.681C17.3875 16.681 19.75 14.2639 19.75 11.3096C19.75 8.35539 17.3875 5.93827 14.5 5.93827ZM5.3125 9.9668C4.5775 9.9668 4 10.5577 4 11.3096C4 12.0616 4.5775 12.6525 5.3125 12.6525C6.0475 12.6525 6.625 12.0616 6.625 11.3096C6.625 10.5577 6.0475 9.9668 5.3125 9.9668ZM23.6875 9.9668C22.9525 9.9668 22.375 10.5577 22.375 11.3096C22.375 12.0616 22.9525 12.6525 23.6875 12.6525C24.4225 12.6525 25 12.0616 25 11.3096C25 10.5577 24.4225 9.9668 23.6875 9.9668ZM7.9375 16.681C7.2025 16.681 6.625 17.2719 6.625 18.0239C6.625 18.7759 7.2025 19.3667 7.9375 19.3667C8.6725 19.3667 9.25 18.7759 9.25 18.0239C9.25 17.2719 8.6725 16.681 7.9375 16.681ZM21.0625 16.681C20.3275 16.681 19.75 17.2719 19.75 18.0239C19.75 18.7759 20.3275 19.3667 21.0625 19.3667C21.7975 19.3667 22.375 18.7759 22.375 18.0239C22.375 17.2719 21.7975 16.681 21.0625 16.681ZM14.5 19.3667C13.765 19.3667 13.1875 19.9576 13.1875 20.7095C13.1875 21.4615 13.765 22.0524 14.5 22.0524C15.235 22.0524 15.8125 21.4615 15.8125 20.7095C15.8125 19.9576 15.235 19.3667 14.5 19.3667Z" fill="white"/>
</g>
<defs>
<filter id="filter0_d_483_1297" x="0" y="0.566895" width="29" height="29.4856" filterUnits="userSpaceOnUse" color-interpolation-filters="sRGB">
<feFlood flood-opacity="0" result="BackgroundImageFix"/>
<feColorMatrix in="SourceAlpha" type="matrix" values="0 0 0 0 0 0 0 0 0 0 0 0 0 0 0 0 0 0 127 0" result="hardAlpha"/>
<feOffset dy="4"/>
<feGaussianBlur stdDeviation="2"/>
<feComposite in2="hardAlpha" operator="out"/>
<feColorMatrix type="matrix" values="0 0 0 0 0 0 0 0 0 0 0 0 0 0 0 0 0 0 0.3 0"/>
<feBlend mode="normal" in2="BackgroundImageFix" result="effect1_dropShadow_483_1297"/>
<feBlend mode="normal" in="SourceGraphic" in2="effect1_dropShadow_483_1297" result="shape"/>
</filter>
</defs>
</svg>
