<svg width="21" height="23" viewBox="0 0 21 23" fill="none" xmlns="http://www.w3.org/2000/svg">
<path d="M10.5 0.566895C9.765 0.566895 9.1875 1.15775 9.1875 1.90974C9.1875 2.66173 9.765 3.25258 10.5 3.25258C11.235 3.25258 11.8125 2.66173 11.8125 1.90974C11.8125 1.15775 11.235 0.566895 10.5 0.566895ZM3.9375 3.25258C3.2025 3.25258 2.625 3.84343 2.625 4.59543C2.625 5.34742 3.2025 5.93827 3.9375 5.93827C4.6725 5.93827 5.25 5.34742 5.25 4.59543C5.25 3.84343 4.6725 3.25258 3.9375 3.25258ZM17.0625 3.25258C16.3275 3.25258 15.75 3.84343 15.75 4.59543C15.75 5.34742 16.3275 5.93827 17.0625 5.93827C17.7975 5.93827 18.375 5.34742 18.375 4.59543C18.375 3.84343 17.7975 3.25258 17.0625 3.25258ZM10.5 5.93827C7.6125 5.93827 5.25 8.35539 5.25 11.3096C5.25 14.2639 7.6125 16.681 10.5 16.681C13.3875 16.681 15.75 14.2639 15.75 11.3096C15.75 8.35539 13.3875 5.93827 10.5 5.93827ZM1.3125 9.9668C0.5775 9.9668 0 10.5577 0 11.3096C0 12.0616 0.5775 12.6525 1.3125 12.6525C2.0475 12.6525 2.625 12.0616 2.625 11.3096C2.625 10.5577 2.0475 9.9668 1.3125 9.9668ZM19.6875 9.9668C18.9525 9.9668 18.375 10.5577 18.375 11.3096C18.375 12.0616 18.9525 12.6525 19.6875 12.6525C20.4225 12.6525 21 12.0616 21 11.3096C21 10.5577 20.4225 9.9668 19.6875 9.9668ZM3.9375 16.681C3.2025 16.681 2.625 17.2719 2.625 18.0239C2.625 18.7759 3.2025 19.3667 3.9375 19.3667C4.6725 19.3667 5.25 18.7759 5.25 18.0239C5.25 17.2719 4.6725 16.681 3.9375 16.681ZM17.0625 16.681C16.3275 16.681 15.75 17.2719 15.75 18.0239C15.75 18.7759 16.3275 19.3667 17.0625 19.3667C17.7975 19.3667 18.375 18.7759 18.375 18.0239C18.375 17.2719 17.7975 16.681 17.0625 16.681ZM10.5 19.3667C9.765 19.3667 9.1875 19.9576 9.1875 20.7095C9.1875 21.4615 9.765 22.0524 10.5 22.0524C11.235 22.0524 11.8125 21.4615 11.8125 20.7095C11.8125 19.9576 11.235 19.3667 10.5 19.3667Z" fill="white"/>
</svg>
