<svg width="272" height="250" viewBox="0 0 272 250" fill="none" xmlns="http://www.w3.org/2000/svg">
<path d="M268.5 229.7C241.4 202.2 197.3 185.1 149.1 182.9C153.6 165 161.2 126.9 155.1 93.7C162.7 96.6 171.8 98.9 181.9 98.9C187.5 98.9 193.3 98.2 199.4 96.6C224.7 89.9 246.9 68.6 265.2 33.4C267.9 28.2 268.1 22.2 265.6 16.8C263.2 11.5 258.5 7.59999 252.8 6.19999C214.2 -3.10001 183.6 -0.30001 161.9 14.4C147.2 24.4 139.3 37.9 135 49.8C126.6 39.9 113.7 29.4 95.4 25.5C69.8 20 40.4 29 8.09999 52.1C3.29999 55.5 0.499988 60.8 0.199988 66.7C-1.16676e-05 72.6 2.39999 78.1 6.79999 81.9C33.6 104.8 59.1 116.3 82.7 116.3C85.7 116.3 88.6 116.1 91.5 115.7C113.6 112.9 128.7 100.3 137.7 89.9C146.4 123.1 136.4 167.4 132.3 182.8C82.5 184.1 36.5 201.4 8.59999 229.7C5.29999 233 4.39999 237.9 6.19999 242.1C7.99999 246.3 12.1 249.1 16.7 249.1H260.3C264.9 249.1 269 246.4 270.8 242.1C272.7 237.9 271.7 233 268.5 229.7ZM171 27.8C181.6 20.6 195.2 17 211.7 17C222.9 17 235.3 18.6 249 21.9C250.1 22.2 250.7 23 250.9 23.5C251.1 24 251.4 24.9 250.9 25.9C234.8 56.9 216 75.5 195.3 81C175.3 86.3 157.9 78.3 148.9 72.6C148.3 71.2 147.6 69.8 146.9 68.4C148.5 57.9 153.8 39.4 171 27.8ZM130 73.7C124 82.3 110.7 97 89.5 99.7C68.2 102.4 43.9 92.3 17.3 69.6C16.4 68.8 16.3 67.9 16.3 67.4C16.3 66.9 16.5 65.9 17.4 65.2C45.8 44.8 70.9 36.8 91.9 41.3C112.7 45.7 124.7 61.6 130 70.6C130.7 71.6 130.7 72.8 130 73.7ZM29.1 233C55.8 211.4 95.7 198.8 138.6 198.8C181.5 198.8 221.4 211.4 248.1 233H29.1Z" fill="black"/>
</svg>
